<svg width="1363" height="297" viewBox="0 0 1363 297" fill="none" xmlns="http://www.w3.org/2000/svg">
<path d="M0 15C0 6.71573 6.71573 0 15 0H37V297H15C6.71573 297 0 290.284 0 282V15Z" fill="#F6815B"/>
<path d="M37 0H1348C1356.28 0 1363 6.71573 1363 15V282C1363 290.284 1356.28 297 1348 297H37V0Z" fill="#F0F0F0"/>
<path d="M97.6934 49.4062H102.158L108.732 68.1973L115.307 49.4062H119.771L110.525 75H106.939L97.6934 49.4062ZM95.2852 49.4062H99.7324L100.541 67.7227V75H95.2852V49.4062ZM117.732 49.4062H122.197V75H116.924V67.7227L117.732 49.4062ZM125.695 65.6836V65.3145C125.695 63.9199 125.895 62.6367 126.293 61.4648C126.691 60.2812 127.271 59.2559 128.033 58.3887C128.795 57.5215 129.732 56.8477 130.846 56.3672C131.959 55.875 133.236 55.6289 134.678 55.6289C136.119 55.6289 137.402 55.875 138.527 56.3672C139.652 56.8477 140.596 57.5215 141.357 58.3887C142.131 59.2559 142.717 60.2812 143.115 61.4648C143.514 62.6367 143.713 63.9199 143.713 65.3145V65.6836C143.713 67.0664 143.514 68.3496 143.115 69.5332C142.717 70.7051 142.131 71.7305 141.357 72.6094C140.596 73.4766 139.658 74.1504 138.545 74.6309C137.432 75.1113 136.154 75.3516 134.713 75.3516C133.271 75.3516 131.988 75.1113 130.863 74.6309C129.75 74.1504 128.807 73.4766 128.033 72.6094C127.271 71.7305 126.691 70.7051 126.293 69.5332C125.895 68.3496 125.695 67.0664 125.695 65.6836ZM130.758 65.3145V65.6836C130.758 66.4805 130.828 67.2246 130.969 67.916C131.109 68.6074 131.332 69.2168 131.637 69.7441C131.953 70.2598 132.363 70.6641 132.867 70.957C133.371 71.25 133.986 71.3965 134.713 71.3965C135.416 71.3965 136.02 71.25 136.523 70.957C137.027 70.6641 137.432 70.2598 137.736 69.7441C138.041 69.2168 138.264 68.6074 138.404 67.916C138.557 67.2246 138.633 66.4805 138.633 65.6836V65.3145C138.633 64.541 138.557 63.8145 138.404 63.1348C138.264 62.4434 138.035 61.834 137.719 61.3066C137.414 60.7676 137.01 60.3457 136.506 60.041C136.002 59.7363 135.393 59.584 134.678 59.584C133.963 59.584 133.354 59.7363 132.85 60.041C132.357 60.3457 131.953 60.7676 131.637 61.3066C131.332 61.834 131.109 62.4434 130.969 63.1348C130.828 63.8145 130.758 64.541 130.758 65.3145ZM151.764 48V75H146.701V48H151.764ZM151.043 64.8223H149.654C149.666 63.498 149.842 62.2793 150.182 61.166C150.521 60.041 151.008 59.0684 151.641 58.248C152.273 57.416 153.029 56.7715 153.908 56.3145C154.799 55.8574 155.783 55.6289 156.861 55.6289C157.799 55.6289 158.648 55.7637 159.41 56.0332C160.184 56.291 160.846 56.7129 161.396 57.2988C161.959 57.873 162.393 58.6289 162.697 59.5664C163.002 60.5039 163.154 61.6406 163.154 62.9766V75H158.057V62.9414C158.057 62.0977 157.934 61.4355 157.688 60.9551C157.453 60.4629 157.107 60.1172 156.65 59.918C156.205 59.707 155.654 59.6016 154.998 59.6016C154.271 59.6016 153.65 59.7363 153.135 60.0059C152.631 60.2754 152.227 60.6504 151.922 61.1309C151.617 61.5996 151.395 62.1504 151.254 62.7832C151.113 63.416 151.043 64.0957 151.043 64.8223ZM177.27 70.7109V62.2383C177.27 61.6289 177.17 61.1074 176.971 60.6738C176.771 60.2285 176.461 59.8828 176.039 59.6367C175.629 59.3906 175.096 59.2676 174.439 59.2676C173.877 59.2676 173.391 59.3672 172.98 59.5664C172.57 59.7539 172.254 60.0293 172.031 60.3926C171.809 60.7441 171.697 61.1602 171.697 61.6406H166.635C166.635 60.832 166.822 60.0645 167.197 59.3379C167.572 58.6113 168.117 57.9727 168.832 57.4219C169.547 56.8594 170.396 56.4199 171.381 56.1035C172.377 55.7871 173.49 55.6289 174.721 55.6289C176.197 55.6289 177.51 55.875 178.658 56.3672C179.807 56.8594 180.709 57.5977 181.365 58.582C182.033 59.5664 182.367 60.7969 182.367 62.2734V70.4121C182.367 71.4551 182.432 72.3105 182.561 72.9785C182.689 73.6348 182.877 74.209 183.123 74.7012V75H178.008C177.762 74.4844 177.574 73.8398 177.445 73.0664C177.328 72.2812 177.27 71.4961 177.27 70.7109ZM177.938 63.416L177.973 66.2812H175.143C174.475 66.2812 173.895 66.3574 173.402 66.5098C172.91 66.6621 172.506 66.8789 172.189 67.1602C171.873 67.4297 171.639 67.7461 171.486 68.1094C171.346 68.4727 171.275 68.8711 171.275 69.3047C171.275 69.7383 171.375 70.1309 171.574 70.4824C171.773 70.8223 172.061 71.0918 172.436 71.291C172.811 71.4785 173.25 71.5723 173.754 71.5723C174.516 71.5723 175.178 71.4199 175.74 71.1152C176.303 70.8105 176.736 70.4355 177.041 69.9902C177.357 69.5449 177.521 69.123 177.533 68.7246L178.869 70.8691C178.682 71.3496 178.424 71.8477 178.096 72.3633C177.779 72.8789 177.375 73.3652 176.883 73.8223C176.391 74.2676 175.799 74.6367 175.107 74.9297C174.416 75.2109 173.596 75.3516 172.646 75.3516C171.439 75.3516 170.344 75.1113 169.359 74.6309C168.387 74.1387 167.613 73.4648 167.039 72.6094C166.477 71.7422 166.195 70.7578 166.195 69.6562C166.195 68.6602 166.383 67.7754 166.758 67.002C167.133 66.2285 167.684 65.5781 168.41 65.0508C169.148 64.5117 170.068 64.1074 171.17 63.8379C172.271 63.5566 173.549 63.416 175.002 63.416H177.938ZM191.332 59.918V75H186.252V55.9805H191.016L191.332 59.918ZM190.629 64.8223H189.223C189.223 63.498 189.381 62.2793 189.697 61.166C190.025 60.041 190.5 59.0684 191.121 58.248C191.754 57.416 192.533 56.7715 193.459 56.3145C194.385 55.8574 195.457 55.6289 196.676 55.6289C197.52 55.6289 198.293 55.7578 198.996 56.0156C199.699 56.2617 200.303 56.6543 200.807 57.1934C201.322 57.7207 201.721 58.4121 202.002 59.2676C202.283 60.1113 202.424 61.125 202.424 62.3086V75H197.361V62.8711C197.361 62.0039 197.244 61.3359 197.01 60.8672C196.775 60.3984 196.441 60.0703 196.008 59.8828C195.586 59.6953 195.076 59.6016 194.479 59.6016C193.822 59.6016 193.248 59.7363 192.756 60.0059C192.275 60.2754 191.877 60.6504 191.561 61.1309C191.244 61.5996 191.01 62.1504 190.857 62.7832C190.705 63.416 190.629 64.0957 190.629 64.8223ZM201.949 64.2422L200.139 64.4707C200.139 63.2285 200.291 62.0742 200.596 61.0078C200.912 59.9414 201.375 59.0039 201.984 58.1953C202.605 57.3867 203.373 56.7598 204.287 56.3145C205.201 55.8574 206.256 55.6289 207.451 55.6289C208.365 55.6289 209.197 55.7637 209.947 56.0332C210.697 56.291 211.336 56.707 211.863 57.2812C212.402 57.8438 212.812 58.582 213.094 59.4961C213.387 60.4102 213.533 61.5293 213.533 62.8535V75H208.453V62.8535C208.453 61.9746 208.336 61.3066 208.102 60.8496C207.879 60.3809 207.551 60.0586 207.117 59.8828C206.695 59.6953 206.191 59.6016 205.605 59.6016C204.996 59.6016 204.463 59.7246 204.006 59.9707C203.549 60.2051 203.168 60.5332 202.863 60.9551C202.559 61.377 202.33 61.8691 202.178 62.4316C202.025 62.9824 201.949 63.5859 201.949 64.2422ZM222.516 59.918V75H217.436V55.9805H222.199L222.516 59.918ZM221.812 64.8223H220.406C220.406 63.498 220.564 62.2793 220.881 61.166C221.209 60.041 221.684 59.0684 222.305 58.248C222.938 57.416 223.717 56.7715 224.643 56.3145C225.568 55.8574 226.641 55.6289 227.859 55.6289C228.703 55.6289 229.477 55.7578 230.18 56.0156C230.883 56.2617 231.486 56.6543 231.99 57.1934C232.506 57.7207 232.904 58.4121 233.186 59.2676C233.467 60.1113 233.607 61.125 233.607 62.3086V75H228.545V62.8711C228.545 62.0039 228.428 61.3359 228.193 60.8672C227.959 60.3984 227.625 60.0703 227.191 59.8828C226.77 59.6953 226.26 59.6016 225.662 59.6016C225.006 59.6016 224.432 59.7363 223.939 60.0059C223.459 60.2754 223.061 60.6504 222.744 61.1309C222.428 61.5996 222.193 62.1504 222.041 62.7832C221.889 63.416 221.812 64.0957 221.812 64.8223ZM233.133 64.2422L231.322 64.4707C231.322 63.2285 231.475 62.0742 231.779 61.0078C232.096 59.9414 232.559 59.0039 233.168 58.1953C233.789 57.3867 234.557 56.7598 235.471 56.3145C236.385 55.8574 237.439 55.6289 238.635 55.6289C239.549 55.6289 240.381 55.7637 241.131 56.0332C241.881 56.291 242.52 56.707 243.047 57.2812C243.586 57.8438 243.996 58.582 244.277 59.4961C244.57 60.4102 244.717 61.5293 244.717 62.8535V75H239.637V62.8535C239.637 61.9746 239.52 61.3066 239.285 60.8496C239.062 60.3809 238.734 60.0586 238.301 59.8828C237.879 59.6953 237.375 59.6016 236.789 59.6016C236.18 59.6016 235.646 59.7246 235.189 59.9707C234.732 60.2051 234.352 60.5332 234.047 60.9551C233.742 61.377 233.514 61.8691 233.361 62.4316C233.209 62.9824 233.133 63.5859 233.133 64.2422ZM258.902 70.7109V62.2383C258.902 61.6289 258.803 61.1074 258.604 60.6738C258.404 60.2285 258.094 59.8828 257.672 59.6367C257.262 59.3906 256.729 59.2676 256.072 59.2676C255.51 59.2676 255.023 59.3672 254.613 59.5664C254.203 59.7539 253.887 60.0293 253.664 60.3926C253.441 60.7441 253.33 61.1602 253.33 61.6406H248.268C248.268 60.832 248.455 60.0645 248.83 59.3379C249.205 58.6113 249.75 57.9727 250.465 57.4219C251.18 56.8594 252.029 56.4199 253.014 56.1035C254.01 55.7871 255.123 55.6289 256.354 55.6289C257.83 55.6289 259.143 55.875 260.291 56.3672C261.439 56.8594 262.342 57.5977 262.998 58.582C263.666 59.5664 264 60.7969 264 62.2734V70.4121C264 71.4551 264.064 72.3105 264.193 72.9785C264.322 73.6348 264.51 74.209 264.756 74.7012V75H259.641C259.395 74.4844 259.207 73.8398 259.078 73.0664C258.961 72.2812 258.902 71.4961 258.902 70.7109ZM259.57 63.416L259.605 66.2812H256.775C256.107 66.2812 255.527 66.3574 255.035 66.5098C254.543 66.6621 254.139 66.8789 253.822 67.1602C253.506 67.4297 253.271 67.7461 253.119 68.1094C252.979 68.4727 252.908 68.8711 252.908 69.3047C252.908 69.7383 253.008 70.1309 253.207 70.4824C253.406 70.8223 253.693 71.0918 254.068 71.291C254.443 71.4785 254.883 71.5723 255.387 71.5723C256.148 71.5723 256.811 71.4199 257.373 71.1152C257.936 70.8105 258.369 70.4355 258.674 69.9902C258.99 69.5449 259.154 69.123 259.166 68.7246L260.502 70.8691C260.314 71.3496 260.057 71.8477 259.729 72.3633C259.412 72.8789 259.008 73.3652 258.516 73.8223C258.023 74.2676 257.432 74.6367 256.74 74.9297C256.049 75.2109 255.229 75.3516 254.279 75.3516C253.072 75.3516 251.977 75.1113 250.992 74.6309C250.02 74.1387 249.246 73.4648 248.672 72.6094C248.109 71.7422 247.828 70.7578 247.828 69.6562C247.828 68.6602 248.016 67.7754 248.391 67.002C248.766 66.2285 249.316 65.5781 250.043 65.0508C250.781 64.5117 251.701 64.1074 252.803 63.8379C253.904 63.5566 255.182 63.416 256.635 63.416H259.57ZM279.135 70.8516V48H284.232V75H279.645L279.135 70.8516ZM267.111 65.7188V65.3496C267.111 63.8965 267.275 62.5781 267.604 61.3945C267.932 60.1992 268.412 59.1738 269.045 58.3184C269.678 57.4629 270.457 56.8008 271.383 56.332C272.309 55.8633 273.363 55.6289 274.547 55.6289C275.66 55.6289 276.633 55.8633 277.465 56.332C278.309 56.8008 279.023 57.4688 279.609 58.3359C280.207 59.1914 280.688 60.2051 281.051 61.377C281.414 62.5371 281.678 63.8086 281.842 65.1914V66C281.678 67.3242 281.414 68.5547 281.051 69.6914C280.688 70.8281 280.207 71.8242 279.609 72.6797C279.023 73.5234 278.309 74.1797 277.465 74.6484C276.621 75.1172 275.637 75.3516 274.512 75.3516C273.328 75.3516 272.273 75.1113 271.348 74.6309C270.434 74.1504 269.66 73.4766 269.027 72.6094C268.406 71.7422 267.932 70.7227 267.604 69.5508C267.275 68.3789 267.111 67.1016 267.111 65.7188ZM272.174 65.3496V65.7188C272.174 66.5039 272.232 67.2363 272.35 67.916C272.479 68.5957 272.684 69.1992 272.965 69.7266C273.258 70.2422 273.633 70.6465 274.09 70.9395C274.559 71.2207 275.127 71.3613 275.795 71.3613C276.662 71.3613 277.377 71.168 277.939 70.7812C278.502 70.3828 278.93 69.8379 279.223 69.1465C279.527 68.4551 279.703 67.6582 279.75 66.7559V64.4531C279.715 63.7148 279.609 63.0527 279.434 62.4668C279.27 61.8691 279.023 61.3594 278.695 60.9375C278.379 60.5156 277.98 60.1875 277.5 59.9531C277.031 59.7188 276.475 59.6016 275.83 59.6016C275.174 59.6016 274.611 59.7539 274.143 60.0586C273.674 60.3516 273.293 60.7559 273 61.2715C272.719 61.7871 272.508 62.3965 272.367 63.0996C272.238 63.791 272.174 64.541 272.174 65.3496ZM314.537 59.8301V63.9434H301.178V59.8301H314.537ZM302.742 49.4062V75H297.469V49.4062H302.742ZM318.299 49.4062V75H313.043V49.4062H318.299ZM333.82 70.4473V55.9805H338.883V75H334.119L333.82 70.4473ZM334.383 66.5449L335.877 66.5098C335.877 67.7754 335.73 68.9531 335.438 70.043C335.145 71.1211 334.705 72.0586 334.119 72.8555C333.533 73.6406 332.795 74.2559 331.904 74.7012C331.014 75.1348 329.965 75.3516 328.758 75.3516C327.832 75.3516 326.977 75.2227 326.191 74.9648C325.418 74.6953 324.75 74.2793 324.188 73.7168C323.637 73.1426 323.203 72.4102 322.887 71.5195C322.582 70.6172 322.43 69.5332 322.43 68.2676V55.9805H327.492V68.3027C327.492 68.8652 327.557 69.3398 327.686 69.7266C327.826 70.1133 328.02 70.4297 328.266 70.6758C328.512 70.9219 328.799 71.0977 329.127 71.2031C329.467 71.3086 329.842 71.3613 330.252 71.3613C331.295 71.3613 332.115 71.1504 332.713 70.7285C333.322 70.3066 333.75 69.7324 333.996 69.0059C334.254 68.2676 334.383 67.4473 334.383 66.5449ZM353.033 69.7441C353.033 69.3809 352.928 69.0527 352.717 68.7598C352.506 68.4668 352.113 68.1973 351.539 67.9512C350.977 67.6934 350.162 67.459 349.096 67.248C348.135 67.0371 347.238 66.7734 346.406 66.457C345.586 66.1289 344.871 65.7363 344.262 65.2793C343.664 64.8223 343.195 64.2832 342.855 63.6621C342.516 63.0293 342.346 62.3086 342.346 61.5C342.346 60.7031 342.516 59.9531 342.855 59.25C343.207 58.5469 343.705 57.9258 344.35 57.3867C345.006 56.8359 345.803 56.4082 346.74 56.1035C347.689 55.7871 348.756 55.6289 349.939 55.6289C351.592 55.6289 353.01 55.8926 354.193 56.4199C355.389 56.9473 356.303 57.6738 356.936 58.5996C357.58 59.5137 357.902 60.5566 357.902 61.7285H352.84C352.84 61.2363 352.734 60.7969 352.523 60.4102C352.324 60.0117 352.008 59.7012 351.574 59.4785C351.152 59.2441 350.602 59.127 349.922 59.127C349.359 59.127 348.873 59.2266 348.463 59.4258C348.053 59.6133 347.736 59.8711 347.514 60.1992C347.303 60.5156 347.197 60.8672 347.197 61.2539C347.197 61.5469 347.256 61.8105 347.373 62.0449C347.502 62.2676 347.707 62.4727 347.988 62.6602C348.27 62.8477 348.633 63.0234 349.078 63.1875C349.535 63.3398 350.098 63.4805 350.766 63.6094C352.137 63.8906 353.361 64.2598 354.439 64.7168C355.518 65.1621 356.373 65.7715 357.006 66.5449C357.639 67.3066 357.955 68.3086 357.955 69.5508C357.955 70.3945 357.768 71.168 357.393 71.8711C357.018 72.5742 356.479 73.1895 355.775 73.7168C355.072 74.2324 354.229 74.6367 353.244 74.9297C352.271 75.2109 351.176 75.3516 349.957 75.3516C348.188 75.3516 346.688 75.0352 345.457 74.4023C344.238 73.7695 343.312 72.9668 342.68 71.9941C342.059 71.0098 341.748 70.002 341.748 68.9707H346.547C346.57 69.6621 346.746 70.2188 347.074 70.6406C347.414 71.0625 347.842 71.3672 348.357 71.5547C348.885 71.7422 349.453 71.8359 350.062 71.8359C350.719 71.8359 351.264 71.748 351.697 71.5723C352.131 71.3848 352.459 71.1387 352.682 70.834C352.916 70.5176 353.033 70.1543 353.033 69.7441ZM371.525 69.7441C371.525 69.3809 371.42 69.0527 371.209 68.7598C370.998 68.4668 370.605 68.1973 370.031 67.9512C369.469 67.6934 368.654 67.459 367.588 67.248C366.627 67.0371 365.73 66.7734 364.898 66.457C364.078 66.1289 363.363 65.7363 362.754 65.2793C362.156 64.8223 361.688 64.2832 361.348 63.6621C361.008 63.0293 360.838 62.3086 360.838 61.5C360.838 60.7031 361.008 59.9531 361.348 59.25C361.699 58.5469 362.197 57.9258 362.842 57.3867C363.498 56.8359 364.295 56.4082 365.232 56.1035C366.182 55.7871 367.248 55.6289 368.432 55.6289C370.084 55.6289 371.502 55.8926 372.686 56.4199C373.881 56.9473 374.795 57.6738 375.428 58.5996C376.072 59.5137 376.395 60.5566 376.395 61.7285H371.332C371.332 61.2363 371.227 60.7969 371.016 60.4102C370.816 60.0117 370.5 59.7012 370.066 59.4785C369.645 59.2441 369.094 59.127 368.414 59.127C367.852 59.127 367.365 59.2266 366.955 59.4258C366.545 59.6133 366.229 59.8711 366.006 60.1992C365.795 60.5156 365.689 60.8672 365.689 61.2539C365.689 61.5469 365.748 61.8105 365.865 62.0449C365.994 62.2676 366.199 62.4727 366.48 62.6602C366.762 62.8477 367.125 63.0234 367.57 63.1875C368.027 63.3398 368.59 63.4805 369.258 63.6094C370.629 63.8906 371.854 64.2598 372.932 64.7168C374.01 65.1621 374.865 65.7715 375.498 66.5449C376.131 67.3066 376.447 68.3086 376.447 69.5508C376.447 70.3945 376.26 71.168 375.885 71.8711C375.51 72.5742 374.971 73.1895 374.268 73.7168C373.564 74.2324 372.721 74.6367 371.736 74.9297C370.764 75.2109 369.668 75.3516 368.449 75.3516C366.68 75.3516 365.18 75.0352 363.949 74.4023C362.73 73.7695 361.805 72.9668 361.172 71.9941C360.551 71.0098 360.24 70.002 360.24 68.9707H365.039C365.062 69.6621 365.238 70.2188 365.566 70.6406C365.906 71.0625 366.334 71.3672 366.85 71.5547C367.377 71.7422 367.945 71.8359 368.555 71.8359C369.211 71.8359 369.756 71.748 370.189 71.5723C370.623 71.3848 370.951 71.1387 371.174 70.834C371.408 70.5176 371.525 70.1543 371.525 69.7441ZM388.488 75.3516C387.012 75.3516 385.688 75.1172 384.516 74.6484C383.344 74.168 382.348 73.5059 381.527 72.6621C380.719 71.8184 380.098 70.8398 379.664 69.7266C379.23 68.6016 379.014 67.4062 379.014 66.1406V65.4375C379.014 63.9961 379.219 62.6777 379.629 61.4824C380.039 60.2871 380.625 59.25 381.387 58.3711C382.16 57.4922 383.098 56.8184 384.199 56.3496C385.301 55.8691 386.543 55.6289 387.926 55.6289C389.273 55.6289 390.469 55.8516 391.512 56.2969C392.555 56.7422 393.428 57.375 394.131 58.1953C394.846 59.0156 395.385 60 395.748 61.1484C396.111 62.2852 396.293 63.5508 396.293 64.9453V67.0547H381.176V63.6797H391.318V63.293C391.318 62.5898 391.189 61.9629 390.932 61.4121C390.686 60.8496 390.311 60.4043 389.807 60.0762C389.303 59.748 388.658 59.584 387.873 59.584C387.205 59.584 386.631 59.7305 386.15 60.0234C385.67 60.3164 385.277 60.7266 384.973 61.2539C384.68 61.7812 384.457 62.4023 384.305 63.1172C384.164 63.8203 384.094 64.5938 384.094 65.4375V66.1406C384.094 66.9023 384.199 67.6055 384.41 68.25C384.633 68.8945 384.943 69.4512 385.342 69.9199C385.752 70.3887 386.244 70.752 386.818 71.0098C387.404 71.2676 388.066 71.3965 388.805 71.3965C389.719 71.3965 390.568 71.2207 391.354 70.8691C392.15 70.5059 392.836 69.9609 393.41 69.2344L395.871 71.9062C395.473 72.4805 394.928 73.0312 394.236 73.5586C393.557 74.0859 392.736 74.5195 391.775 74.8594C390.814 75.1875 389.719 75.3516 388.488 75.3516ZM404.52 55.9805V75H399.439V55.9805H404.52ZM399.123 51.0234C399.123 50.2852 399.381 49.6758 399.896 49.1953C400.412 48.7148 401.104 48.4746 401.971 48.4746C402.826 48.4746 403.512 48.7148 404.027 49.1953C404.555 49.6758 404.818 50.2852 404.818 51.0234C404.818 51.7617 404.555 52.3711 404.027 52.8516C403.512 53.332 402.826 53.5723 401.971 53.5723C401.104 53.5723 400.412 53.332 399.896 52.8516C399.381 52.3711 399.123 51.7617 399.123 51.0234ZM413.66 60.041V75H408.598V55.9805H413.344L413.66 60.041ZM412.922 64.8223H411.551C411.551 63.416 411.732 62.1504 412.096 61.0254C412.459 59.8887 412.969 58.9219 413.625 58.125C414.281 57.3164 415.061 56.7012 415.963 56.2793C416.877 55.8457 417.896 55.6289 419.021 55.6289C419.912 55.6289 420.727 55.7578 421.465 56.0156C422.203 56.2734 422.836 56.6836 423.363 57.2461C423.902 57.8086 424.312 58.5527 424.594 59.4785C424.887 60.4043 425.033 61.5352 425.033 62.8711V75H419.936V62.8535C419.936 62.0098 419.818 61.3535 419.584 60.8848C419.35 60.416 419.004 60.0879 418.547 59.9004C418.102 59.7012 417.551 59.6016 416.895 59.6016C416.215 59.6016 415.623 59.7363 415.119 60.0059C414.627 60.2754 414.217 60.6504 413.889 61.1309C413.572 61.5996 413.332 62.1504 413.168 62.7832C413.004 63.416 412.922 64.0957 412.922 64.8223Z" fill="#888888"/>
<path d="M129.723 119.301V120.914C129.723 123.958 129.294 126.693 128.438 129.117C127.599 131.523 126.405 133.583 124.855 135.297C123.306 136.992 121.474 138.296 119.359 139.207C117.245 140.1 114.911 140.547 112.359 140.547C109.789 140.547 107.438 140.1 105.305 139.207C103.19 138.296 101.349 136.992 99.7812 135.297C98.2318 133.583 97.0286 131.523 96.1719 129.117C95.3333 126.693 94.9141 123.958 94.9141 120.914V119.301C94.9141 116.257 95.3333 113.522 96.1719 111.098C97.0286 108.673 98.2227 106.613 99.7539 104.918C101.303 103.204 103.135 101.901 105.25 101.008C107.383 100.096 109.734 99.6406 112.305 99.6406C114.857 99.6406 117.19 100.096 119.305 101.008C121.438 101.901 123.279 103.204 124.828 104.918C126.378 106.613 127.581 108.673 128.438 111.098C129.294 113.522 129.723 116.257 129.723 119.301ZM119.988 120.914V119.246C119.988 117.277 119.815 115.546 119.469 114.051C119.141 112.538 118.648 111.271 117.992 110.25C117.336 109.229 116.525 108.464 115.559 107.953C114.611 107.424 113.526 107.16 112.305 107.16C111.029 107.16 109.917 107.424 108.969 107.953C108.021 108.464 107.228 109.229 106.59 110.25C105.952 111.271 105.469 112.538 105.141 114.051C104.831 115.546 104.676 117.277 104.676 119.246V120.914C104.676 122.865 104.831 124.596 105.141 126.109C105.469 127.604 105.952 128.871 106.59 129.91C107.246 130.949 108.048 131.733 108.996 132.262C109.962 132.79 111.083 133.055 112.359 133.055C113.581 133.055 114.665 132.79 115.613 132.262C116.561 131.733 117.354 130.949 117.992 129.91C118.648 128.871 119.141 127.604 119.469 126.109C119.815 124.596 119.988 122.865 119.988 120.914ZM143.312 116.73V140H134.098V110.414H142.738L143.312 116.73ZM142.219 124.195L140.059 124.25C140.059 121.99 140.332 119.975 140.879 118.207C141.426 116.421 142.201 114.908 143.203 113.668C144.206 112.428 145.4 111.49 146.785 110.852C148.189 110.195 149.747 109.867 151.461 109.867C152.828 109.867 154.077 110.068 155.207 110.469C156.355 110.87 157.34 111.517 158.16 112.41C158.999 113.303 159.637 114.488 160.074 115.965C160.53 117.423 160.758 119.228 160.758 121.379V140H151.488V121.352C151.488 120.167 151.324 119.264 150.996 118.645C150.668 118.007 150.194 117.569 149.574 117.332C148.954 117.095 148.198 116.977 147.305 116.977C146.357 116.977 145.555 117.159 144.898 117.523C144.242 117.888 143.714 118.398 143.312 119.055C142.93 119.693 142.647 120.449 142.465 121.324C142.301 122.199 142.219 123.156 142.219 124.195ZM175.605 98V140H166.363V98H175.605ZM191.027 110.414V140H181.785V110.414H191.027ZM181.238 102.785C181.238 101.473 181.712 100.397 182.66 99.5586C183.608 98.7201 184.839 98.3008 186.352 98.3008C187.865 98.3008 189.095 98.7201 190.043 99.5586C190.991 100.397 191.465 101.473 191.465 102.785C191.465 104.098 190.991 105.173 190.043 106.012C189.095 106.85 187.865 107.27 186.352 107.27C184.839 107.27 183.608 106.85 182.66 106.012C181.712 105.173 181.238 104.098 181.238 102.785ZM205.766 116.73V140H196.551V110.414H205.191L205.766 116.73ZM204.672 124.195L202.512 124.25C202.512 121.99 202.785 119.975 203.332 118.207C203.879 116.421 204.654 114.908 205.656 113.668C206.659 112.428 207.853 111.49 209.238 110.852C210.642 110.195 212.201 109.867 213.914 109.867C215.281 109.867 216.53 110.068 217.66 110.469C218.809 110.87 219.793 111.517 220.613 112.41C221.452 113.303 222.09 114.488 222.527 115.965C222.983 117.423 223.211 119.228 223.211 121.379V140H213.941V121.352C213.941 120.167 213.777 119.264 213.449 118.645C213.121 118.007 212.647 117.569 212.027 117.332C211.408 117.095 210.651 116.977 209.758 116.977C208.81 116.977 208.008 117.159 207.352 117.523C206.695 117.888 206.167 118.398 205.766 119.055C205.383 119.693 205.1 120.449 204.918 121.324C204.754 122.199 204.672 123.156 204.672 124.195ZM242.652 140.547C240.246 140.547 238.095 140.173 236.199 139.426C234.303 138.66 232.699 137.612 231.387 136.281C230.092 134.951 229.099 133.419 228.406 131.688C227.732 129.956 227.395 128.124 227.395 126.191V125.152C227.395 122.983 227.695 120.978 228.297 119.137C228.898 117.277 229.792 115.655 230.977 114.27C232.161 112.884 233.647 111.809 235.434 111.043C237.22 110.259 239.298 109.867 241.668 109.867C243.764 109.867 245.642 110.204 247.301 110.879C248.96 111.553 250.363 112.52 251.512 113.777C252.678 115.035 253.562 116.557 254.164 118.344C254.784 120.13 255.094 122.135 255.094 124.359V128.105H230.922V122.336H246.098V121.625C246.116 120.641 245.943 119.802 245.578 119.109C245.232 118.417 244.721 117.888 244.047 117.523C243.372 117.159 242.552 116.977 241.586 116.977C240.583 116.977 239.754 117.195 239.098 117.633C238.46 118.07 237.958 118.672 237.594 119.438C237.247 120.185 237.001 121.051 236.855 122.035C236.71 123.02 236.637 124.059 236.637 125.152V126.191C236.637 127.285 236.783 128.279 237.074 129.172C237.384 130.065 237.822 130.831 238.387 131.469C238.97 132.089 239.663 132.572 240.465 132.918C241.285 133.264 242.215 133.438 243.254 133.438C244.512 133.438 245.751 133.201 246.973 132.727C248.194 132.253 249.242 131.469 250.117 130.375L254.301 135.352C253.699 136.208 252.842 137.038 251.73 137.84C250.637 138.642 249.324 139.298 247.793 139.809C246.262 140.301 244.548 140.547 242.652 140.547ZM273.223 100.188H288.891C291.953 100.188 294.615 100.643 296.875 101.555C299.135 102.466 300.876 103.815 302.098 105.602C303.337 107.388 303.957 109.594 303.957 112.219C303.957 114.497 303.602 116.402 302.891 117.934C302.18 119.465 301.186 120.732 299.91 121.734C298.652 122.719 297.185 123.53 295.508 124.168L292.363 125.945H279.211L279.156 118.535H288.891C290.112 118.535 291.124 118.316 291.926 117.879C292.728 117.441 293.329 116.822 293.73 116.02C294.15 115.199 294.359 114.224 294.359 113.094C294.359 111.945 294.15 110.961 293.73 110.141C293.311 109.32 292.691 108.691 291.871 108.254C291.069 107.816 290.076 107.598 288.891 107.598H282.82V140H273.223V100.188ZM295.016 140L286.211 122.391L296.383 122.336L305.297 139.59V140H295.016ZM323.645 140.547C321.238 140.547 319.087 140.173 317.191 139.426C315.296 138.66 313.691 137.612 312.379 136.281C311.085 134.951 310.091 133.419 309.398 131.688C308.724 129.956 308.387 128.124 308.387 126.191V125.152C308.387 122.983 308.688 120.978 309.289 119.137C309.891 117.277 310.784 115.655 311.969 114.27C313.154 112.884 314.639 111.809 316.426 111.043C318.212 110.259 320.29 109.867 322.66 109.867C324.757 109.867 326.634 110.204 328.293 110.879C329.952 111.553 331.355 112.52 332.504 113.777C333.671 115.035 334.555 116.557 335.156 118.344C335.776 120.13 336.086 122.135 336.086 124.359V128.105H311.914V122.336H327.09V121.625C327.108 120.641 326.935 119.802 326.57 119.109C326.224 118.417 325.714 117.888 325.039 117.523C324.365 117.159 323.544 116.977 322.578 116.977C321.576 116.977 320.746 117.195 320.09 117.633C319.452 118.07 318.951 118.672 318.586 119.438C318.24 120.185 317.993 121.051 317.848 122.035C317.702 123.02 317.629 124.059 317.629 125.152V126.191C317.629 127.285 317.775 128.279 318.066 129.172C318.376 130.065 318.814 130.831 319.379 131.469C319.962 132.089 320.655 132.572 321.457 132.918C322.277 133.264 323.207 133.438 324.246 133.438C325.504 133.438 326.743 133.201 327.965 132.727C329.186 132.253 330.234 131.469 331.109 130.375L335.293 135.352C334.691 136.208 333.835 137.038 332.723 137.84C331.629 138.642 330.316 139.298 328.785 139.809C327.254 140.301 325.54 140.547 323.645 140.547ZM352.328 133.438C353.185 133.438 353.914 133.283 354.516 132.973C355.135 132.645 355.6 132.189 355.91 131.605C356.238 131.004 356.393 130.284 356.375 129.445H365.043C365.061 131.669 364.514 133.62 363.402 135.297C362.309 136.956 360.814 138.25 358.918 139.18C357.04 140.091 354.917 140.547 352.547 140.547C350.232 140.547 348.208 140.173 346.477 139.426C344.745 138.66 343.296 137.603 342.129 136.254C340.98 134.887 340.115 133.292 339.531 131.469C338.966 129.646 338.684 127.668 338.684 125.535V124.906C338.684 122.773 338.966 120.796 339.531 118.973C340.115 117.132 340.98 115.536 342.129 114.188C343.296 112.82 344.736 111.763 346.449 111.016C348.181 110.25 350.195 109.867 352.492 109.867C354.953 109.867 357.122 110.332 359 111.262C360.896 112.191 362.382 113.54 363.457 115.309C364.533 117.077 365.061 119.219 365.043 121.734H356.375C356.393 120.841 356.257 120.039 355.965 119.328C355.673 118.617 355.217 118.052 354.598 117.633C353.996 117.195 353.221 116.977 352.273 116.977C351.326 116.977 350.56 117.186 349.977 117.605C349.393 118.025 348.947 118.608 348.637 119.355C348.345 120.085 348.145 120.923 348.035 121.871C347.944 122.819 347.898 123.831 347.898 124.906V125.535C347.898 126.629 347.944 127.659 348.035 128.625C348.145 129.573 348.354 130.411 348.664 131.141C348.974 131.852 349.421 132.417 350.004 132.836C350.587 133.237 351.362 133.438 352.328 133.438ZM378.715 110.414V140H369.473V110.414H378.715ZM368.926 102.785C368.926 101.473 369.4 100.397 370.348 99.5586C371.296 98.7201 372.526 98.3008 374.039 98.3008C375.552 98.3008 376.783 98.7201 377.73 99.5586C378.678 100.397 379.152 101.473 379.152 102.785C379.152 104.098 378.678 105.173 377.73 106.012C376.783 106.85 375.552 107.27 374.039 107.27C372.526 107.27 371.296 106.85 370.348 106.012C369.4 105.173 368.926 104.098 368.926 102.785ZM393.699 116.102V151.375H384.484V110.414H393.07L393.699 116.102ZM411.855 124.852V125.426C411.855 127.577 411.609 129.573 411.117 131.414C410.625 133.255 409.896 134.859 408.93 136.227C407.964 137.594 406.76 138.66 405.32 139.426C403.898 140.173 402.249 140.547 400.371 140.547C398.603 140.547 397.081 140.155 395.805 139.371C394.529 138.587 393.462 137.503 392.605 136.117C391.749 134.732 391.056 133.146 390.527 131.359C389.999 129.573 389.579 127.686 389.27 125.699V124.961C389.579 122.828 389.999 120.85 390.527 119.027C391.056 117.186 391.749 115.582 392.605 114.215C393.462 112.848 394.52 111.781 395.777 111.016C397.053 110.25 398.576 109.867 400.344 109.867C402.221 109.867 403.871 110.223 405.293 110.934C406.733 111.645 407.936 112.665 408.902 113.996C409.887 115.309 410.625 116.885 411.117 118.727C411.609 120.568 411.855 122.609 411.855 124.852ZM402.641 125.426V124.852C402.641 123.703 402.559 122.655 402.395 121.707C402.23 120.741 401.966 119.902 401.602 119.191C401.255 118.48 400.79 117.934 400.207 117.551C399.624 117.168 398.904 116.977 398.047 116.977C397.062 116.977 396.233 117.132 395.559 117.441C394.902 117.733 394.374 118.189 393.973 118.809C393.59 119.41 393.316 120.167 393.152 121.078C393.007 121.971 392.943 123.02 392.961 124.223V126.465C392.924 127.85 393.061 129.072 393.371 130.129C393.681 131.168 394.219 131.979 394.984 132.562C395.75 133.146 396.789 133.438 398.102 133.438C398.977 133.438 399.706 133.237 400.289 132.836C400.872 132.417 401.337 131.842 401.684 131.113C402.03 130.366 402.276 129.509 402.422 128.543C402.568 127.577 402.641 126.538 402.641 125.426ZM430.285 140.547C427.879 140.547 425.728 140.173 423.832 139.426C421.936 138.66 420.332 137.612 419.02 136.281C417.725 134.951 416.732 133.419 416.039 131.688C415.365 129.956 415.027 128.124 415.027 126.191V125.152C415.027 122.983 415.328 120.978 415.93 119.137C416.531 117.277 417.424 115.655 418.609 114.27C419.794 112.884 421.28 111.809 423.066 111.043C424.853 110.259 426.931 109.867 429.301 109.867C431.397 109.867 433.275 110.204 434.934 110.879C436.592 111.553 437.996 112.52 439.145 113.777C440.311 115.035 441.195 116.557 441.797 118.344C442.417 120.13 442.727 122.135 442.727 124.359V128.105H418.555V122.336H433.73V121.625C433.749 120.641 433.576 119.802 433.211 119.109C432.865 118.417 432.354 117.888 431.68 117.523C431.005 117.159 430.185 116.977 429.219 116.977C428.216 116.977 427.387 117.195 426.73 117.633C426.092 118.07 425.591 118.672 425.227 119.438C424.88 120.185 424.634 121.051 424.488 122.035C424.342 123.02 424.27 124.059 424.27 125.152V126.191C424.27 127.285 424.415 128.279 424.707 129.172C425.017 130.065 425.454 130.831 426.02 131.469C426.603 132.089 427.296 132.572 428.098 132.918C428.918 133.264 429.848 133.438 430.887 133.438C432.145 133.438 433.384 133.201 434.605 132.727C435.827 132.253 436.875 131.469 437.75 130.375L441.934 135.352C441.332 136.208 440.475 137.038 439.363 137.84C438.27 138.642 436.957 139.298 435.426 139.809C433.895 140.301 432.181 140.547 430.285 140.547ZM461.977 131.688C461.977 131.177 461.803 130.74 461.457 130.375C461.129 129.992 460.546 129.646 459.707 129.336C458.868 129.008 457.693 128.68 456.18 128.352C454.74 128.042 453.382 127.632 452.105 127.121C450.848 126.611 449.745 125.991 448.797 125.262C447.849 124.533 447.102 123.667 446.555 122.664C446.026 121.661 445.762 120.513 445.762 119.219C445.762 117.961 446.026 116.776 446.555 115.664C447.102 114.534 447.895 113.54 448.934 112.684C449.991 111.809 451.276 111.125 452.789 110.633C454.302 110.122 456.025 109.867 457.957 109.867C460.618 109.867 462.915 110.277 464.848 111.098C466.78 111.9 468.266 113.03 469.305 114.488C470.362 115.928 470.891 117.596 470.891 119.492H461.676C461.676 118.745 461.548 118.107 461.293 117.578C461.056 117.049 460.664 116.648 460.117 116.375C459.57 116.083 458.841 115.938 457.93 115.938C457.292 115.938 456.708 116.056 456.18 116.293C455.669 116.53 455.259 116.858 454.949 117.277C454.639 117.697 454.484 118.189 454.484 118.754C454.484 119.155 454.576 119.52 454.758 119.848C454.958 120.158 455.259 120.449 455.66 120.723C456.061 120.978 456.572 121.215 457.191 121.434C457.811 121.634 458.559 121.816 459.434 121.98C461.421 122.345 463.28 122.865 465.012 123.539C466.743 124.214 468.147 125.171 469.223 126.41C470.316 127.65 470.863 129.318 470.863 131.414C470.863 132.727 470.562 133.939 469.961 135.051C469.359 136.145 468.493 137.111 467.363 137.949C466.233 138.77 464.875 139.408 463.289 139.863C461.703 140.319 459.917 140.547 457.93 140.547C455.104 140.547 452.716 140.046 450.766 139.043C448.815 138.022 447.339 136.746 446.336 135.215C445.352 133.665 444.859 132.098 444.859 130.512H453.445C453.482 131.423 453.701 132.171 454.102 132.754C454.521 133.337 455.077 133.766 455.77 134.039C456.462 134.312 457.264 134.449 458.176 134.449C459.014 134.449 459.707 134.331 460.254 134.094C460.819 133.857 461.247 133.538 461.539 133.137C461.831 132.717 461.977 132.234 461.977 131.688Z" fill="black"/>
<rect x="93" y="178" width="1214" height="77" rx="10" fill="#D3D3D3"/>
<rect x="111" y="196" width="91" height="41" rx="3" fill="#424242"/>
<path d="M134.141 210.203H139.177C140.161 210.203 141.017 210.35 141.743 210.643C142.47 210.936 143.029 211.369 143.422 211.943C143.82 212.518 144.02 213.227 144.02 214.07C144.02 214.803 143.905 215.415 143.677 215.907C143.448 216.399 143.129 216.807 142.719 217.129C142.314 217.445 141.843 217.706 141.304 217.911L140.293 218.482H136.065L136.048 216.101H139.177C139.569 216.101 139.895 216.03 140.152 215.89C140.41 215.749 140.604 215.55 140.732 215.292C140.867 215.028 140.935 214.715 140.935 214.352C140.935 213.982 140.867 213.666 140.732 213.402C140.598 213.139 140.398 212.937 140.135 212.796C139.877 212.655 139.558 212.585 139.177 212.585H137.226V223H134.141V210.203ZM141.146 223L138.315 217.34L141.585 217.322L144.45 222.868V223H141.146ZM150.348 223.176C149.574 223.176 148.883 223.056 148.273 222.815C147.664 222.569 147.148 222.232 146.727 221.805C146.311 221.377 145.991 220.885 145.769 220.328C145.552 219.771 145.443 219.183 145.443 218.562V218.228C145.443 217.53 145.54 216.886 145.733 216.294C145.927 215.696 146.214 215.175 146.595 214.729C146.976 214.284 147.453 213.938 148.027 213.692C148.602 213.44 149.27 213.314 150.031 213.314C150.705 213.314 151.309 213.423 151.842 213.64C152.375 213.856 152.826 214.167 153.195 214.571C153.57 214.976 153.854 215.465 154.048 216.039C154.247 216.613 154.347 217.258 154.347 217.973V219.177H146.577V217.322H151.455V217.094C151.461 216.777 151.405 216.508 151.288 216.285C151.177 216.062 151.013 215.893 150.796 215.775C150.579 215.658 150.315 215.6 150.005 215.6C149.683 215.6 149.416 215.67 149.205 215.811C149 215.951 148.839 216.145 148.722 216.391C148.61 216.631 148.531 216.909 148.484 217.226C148.438 217.542 148.414 217.876 148.414 218.228V218.562C148.414 218.913 148.461 219.232 148.555 219.52C148.654 219.807 148.795 220.053 148.977 220.258C149.164 220.457 149.387 220.612 149.645 220.724C149.908 220.835 150.207 220.891 150.541 220.891C150.945 220.891 151.344 220.814 151.736 220.662C152.129 220.51 152.466 220.258 152.747 219.906L154.092 221.506C153.898 221.781 153.623 222.048 153.266 222.306C152.914 222.563 152.492 222.774 152 222.938C151.508 223.097 150.957 223.176 150.348 223.176ZM160.49 220.609V216.689C160.49 216.42 160.452 216.188 160.376 215.995C160.3 215.802 160.18 215.652 160.016 215.547C159.852 215.436 159.632 215.38 159.356 215.38C159.134 215.38 158.943 215.418 158.785 215.494C158.627 215.57 158.507 215.685 158.425 215.837C158.343 215.989 158.302 216.183 158.302 216.417H155.34C155.34 215.978 155.437 215.57 155.63 215.195C155.829 214.814 156.11 214.483 156.474 214.202C156.843 213.921 157.282 213.704 157.792 213.552C158.308 213.394 158.882 213.314 159.515 213.314C160.271 213.314 160.944 213.44 161.536 213.692C162.134 213.944 162.605 214.322 162.951 214.826C163.297 215.324 163.47 215.951 163.47 216.707V220.601C163.47 221.222 163.505 221.693 163.575 222.016C163.646 222.332 163.745 222.61 163.874 222.851V223H160.903C160.763 222.707 160.657 222.35 160.587 221.928C160.522 221.5 160.49 221.061 160.49 220.609ZM160.851 217.19L160.868 218.772H159.559C159.283 218.772 159.049 218.811 158.855 218.887C158.668 218.963 158.516 219.068 158.398 219.203C158.287 219.332 158.205 219.479 158.152 219.643C158.105 219.807 158.082 219.979 158.082 220.161C158.082 220.337 158.123 220.495 158.205 220.636C158.293 220.771 158.41 220.876 158.557 220.952C158.703 221.028 158.867 221.066 159.049 221.066C159.377 221.066 159.655 221.005 159.884 220.882C160.118 220.753 160.297 220.598 160.42 220.416C160.543 220.234 160.604 220.064 160.604 219.906L161.255 221.119C161.138 221.354 161.003 221.591 160.851 221.831C160.704 222.071 160.52 222.294 160.297 222.499C160.08 222.698 159.813 222.862 159.497 222.991C159.181 223.114 158.797 223.176 158.346 223.176C157.76 223.176 157.221 223.056 156.729 222.815C156.242 222.575 155.853 222.241 155.56 221.813C155.267 221.38 155.12 220.882 155.12 220.319C155.12 219.827 155.208 219.388 155.384 219.001C155.565 218.614 155.838 218.286 156.201 218.017C156.564 217.747 157.027 217.542 157.59 217.401C158.152 217.261 158.814 217.19 159.576 217.19H160.851ZM169.13 220.891C169.405 220.891 169.64 220.841 169.833 220.741C170.032 220.636 170.182 220.489 170.281 220.302C170.387 220.108 170.437 219.877 170.431 219.607H173.217C173.223 220.322 173.047 220.949 172.689 221.488C172.338 222.021 171.857 222.438 171.248 222.736C170.645 223.029 169.962 223.176 169.2 223.176C168.456 223.176 167.806 223.056 167.249 222.815C166.692 222.569 166.227 222.229 165.852 221.796C165.482 221.356 165.204 220.844 165.017 220.258C164.835 219.672 164.744 219.036 164.744 218.351V218.148C164.744 217.463 164.835 216.827 165.017 216.241C165.204 215.649 165.482 215.137 165.852 214.703C166.227 214.264 166.689 213.924 167.24 213.684C167.797 213.438 168.444 213.314 169.183 213.314C169.974 213.314 170.671 213.464 171.274 213.763C171.884 214.062 172.361 214.495 172.707 215.063C173.053 215.632 173.223 216.32 173.217 217.129H170.431C170.437 216.842 170.393 216.584 170.299 216.355C170.205 216.127 170.059 215.945 169.859 215.811C169.666 215.67 169.417 215.6 169.112 215.6C168.808 215.6 168.562 215.667 168.374 215.802C168.187 215.937 168.043 216.124 167.943 216.364C167.85 216.599 167.785 216.868 167.75 217.173C167.721 217.478 167.706 217.803 167.706 218.148V218.351C167.706 218.702 167.721 219.033 167.75 219.344C167.785 219.648 167.853 219.918 167.952 220.152C168.052 220.381 168.195 220.562 168.383 220.697C168.57 220.826 168.819 220.891 169.13 220.891ZM179.492 213.49V215.547H173.762V213.49H179.492ZM174.966 211.126H177.928V219.897C177.928 220.149 177.957 220.346 178.016 220.486C178.074 220.621 178.174 220.718 178.314 220.776C178.461 220.829 178.654 220.855 178.895 220.855C179.064 220.855 179.205 220.853 179.316 220.847C179.428 220.835 179.533 220.82 179.633 220.803V222.921C179.381 223.003 179.117 223.064 178.842 223.105C178.566 223.152 178.273 223.176 177.963 223.176C177.33 223.176 176.788 223.076 176.337 222.877C175.892 222.678 175.552 222.364 175.317 221.937C175.083 221.509 174.966 220.952 174.966 220.267V211.126Z" fill="white"/>
<rect x="111" y="196" width="91" height="41" rx="3" stroke="#424242" stroke-width="4"/>
<rect x="222" y="196" width="104" height="41" rx="3" fill="#424242"/>
<path d="M253.812 220.627V223H247.343V220.627H253.812ZM248.441 210.203V223H245.356V210.203H248.441ZM259.911 220.609V216.689C259.911 216.42 259.873 216.188 259.797 215.995C259.721 215.802 259.601 215.652 259.437 215.547C259.272 215.436 259.053 215.38 258.777 215.38C258.555 215.38 258.364 215.418 258.206 215.494C258.048 215.57 257.928 215.685 257.846 215.837C257.764 215.989 257.723 216.183 257.723 216.417H254.761C254.761 215.978 254.857 215.57 255.051 215.195C255.25 214.814 255.531 214.483 255.895 214.202C256.264 213.921 256.703 213.704 257.213 213.552C257.729 213.394 258.303 213.314 258.936 213.314C259.691 213.314 260.365 213.44 260.957 213.692C261.555 213.944 262.026 214.322 262.372 214.826C262.718 215.324 262.891 215.951 262.891 216.707V220.601C262.891 221.222 262.926 221.693 262.996 222.016C263.066 222.332 263.166 222.61 263.295 222.851V223H260.324C260.184 222.707 260.078 222.35 260.008 221.928C259.943 221.5 259.911 221.061 259.911 220.609ZM260.271 217.19L260.289 218.772H258.979C258.704 218.772 258.47 218.811 258.276 218.887C258.089 218.963 257.937 219.068 257.819 219.203C257.708 219.332 257.626 219.479 257.573 219.643C257.526 219.807 257.503 219.979 257.503 220.161C257.503 220.337 257.544 220.495 257.626 220.636C257.714 220.771 257.831 220.876 257.978 220.952C258.124 221.028 258.288 221.066 258.47 221.066C258.798 221.066 259.076 221.005 259.305 220.882C259.539 220.753 259.718 220.598 259.841 220.416C259.964 220.234 260.025 220.064 260.025 219.906L260.676 221.119C260.559 221.354 260.424 221.591 260.271 221.831C260.125 222.071 259.94 222.294 259.718 222.499C259.501 222.698 259.234 222.862 258.918 222.991C258.602 223.114 258.218 223.176 257.767 223.176C257.181 223.176 256.642 223.056 256.149 222.815C255.663 222.575 255.273 222.241 254.98 221.813C254.688 221.38 254.541 220.882 254.541 220.319C254.541 219.827 254.629 219.388 254.805 219.001C254.986 218.614 255.259 218.286 255.622 218.017C255.985 217.747 256.448 217.542 257.011 217.401C257.573 217.261 258.235 217.19 258.997 217.19H260.271ZM267.522 215.846V223H264.561V213.49H267.329L267.522 215.846ZM270.335 213.42L270.282 216.171C270.165 216.159 270.007 216.145 269.808 216.127C269.608 216.109 269.441 216.101 269.307 216.101C268.961 216.101 268.662 216.142 268.41 216.224C268.164 216.3 267.959 216.417 267.795 216.575C267.637 216.728 267.52 216.921 267.443 217.155C267.373 217.39 267.341 217.662 267.347 217.973L266.811 217.621C266.811 216.982 266.872 216.402 266.995 215.881C267.124 215.354 267.306 214.899 267.54 214.519C267.774 214.132 268.059 213.836 268.393 213.631C268.727 213.42 269.102 213.314 269.518 213.314C269.664 213.314 269.808 213.323 269.948 213.341C270.095 213.358 270.224 213.385 270.335 213.42ZM276.03 220.609V216.689C276.03 216.42 275.992 216.188 275.916 215.995C275.84 215.802 275.72 215.652 275.556 215.547C275.392 215.436 275.172 215.38 274.896 215.38C274.674 215.38 274.483 215.418 274.325 215.494C274.167 215.57 274.047 215.685 273.965 215.837C273.883 215.989 273.842 216.183 273.842 216.417H270.88C270.88 215.978 270.977 215.57 271.17 215.195C271.369 214.814 271.65 214.483 272.014 214.202C272.383 213.921 272.822 213.704 273.332 213.552C273.848 213.394 274.422 213.314 275.055 213.314C275.811 213.314 276.484 213.44 277.076 213.692C277.674 213.944 278.146 214.322 278.491 214.826C278.837 215.324 279.01 215.951 279.01 216.707V220.601C279.01 221.222 279.045 221.693 279.115 222.016C279.186 222.332 279.285 222.61 279.414 222.851V223H276.443C276.303 222.707 276.197 222.35 276.127 221.928C276.062 221.5 276.03 221.061 276.03 220.609ZM276.391 217.19L276.408 218.772H275.099C274.823 218.772 274.589 218.811 274.396 218.887C274.208 218.963 274.056 219.068 273.938 219.203C273.827 219.332 273.745 219.479 273.692 219.643C273.646 219.807 273.622 219.979 273.622 220.161C273.622 220.337 273.663 220.495 273.745 220.636C273.833 220.771 273.95 220.876 274.097 220.952C274.243 221.028 274.407 221.066 274.589 221.066C274.917 221.066 275.195 221.005 275.424 220.882C275.658 220.753 275.837 220.598 275.96 220.416C276.083 220.234 276.145 220.064 276.145 219.906L276.795 221.119C276.678 221.354 276.543 221.591 276.391 221.831C276.244 222.071 276.06 222.294 275.837 222.499C275.62 222.698 275.354 222.862 275.037 222.991C274.721 223.114 274.337 223.176 273.886 223.176C273.3 223.176 272.761 223.056 272.269 222.815C271.782 222.575 271.393 222.241 271.1 221.813C270.807 221.38 270.66 220.882 270.66 220.319C270.66 219.827 270.748 219.388 270.924 219.001C271.105 218.614 271.378 218.286 271.741 218.017C272.104 217.747 272.567 217.542 273.13 217.401C273.692 217.261 274.354 217.19 275.116 217.19H276.391ZM283.94 220.97L285.812 213.49H288.933L285.821 223H283.976L283.94 220.97ZM282.833 213.49L284.679 220.97L284.661 223H282.807L279.704 213.49H282.833ZM294.294 223.176C293.521 223.176 292.829 223.056 292.22 222.815C291.61 222.569 291.095 222.232 290.673 221.805C290.257 221.377 289.938 220.885 289.715 220.328C289.498 219.771 289.39 219.183 289.39 218.562V218.228C289.39 217.53 289.486 216.886 289.68 216.294C289.873 215.696 290.16 215.175 290.541 214.729C290.922 214.284 291.399 213.938 291.974 213.692C292.548 213.44 293.216 213.314 293.978 213.314C294.651 213.314 295.255 213.423 295.788 213.64C296.321 213.856 296.772 214.167 297.142 214.571C297.517 214.976 297.801 215.465 297.994 216.039C298.193 216.613 298.293 217.258 298.293 217.973V219.177H290.523V217.322H295.401V217.094C295.407 216.777 295.352 216.508 295.234 216.285C295.123 216.062 294.959 215.893 294.742 215.775C294.525 215.658 294.262 215.6 293.951 215.6C293.629 215.6 293.362 215.67 293.151 215.811C292.946 215.951 292.785 216.145 292.668 216.391C292.557 216.631 292.478 216.909 292.431 217.226C292.384 217.542 292.36 217.876 292.36 218.228V218.562C292.36 218.913 292.407 219.232 292.501 219.52C292.601 219.807 292.741 220.053 292.923 220.258C293.11 220.457 293.333 220.612 293.591 220.724C293.854 220.835 294.153 220.891 294.487 220.891C294.892 220.891 295.29 220.814 295.683 220.662C296.075 220.51 296.412 220.258 296.693 219.906L298.038 221.506C297.845 221.781 297.569 222.048 297.212 222.306C296.86 222.563 296.438 222.774 295.946 222.938C295.454 223.097 294.903 223.176 294.294 223.176ZM302.626 209.5V223H299.655V209.5H302.626Z" fill="white"/>
<rect x="222" y="196" width="104" height="41" rx="3" stroke="#424242" stroke-width="4"/>
</svg>
