<svg width="1363" height="163" viewBox="0 0 1363 163" fill="none" xmlns="http://www.w3.org/2000/svg">
<path d="M0 15C0 6.71573 6.71573 0 15 0H37V163H15C6.71573 163 0 156.284 0 148V15Z" fill="#F6815B"/>
<rect width="1097" height="163" transform="translate(37)" fill="#F0F0F0"/>
<path d="M101.906 53.9219L94.3945 51.2383V48.0859L104.602 52.375V54.6367L101.906 53.9219ZM94.3945 56.1719L101.918 53.4297L104.602 52.7852V55.0352L94.3945 59.3242V56.1719ZM126.914 52.0703V52.8789C126.914 54.1758 126.738 55.3398 126.387 56.3711C126.035 57.4023 125.539 58.2812 124.898 59.0078C124.258 59.7266 123.492 60.2773 122.602 60.6602C121.719 61.043 120.738 61.2344 119.66 61.2344C118.59 61.2344 117.609 61.043 116.719 60.6602C115.836 60.2773 115.07 59.7266 114.422 59.0078C113.773 58.2812 113.27 57.4023 112.91 56.3711C112.559 55.3398 112.383 54.1758 112.383 52.8789V52.0703C112.383 50.7656 112.559 49.6016 112.91 48.5781C113.262 47.5469 113.758 46.668 114.398 45.9414C115.047 45.2148 115.812 44.6602 116.695 44.2773C117.586 43.8945 118.566 43.7031 119.637 43.7031C120.715 43.7031 121.695 43.8945 122.578 44.2773C123.469 44.6602 124.234 45.2148 124.875 45.9414C125.523 46.668 126.023 47.5469 126.375 48.5781C126.734 49.6016 126.914 50.7656 126.914 52.0703ZM123.363 52.8789V52.0469C123.363 51.1406 123.281 50.3438 123.117 49.6562C122.953 48.9688 122.711 48.3906 122.391 47.9219C122.07 47.4531 121.68 47.1016 121.219 46.8672C120.758 46.625 120.23 46.5039 119.637 46.5039C119.043 46.5039 118.516 46.625 118.055 46.8672C117.602 47.1016 117.215 47.4531 116.895 47.9219C116.582 48.3906 116.344 48.9688 116.18 49.6562C116.016 50.3438 115.934 51.1406 115.934 52.0469V52.8789C115.934 53.7773 116.016 54.5742 116.18 55.2695C116.344 55.957 116.586 56.5391 116.906 57.0156C117.227 57.4844 117.617 57.8398 118.078 58.082C118.539 58.3242 119.066 58.4453 119.66 58.4453C120.254 58.4453 120.781 58.3242 121.242 58.082C121.703 57.8398 122.09 57.4844 122.402 57.0156C122.715 56.5391 122.953 55.957 123.117 55.2695C123.281 54.5742 123.363 53.7773 123.363 52.8789ZM132.539 51.0273V61H129.164V48.3203H132.328L132.539 51.0273ZM132.047 54.2148H131.133C131.133 53.2773 131.254 52.4336 131.496 51.6836C131.738 50.9258 132.078 50.2812 132.516 49.75C132.953 49.2109 133.473 48.8008 134.074 48.5195C134.684 48.2305 135.363 48.0859 136.113 48.0859C136.707 48.0859 137.25 48.1719 137.742 48.3438C138.234 48.5156 138.656 48.7891 139.008 49.1641C139.367 49.5391 139.641 50.0352 139.828 50.6523C140.023 51.2695 140.121 52.0234 140.121 52.9141V61H136.723V52.9023C136.723 52.3398 136.645 51.9023 136.488 51.5898C136.332 51.2773 136.102 51.0586 135.797 50.9336C135.5 50.8008 135.133 50.7344 134.695 50.7344C134.242 50.7344 133.848 50.8242 133.512 51.0039C133.184 51.1836 132.91 51.4336 132.691 51.7539C132.48 52.0664 132.32 52.4336 132.211 52.8555C132.102 53.2773 132.047 53.7305 132.047 54.2148ZM146.25 43V61H142.863V43H146.25ZM152.602 48.3203V61H149.215V48.3203H152.602ZM149.004 45.0156C149.004 44.5234 149.176 44.1172 149.52 43.7969C149.863 43.4766 150.324 43.3164 150.902 43.3164C151.473 43.3164 151.93 43.4766 152.273 43.7969C152.625 44.1172 152.801 44.5234 152.801 45.0156C152.801 45.5078 152.625 45.9141 152.273 46.2344C151.93 46.5547 151.473 46.7148 150.902 46.7148C150.324 46.7148 149.863 46.5547 149.52 46.2344C149.176 45.9141 149.004 45.5078 149.004 45.0156ZM158.695 51.0273V61H155.32V48.3203H158.484L158.695 51.0273ZM158.203 54.2148H157.289C157.289 53.2773 157.41 52.4336 157.652 51.6836C157.895 50.9258 158.234 50.2812 158.672 49.75C159.109 49.2109 159.629 48.8008 160.23 48.5195C160.84 48.2305 161.52 48.0859 162.27 48.0859C162.863 48.0859 163.406 48.1719 163.898 48.3438C164.391 48.5156 164.812 48.7891 165.164 49.1641C165.523 49.5391 165.797 50.0352 165.984 50.6523C166.18 51.2695 166.277 52.0234 166.277 52.9141V61H162.879V52.9023C162.879 52.3398 162.801 51.9023 162.645 51.5898C162.488 51.2773 162.258 51.0586 161.953 50.9336C161.656 50.8008 161.289 50.7344 160.852 50.7344C160.398 50.7344 160.004 50.8242 159.668 51.0039C159.34 51.1836 159.066 51.4336 158.848 51.7539C158.637 52.0664 158.477 52.4336 158.367 52.8555C158.258 53.2773 158.203 53.7305 158.203 54.2148ZM174.68 61.2344C173.695 61.2344 172.812 61.0781 172.031 60.7656C171.25 60.4453 170.586 60.0039 170.039 59.4414C169.5 58.8789 169.086 58.2266 168.797 57.4844C168.508 56.7344 168.363 55.9375 168.363 55.0938V54.625C168.363 53.6641 168.5 52.7852 168.773 51.9883C169.047 51.1914 169.438 50.5 169.945 49.9141C170.461 49.3281 171.086 48.8789 171.82 48.5664C172.555 48.2461 173.383 48.0859 174.305 48.0859C175.203 48.0859 176 48.2344 176.695 48.5312C177.391 48.8281 177.973 49.25 178.441 49.7969C178.918 50.3438 179.277 51 179.52 51.7656C179.762 52.5234 179.883 53.3672 179.883 54.2969V55.7031H169.805V53.4531H176.566V53.1953C176.566 52.7266 176.48 52.3086 176.309 51.9414C176.145 51.5664 175.895 51.2695 175.559 51.0508C175.223 50.832 174.793 50.7227 174.27 50.7227C173.824 50.7227 173.441 50.8203 173.121 51.0156C172.801 51.2109 172.539 51.4844 172.336 51.8359C172.141 52.1875 171.992 52.6016 171.891 53.0781C171.797 53.5469 171.75 54.0625 171.75 54.625V55.0938C171.75 55.6016 171.82 56.0703 171.961 56.5C172.109 56.9297 172.316 57.3008 172.582 57.6133C172.855 57.9258 173.184 58.168 173.566 58.3398C173.957 58.5117 174.398 58.5977 174.891 58.5977C175.5 58.5977 176.066 58.4805 176.59 58.2461C177.121 58.0039 177.578 57.6406 177.961 57.1562L179.602 58.9375C179.336 59.3203 178.973 59.6875 178.512 60.0391C178.059 60.3906 177.512 60.6797 176.871 60.9062C176.23 61.125 175.5 61.2344 174.68 61.2344ZM187.992 43.9375H194.355C195.66 43.9375 196.781 44.1328 197.719 44.5234C198.664 44.9141 199.391 45.4922 199.898 46.2578C200.406 47.0234 200.66 47.9648 200.66 49.082C200.66 49.9961 200.504 50.7812 200.191 51.4375C199.887 52.0859 199.453 52.6289 198.891 53.0664C198.336 53.4961 197.684 53.8398 196.934 54.0977L195.82 54.6836H190.289L190.266 51.9414H194.379C194.996 51.9414 195.508 51.832 195.914 51.6133C196.32 51.3945 196.625 51.0898 196.828 50.6992C197.039 50.3086 197.145 49.8555 197.145 49.3398C197.145 48.793 197.043 48.3203 196.84 47.9219C196.637 47.5234 196.328 47.2188 195.914 47.0078C195.5 46.7969 194.98 46.6914 194.355 46.6914H191.508V61H187.992V43.9375ZM197.531 61L193.641 53.3945L197.355 53.3711L201.293 60.8359V61H197.531ZM208.992 61.2344C208.008 61.2344 207.125 61.0781 206.344 60.7656C205.562 60.4453 204.898 60.0039 204.352 59.4414C203.812 58.8789 203.398 58.2266 203.109 57.4844C202.82 56.7344 202.676 55.9375 202.676 55.0938V54.625C202.676 53.6641 202.812 52.7852 203.086 51.9883C203.359 51.1914 203.75 50.5 204.258 49.9141C204.773 49.3281 205.398 48.8789 206.133 48.5664C206.867 48.2461 207.695 48.0859 208.617 48.0859C209.516 48.0859 210.312 48.2344 211.008 48.5312C211.703 48.8281 212.285 49.25 212.754 49.7969C213.23 50.3438 213.59 51 213.832 51.7656C214.074 52.5234 214.195 53.3672 214.195 54.2969V55.7031H204.117V53.4531H210.879V53.1953C210.879 52.7266 210.793 52.3086 210.621 51.9414C210.457 51.5664 210.207 51.2695 209.871 51.0508C209.535 50.832 209.105 50.7227 208.582 50.7227C208.137 50.7227 207.754 50.8203 207.434 51.0156C207.113 51.2109 206.852 51.4844 206.648 51.8359C206.453 52.1875 206.305 52.6016 206.203 53.0781C206.109 53.5469 206.062 54.0625 206.062 54.625V55.0938C206.062 55.6016 206.133 56.0703 206.273 56.5C206.422 56.9297 206.629 57.3008 206.895 57.6133C207.168 57.9258 207.496 58.168 207.879 58.3398C208.27 58.5117 208.711 58.5977 209.203 58.5977C209.812 58.5977 210.379 58.4805 210.902 58.2461C211.434 58.0039 211.891 57.6406 212.273 57.1562L213.914 58.9375C213.648 59.3203 213.285 59.6875 212.824 60.0391C212.371 60.3906 211.824 60.6797 211.184 60.9062C210.543 61.125 209.812 61.2344 208.992 61.2344ZM221.355 58.5977C221.77 58.5977 222.137 58.5195 222.457 58.3633C222.777 58.1992 223.027 57.9727 223.207 57.6836C223.395 57.3867 223.492 57.0391 223.5 56.6406H226.676C226.668 57.5312 226.43 58.3242 225.961 59.0195C225.492 59.707 224.863 60.25 224.074 60.6484C223.285 61.0391 222.402 61.2344 221.426 61.2344C220.441 61.2344 219.582 61.0703 218.848 60.7422C218.121 60.4141 217.516 59.9609 217.031 59.3828C216.547 58.7969 216.184 58.1172 215.941 57.3438C215.699 56.5625 215.578 55.7266 215.578 54.8359V54.4961C215.578 53.5977 215.699 52.7617 215.941 51.9883C216.184 51.207 216.547 50.5273 217.031 49.9492C217.516 49.3633 218.121 48.9062 218.848 48.5781C219.574 48.25 220.426 48.0859 221.402 48.0859C222.441 48.0859 223.352 48.2852 224.133 48.6836C224.922 49.082 225.539 49.6523 225.984 50.3945C226.438 51.1289 226.668 52 226.676 53.0078H223.5C223.492 52.5859 223.402 52.2031 223.23 51.8594C223.066 51.5156 222.824 51.2422 222.504 51.0391C222.191 50.8281 221.805 50.7227 221.344 50.7227C220.852 50.7227 220.449 50.8281 220.137 51.0391C219.824 51.2422 219.582 51.5234 219.41 51.8828C219.238 52.2344 219.117 52.6367 219.047 53.0898C218.984 53.5352 218.953 54.0039 218.953 54.4961V54.8359C218.953 55.3281 218.984 55.8008 219.047 56.2539C219.109 56.707 219.227 57.1094 219.398 57.4609C219.578 57.8125 219.824 58.0898 220.137 58.293C220.449 58.4961 220.855 58.5977 221.355 58.5977ZM232.195 48.3203V61H228.809V48.3203H232.195ZM228.598 45.0156C228.598 44.5234 228.77 44.1172 229.113 43.7969C229.457 43.4766 229.918 43.3164 230.496 43.3164C231.066 43.3164 231.523 43.4766 231.867 43.7969C232.219 44.1172 232.395 44.5234 232.395 45.0156C232.395 45.5078 232.219 45.9141 231.867 46.2344C231.523 46.5547 231.066 46.7148 230.496 46.7148C229.918 46.7148 229.457 46.5547 229.113 46.2344C228.77 45.9141 228.598 45.5078 228.598 45.0156ZM238.359 50.7578V65.875H234.984V48.3203H238.113L238.359 50.7578ZM246.387 54.5195V54.7656C246.387 55.6875 246.277 56.543 246.059 57.332C245.848 58.1211 245.535 58.8086 245.121 59.3945C244.707 59.9727 244.191 60.4258 243.574 60.7539C242.965 61.0742 242.262 61.2344 241.465 61.2344C240.691 61.2344 240.02 61.0781 239.449 60.7656C238.879 60.4531 238.398 60.0156 238.008 59.4531C237.625 58.8828 237.316 58.2227 237.082 57.4727C236.848 56.7227 236.668 55.918 236.543 55.0586V54.4141C236.668 53.4922 236.848 52.6484 237.082 51.8828C237.316 51.1094 237.625 50.4414 238.008 49.8789C238.398 49.3086 238.875 48.8672 239.438 48.5547C240.008 48.2422 240.676 48.0859 241.441 48.0859C242.246 48.0859 242.953 48.2383 243.562 48.543C244.18 48.8477 244.695 49.2852 245.109 49.8555C245.531 50.4258 245.848 51.1055 246.059 51.8945C246.277 52.6836 246.387 53.5586 246.387 54.5195ZM243 54.7656V54.5195C243 53.9805 242.953 53.4844 242.859 53.0312C242.773 52.5703 242.633 52.168 242.438 51.8242C242.25 51.4805 242 51.2148 241.688 51.0273C241.383 50.832 241.012 50.7344 240.574 50.7344C240.113 50.7344 239.719 50.8086 239.391 50.957C239.07 51.1055 238.809 51.3203 238.605 51.6016C238.402 51.8828 238.25 52.2188 238.148 52.6094C238.047 53 237.984 53.4414 237.961 53.9336V55.5625C238 56.1406 238.109 56.6602 238.289 57.1211C238.469 57.5742 238.746 57.9336 239.121 58.1992C239.496 58.4648 239.988 58.5977 240.598 58.5977C241.043 58.5977 241.418 58.5 241.723 58.3047C242.027 58.1016 242.273 57.8242 242.461 57.4727C242.656 57.1211 242.793 56.7148 242.871 56.2539C242.957 55.793 243 55.2969 243 54.7656ZM254.32 61.2344C253.336 61.2344 252.453 61.0781 251.672 60.7656C250.891 60.4453 250.227 60.0039 249.68 59.4414C249.141 58.8789 248.727 58.2266 248.438 57.4844C248.148 56.7344 248.004 55.9375 248.004 55.0938V54.625C248.004 53.6641 248.141 52.7852 248.414 51.9883C248.688 51.1914 249.078 50.5 249.586 49.9141C250.102 49.3281 250.727 48.8789 251.461 48.5664C252.195 48.2461 253.023 48.0859 253.945 48.0859C254.844 48.0859 255.641 48.2344 256.336 48.5312C257.031 48.8281 257.613 49.25 258.082 49.7969C258.559 50.3438 258.918 51 259.16 51.7656C259.402 52.5234 259.523 53.3672 259.523 54.2969V55.7031H249.445V53.4531H256.207V53.1953C256.207 52.7266 256.121 52.3086 255.949 51.9414C255.785 51.5664 255.535 51.2695 255.199 51.0508C254.863 50.832 254.434 50.7227 253.91 50.7227C253.465 50.7227 253.082 50.8203 252.762 51.0156C252.441 51.2109 252.18 51.4844 251.977 51.8359C251.781 52.1875 251.633 52.6016 251.531 53.0781C251.438 53.5469 251.391 54.0625 251.391 54.625V55.0938C251.391 55.6016 251.461 56.0703 251.602 56.5C251.75 56.9297 251.957 57.3008 252.223 57.6133C252.496 57.9258 252.824 58.168 253.207 58.3398C253.598 58.5117 254.039 58.5977 254.531 58.5977C255.141 58.5977 255.707 58.4805 256.23 58.2461C256.762 58.0039 257.219 57.6406 257.602 57.1562L259.242 58.9375C258.977 59.3203 258.613 59.6875 258.152 60.0391C257.699 60.3906 257.152 60.6797 256.512 60.9062C255.871 61.125 255.141 61.2344 254.32 61.2344ZM268.301 57.4961C268.301 57.2539 268.23 57.0352 268.09 56.8398C267.949 56.6445 267.688 56.4648 267.305 56.3008C266.93 56.1289 266.387 55.9727 265.676 55.832C265.035 55.6914 264.438 55.5156 263.883 55.3047C263.336 55.0859 262.859 54.8242 262.453 54.5195C262.055 54.2148 261.742 53.8555 261.516 53.4414C261.289 53.0195 261.176 52.5391 261.176 52C261.176 51.4688 261.289 50.9688 261.516 50.5C261.75 50.0312 262.082 49.6172 262.512 49.2578C262.949 48.8906 263.48 48.6055 264.105 48.4023C264.738 48.1914 265.449 48.0859 266.238 48.0859C267.34 48.0859 268.285 48.2617 269.074 48.6133C269.871 48.9648 270.48 49.4492 270.902 50.0664C271.332 50.6758 271.547 51.3711 271.547 52.1523H268.172C268.172 51.8242 268.102 51.5312 267.961 51.2734C267.828 51.0078 267.617 50.8008 267.328 50.6523C267.047 50.4961 266.68 50.418 266.227 50.418C265.852 50.418 265.527 50.4844 265.254 50.6172C264.98 50.7422 264.77 50.9141 264.621 51.1328C264.48 51.3438 264.41 51.5781 264.41 51.8359C264.41 52.0312 264.449 52.207 264.527 52.3633C264.613 52.5117 264.75 52.6484 264.938 52.7734C265.125 52.8984 265.367 53.0156 265.664 53.125C265.969 53.2266 266.344 53.3203 266.789 53.4062C267.703 53.5938 268.52 53.8398 269.238 54.1445C269.957 54.4414 270.527 54.8477 270.949 55.3633C271.371 55.8711 271.582 56.5391 271.582 57.3672C271.582 57.9297 271.457 58.4453 271.207 58.9141C270.957 59.3828 270.598 59.793 270.129 60.1445C269.66 60.4883 269.098 60.7578 268.441 60.9531C267.793 61.1406 267.062 61.2344 266.25 61.2344C265.07 61.2344 264.07 61.0234 263.25 60.6016C262.438 60.1797 261.82 59.6445 261.398 58.9961C260.984 58.3398 260.777 57.668 260.777 56.9805H263.977C263.992 57.4414 264.109 57.8125 264.328 58.0938C264.555 58.375 264.84 58.5781 265.184 58.7031C265.535 58.8281 265.914 58.8906 266.32 58.8906C266.758 58.8906 267.121 58.832 267.41 58.7148C267.699 58.5898 267.918 58.4258 268.066 58.2227C268.223 58.0117 268.301 57.7695 268.301 57.4961Z" fill="#888888"/>
<path d="M109.219 107.422H100.734V101.07H109.219C110.375 101.07 111.312 100.875 112.031 100.484C112.75 100.094 113.273 99.5547 113.602 98.8672C113.945 98.1641 114.117 97.375 114.117 96.5C114.117 95.5625 113.945 94.6953 113.602 93.8984C113.273 93.1016 112.75 92.4609 112.031 91.9766C111.312 91.4766 110.375 91.2266 109.219 91.2266H103.828V119H95.6016V84.875H109.219C111.953 84.875 114.305 85.375 116.273 86.375C118.258 87.375 119.781 88.75 120.844 90.5C121.906 92.2344 122.438 94.2188 122.438 96.4531C122.438 98.6562 121.906 100.578 120.844 102.219C119.781 103.859 118.258 105.141 116.273 106.062C114.305 106.969 111.953 107.422 109.219 107.422ZM134.461 99.9219V119H126.562V93.6406H133.945L134.461 99.9219ZM141.961 93.4531L141.82 100.789C141.508 100.758 141.086 100.719 140.555 100.672C140.023 100.625 139.578 100.602 139.219 100.602C138.297 100.602 137.5 100.711 136.828 100.93C136.172 101.133 135.625 101.445 135.188 101.867C134.766 102.273 134.453 102.789 134.25 103.414C134.062 104.039 133.977 104.766 133.992 105.594L132.562 104.656C132.562 102.953 132.727 101.406 133.055 100.016C133.398 98.6094 133.883 97.3984 134.508 96.3828C135.133 95.3516 135.891 94.5625 136.781 94.0156C137.672 93.4531 138.672 93.1719 139.781 93.1719C140.172 93.1719 140.555 93.1953 140.93 93.2422C141.32 93.2891 141.664 93.3594 141.961 93.4531ZM142.852 106.578V106.086C142.852 104.227 143.117 102.516 143.648 100.953C144.18 99.375 144.961 98.0078 145.992 96.8516C147.023 95.6953 148.297 94.7969 149.812 94.1562C151.328 93.5 153.078 93.1719 155.062 93.1719C157.062 93.1719 158.82 93.5 160.336 94.1562C161.867 94.7969 163.148 95.6953 164.18 96.8516C165.211 98.0078 165.992 99.375 166.523 100.953C167.055 102.516 167.32 104.227 167.32 106.086V106.578C167.32 108.422 167.055 110.133 166.523 111.711C165.992 113.273 165.211 114.641 164.18 115.812C163.148 116.969 161.875 117.867 160.359 118.508C158.844 119.148 157.094 119.469 155.109 119.469C153.125 119.469 151.367 119.148 149.836 118.508C148.305 117.867 147.023 116.969 145.992 115.812C144.961 114.641 144.18 113.273 143.648 111.711C143.117 110.133 142.852 108.422 142.852 106.578ZM150.75 106.086V106.578C150.75 107.531 150.82 108.422 150.961 109.25C151.102 110.078 151.336 110.805 151.664 111.43C151.992 112.039 152.438 112.516 153 112.859C153.562 113.203 154.266 113.375 155.109 113.375C155.938 113.375 156.625 113.203 157.172 112.859C157.734 112.516 158.18 112.039 158.508 111.43C158.836 110.805 159.07 110.078 159.211 109.25C159.352 108.422 159.422 107.531 159.422 106.578V106.086C159.422 105.164 159.352 104.297 159.211 103.484C159.07 102.656 158.836 101.93 158.508 101.305C158.18 100.664 157.734 100.164 157.172 99.8047C156.609 99.4453 155.906 99.2656 155.062 99.2656C154.234 99.2656 153.539 99.4453 152.977 99.8047C152.43 100.164 151.992 100.664 151.664 101.305C151.336 101.93 151.102 102.656 150.961 103.484C150.82 104.297 150.75 105.164 150.75 106.086ZM171.422 93.6406H179.344V119.82C179.344 121.852 178.953 123.562 178.172 124.953C177.391 126.359 176.273 127.422 174.82 128.141C173.367 128.875 171.633 129.242 169.617 129.242C168.945 129.242 168.328 129.211 167.766 129.148C167.188 129.102 166.555 129 165.867 128.844V122.867C166.273 122.93 166.648 122.977 166.992 123.008C167.336 123.055 167.711 123.078 168.117 123.078C168.836 123.078 169.438 122.961 169.922 122.727C170.406 122.492 170.773 122.133 171.023 121.648C171.289 121.164 171.422 120.555 171.422 119.82V93.6406ZM170.836 87.1016C170.836 85.9766 171.242 85.0547 172.055 84.3359C172.867 83.6172 173.922 83.2578 175.219 83.2578C176.516 83.2578 177.57 83.6172 178.383 84.3359C179.195 85.0547 179.602 85.9766 179.602 87.1016C179.602 88.2266 179.195 89.1484 178.383 89.8672C177.57 90.5859 176.516 90.9453 175.219 90.9453C173.922 90.9453 172.867 90.5859 172.055 89.8672C171.242 89.1484 170.836 88.2266 170.836 87.1016ZM196.102 119.469C194.039 119.469 192.195 119.148 190.57 118.508C188.945 117.852 187.57 116.953 186.445 115.812C185.336 114.672 184.484 113.359 183.891 111.875C183.312 110.391 183.023 108.82 183.023 107.164V106.273C183.023 104.414 183.281 102.695 183.797 101.117C184.312 99.5234 185.078 98.1328 186.094 96.9453C187.109 95.7578 188.383 94.8359 189.914 94.1797C191.445 93.5078 193.227 93.1719 195.258 93.1719C197.055 93.1719 198.664 93.4609 200.086 94.0391C201.508 94.6172 202.711 95.4453 203.695 96.5234C204.695 97.6016 205.453 98.9062 205.969 100.438C206.5 101.969 206.766 103.688 206.766 105.594V108.805H186.047V103.859H199.055V103.25C199.07 102.406 198.922 101.688 198.609 101.094C198.312 100.5 197.875 100.047 197.297 99.7344C196.719 99.4219 196.016 99.2656 195.188 99.2656C194.328 99.2656 193.617 99.4531 193.055 99.8281C192.508 100.203 192.078 100.719 191.766 101.375C191.469 102.016 191.258 102.758 191.133 103.602C191.008 104.445 190.945 105.336 190.945 106.273V107.164C190.945 108.102 191.07 108.953 191.32 109.719C191.586 110.484 191.961 111.141 192.445 111.688C192.945 112.219 193.539 112.633 194.227 112.93C194.93 113.227 195.727 113.375 196.617 113.375C197.695 113.375 198.758 113.172 199.805 112.766C200.852 112.359 201.75 111.688 202.5 110.75L206.086 115.016C205.57 115.75 204.836 116.461 203.883 117.148C202.945 117.836 201.82 118.398 200.508 118.836C199.195 119.258 197.727 119.469 196.102 119.469ZM220.688 113.375C221.422 113.375 222.047 113.242 222.562 112.977C223.094 112.695 223.492 112.305 223.758 111.805C224.039 111.289 224.172 110.672 224.156 109.953H231.586C231.602 111.859 231.133 113.531 230.18 114.969C229.242 116.391 227.961 117.5 226.336 118.297C224.727 119.078 222.906 119.469 220.875 119.469C218.891 119.469 217.156 119.148 215.672 118.508C214.188 117.852 212.945 116.945 211.945 115.789C210.961 114.617 210.219 113.25 209.719 111.688C209.234 110.125 208.992 108.43 208.992 106.602V106.062C208.992 104.234 209.234 102.539 209.719 100.977C210.219 99.3984 210.961 98.0312 211.945 96.875C212.945 95.7031 214.18 94.7969 215.648 94.1562C217.133 93.5 218.859 93.1719 220.828 93.1719C222.938 93.1719 224.797 93.5703 226.406 94.3672C228.031 95.1641 229.305 96.3203 230.227 97.8359C231.148 99.3516 231.602 101.188 231.586 103.344H224.156C224.172 102.578 224.055 101.891 223.805 101.281C223.555 100.672 223.164 100.188 222.633 99.8281C222.117 99.4531 221.453 99.2656 220.641 99.2656C219.828 99.2656 219.172 99.4453 218.672 99.8047C218.172 100.164 217.789 100.664 217.523 101.305C217.273 101.93 217.102 102.648 217.008 103.461C216.93 104.273 216.891 105.141 216.891 106.062V106.602C216.891 107.539 216.93 108.422 217.008 109.25C217.102 110.062 217.281 110.781 217.547 111.406C217.812 112.016 218.195 112.5 218.695 112.859C219.195 113.203 219.859 113.375 220.688 113.375ZM248.32 93.6406V99.125H233.039V93.6406H248.32ZM236.25 87.3359H244.148V110.727C244.148 111.398 244.227 111.922 244.383 112.297C244.539 112.656 244.805 112.914 245.18 113.07C245.57 113.211 246.086 113.281 246.727 113.281C247.18 113.281 247.555 113.273 247.852 113.258C248.148 113.227 248.43 113.188 248.695 113.141V118.789C248.023 119.008 247.32 119.172 246.586 119.281C245.852 119.406 245.07 119.469 244.242 119.469C242.555 119.469 241.109 119.203 239.906 118.672C238.719 118.141 237.812 117.305 237.188 116.164C236.562 115.023 236.25 113.539 236.25 111.711V87.3359ZM277.406 107.422H268.922V101.07H277.406C278.562 101.07 279.5 100.875 280.219 100.484C280.938 100.094 281.461 99.5547 281.789 98.8672C282.133 98.1641 282.305 97.375 282.305 96.5C282.305 95.5625 282.133 94.6953 281.789 93.8984C281.461 93.1016 280.938 92.4609 280.219 91.9766C279.5 91.4766 278.562 91.2266 277.406 91.2266H272.016V119H263.789V84.875H277.406C280.141 84.875 282.492 85.375 284.461 86.375C286.445 87.375 287.969 88.75 289.031 90.5C290.094 92.2344 290.625 94.2188 290.625 96.4531C290.625 98.6562 290.094 100.578 289.031 102.219C287.969 103.859 286.445 105.141 284.461 106.062C282.492 106.969 280.141 107.422 277.406 107.422ZM302.414 83V119H294.516V83H302.414ZM301.477 105.453L299.625 105.5C299.625 103.719 299.844 102.078 300.281 100.578C300.719 99.0781 301.344 97.7734 302.156 96.6641C302.969 95.5547 303.945 94.6953 305.086 94.0859C306.227 93.4766 307.492 93.1719 308.883 93.1719C310.133 93.1719 311.273 93.3516 312.305 93.7109C313.352 94.0703 314.25 94.6484 315 95.4453C315.766 96.2422 316.352 97.2812 316.758 98.5625C317.18 99.8438 317.391 101.406 317.391 103.25V119H309.445V103.203C309.445 102.172 309.297 101.375 309 100.812C308.719 100.234 308.312 99.8359 307.781 99.6172C307.25 99.3828 306.602 99.2656 305.836 99.2656C304.914 99.2656 304.164 99.4219 303.586 99.7344C303.008 100.047 302.562 100.484 302.25 101.047C301.953 101.594 301.75 102.242 301.641 102.992C301.531 103.742 301.477 104.562 301.477 105.453ZM330.117 93.6406V119H322.195V93.6406H330.117ZM321.727 87.1016C321.727 85.9766 322.133 85.0547 322.945 84.3359C323.758 83.6172 324.812 83.2578 326.109 83.2578C327.406 83.2578 328.461 83.6172 329.273 84.3359C330.086 85.0547 330.492 85.9766 330.492 87.1016C330.492 88.2266 330.086 89.1484 329.273 89.8672C328.461 90.5859 327.406 90.9453 326.109 90.9453C324.812 90.9453 323.758 90.5859 322.945 89.8672C322.133 89.1484 321.727 88.2266 321.727 87.1016ZM343.336 83V119H335.414V83H343.336ZM347.227 106.578V106.086C347.227 104.227 347.492 102.516 348.023 100.953C348.555 99.375 349.336 98.0078 350.367 96.8516C351.398 95.6953 352.672 94.7969 354.188 94.1562C355.703 93.5 357.453 93.1719 359.438 93.1719C361.438 93.1719 363.195 93.5 364.711 94.1562C366.242 94.7969 367.523 95.6953 368.555 96.8516C369.586 98.0078 370.367 99.375 370.898 100.953C371.43 102.516 371.695 104.227 371.695 106.086V106.578C371.695 108.422 371.43 110.133 370.898 111.711C370.367 113.273 369.586 114.641 368.555 115.812C367.523 116.969 366.25 117.867 364.734 118.508C363.219 119.148 361.469 119.469 359.484 119.469C357.5 119.469 355.742 119.148 354.211 118.508C352.68 117.867 351.398 116.969 350.367 115.812C349.336 114.641 348.555 113.273 348.023 111.711C347.492 110.133 347.227 108.422 347.227 106.578ZM355.125 106.086V106.578C355.125 107.531 355.195 108.422 355.336 109.25C355.477 110.078 355.711 110.805 356.039 111.43C356.367 112.039 356.812 112.516 357.375 112.859C357.938 113.203 358.641 113.375 359.484 113.375C360.312 113.375 361 113.203 361.547 112.859C362.109 112.516 362.555 112.039 362.883 111.43C363.211 110.805 363.445 110.078 363.586 109.25C363.727 108.422 363.797 107.531 363.797 106.578V106.086C363.797 105.164 363.727 104.297 363.586 103.484C363.445 102.656 363.211 101.93 362.883 101.305C362.555 100.664 362.109 100.164 361.547 99.8047C360.984 99.4453 360.281 99.2656 359.438 99.2656C358.609 99.2656 357.914 99.4453 357.352 99.8047C356.805 100.164 356.367 100.664 356.039 101.305C355.711 101.93 355.477 102.656 355.336 103.484C355.195 104.297 355.125 105.164 355.125 106.086ZM388.5 111.875C388.5 111.438 388.352 111.062 388.055 110.75C387.773 110.422 387.273 110.125 386.555 109.859C385.836 109.578 384.828 109.297 383.531 109.016C382.297 108.75 381.133 108.398 380.039 107.961C378.961 107.523 378.016 106.992 377.203 106.367C376.391 105.742 375.75 105 375.281 104.141C374.828 103.281 374.602 102.297 374.602 101.188C374.602 100.109 374.828 99.0938 375.281 98.1406C375.75 97.1719 376.43 96.3203 377.32 95.5859C378.227 94.8359 379.328 94.25 380.625 93.8281C381.922 93.3906 383.398 93.1719 385.055 93.1719C387.336 93.1719 389.305 93.5234 390.961 94.2266C392.617 94.9141 393.891 95.8828 394.781 97.1328C395.688 98.3672 396.141 99.7969 396.141 101.422H388.242C388.242 100.781 388.133 100.234 387.914 99.7812C387.711 99.3281 387.375 98.9844 386.906 98.75C386.438 98.5 385.812 98.375 385.031 98.375C384.484 98.375 383.984 98.4766 383.531 98.6797C383.094 98.8828 382.742 99.1641 382.477 99.5234C382.211 99.8828 382.078 100.305 382.078 100.789C382.078 101.133 382.156 101.445 382.312 101.727C382.484 101.992 382.742 102.242 383.086 102.477C383.43 102.695 383.867 102.898 384.398 103.086C384.93 103.258 385.57 103.414 386.32 103.555C388.023 103.867 389.617 104.312 391.102 104.891C392.586 105.469 393.789 106.289 394.711 107.352C395.648 108.414 396.117 109.844 396.117 111.641C396.117 112.766 395.859 113.805 395.344 114.758C394.828 115.695 394.086 116.523 393.117 117.242C392.148 117.945 390.984 118.492 389.625 118.883C388.266 119.273 386.734 119.469 385.031 119.469C382.609 119.469 380.562 119.039 378.891 118.18C377.219 117.305 375.953 116.211 375.094 114.898C374.25 113.57 373.828 112.227 373.828 110.867H381.188C381.219 111.648 381.406 112.289 381.75 112.789C382.109 113.289 382.586 113.656 383.18 113.891C383.773 114.125 384.461 114.242 385.242 114.242C385.961 114.242 386.555 114.141 387.023 113.938C387.508 113.734 387.875 113.461 388.125 113.117C388.375 112.758 388.5 112.344 388.5 111.875ZM398.836 106.578V106.086C398.836 104.227 399.102 102.516 399.633 100.953C400.164 99.375 400.945 98.0078 401.977 96.8516C403.008 95.6953 404.281 94.7969 405.797 94.1562C407.312 93.5 409.062 93.1719 411.047 93.1719C413.047 93.1719 414.805 93.5 416.32 94.1562C417.852 94.7969 419.133 95.6953 420.164 96.8516C421.195 98.0078 421.977 99.375 422.508 100.953C423.039 102.516 423.305 104.227 423.305 106.086V106.578C423.305 108.422 423.039 110.133 422.508 111.711C421.977 113.273 421.195 114.641 420.164 115.812C419.133 116.969 417.859 117.867 416.344 118.508C414.828 119.148 413.078 119.469 411.094 119.469C409.109 119.469 407.352 119.148 405.82 118.508C404.289 117.867 403.008 116.969 401.977 115.812C400.945 114.641 400.164 113.273 399.633 111.711C399.102 110.133 398.836 108.422 398.836 106.578ZM406.734 106.086V106.578C406.734 107.531 406.805 108.422 406.945 109.25C407.086 110.078 407.32 110.805 407.648 111.43C407.977 112.039 408.422 112.516 408.984 112.859C409.547 113.203 410.25 113.375 411.094 113.375C411.922 113.375 412.609 113.203 413.156 112.859C413.719 112.516 414.164 112.039 414.492 111.43C414.82 110.805 415.055 110.078 415.195 109.25C415.336 108.422 415.406 107.531 415.406 106.578V106.086C415.406 105.164 415.336 104.297 415.195 103.484C415.055 102.656 414.82 101.93 414.492 101.305C414.164 100.664 413.719 100.164 413.156 99.8047C412.594 99.4453 411.891 99.2656 411.047 99.2656C410.219 99.2656 409.523 99.4453 408.961 99.8047C408.414 100.164 407.977 100.664 407.648 101.305C407.32 101.93 407.086 102.656 406.945 103.484C406.805 104.297 406.734 105.164 406.734 106.086ZM434.789 98.5156V128.75H426.891V93.6406H434.25L434.789 98.5156ZM450.352 106.016V106.508C450.352 108.352 450.141 110.062 449.719 111.641C449.297 113.219 448.672 114.594 447.844 115.766C447.016 116.938 445.984 117.852 444.75 118.508C443.531 119.148 442.117 119.469 440.508 119.469C438.992 119.469 437.688 119.133 436.594 118.461C435.5 117.789 434.586 116.859 433.852 115.672C433.117 114.484 432.523 113.125 432.07 111.594C431.617 110.062 431.258 108.445 430.992 106.742V106.109C431.258 104.281 431.617 102.586 432.07 101.023C432.523 99.4453 433.117 98.0703 433.852 96.8984C434.586 95.7266 435.492 94.8125 436.57 94.1562C437.664 93.5 438.969 93.1719 440.484 93.1719C442.094 93.1719 443.508 93.4766 444.727 94.0859C445.961 94.6953 446.992 95.5703 447.82 96.7109C448.664 97.8359 449.297 99.1875 449.719 100.766C450.141 102.344 450.352 104.094 450.352 106.016ZM442.453 106.508V106.016C442.453 105.031 442.383 104.133 442.242 103.32C442.102 102.492 441.875 101.773 441.562 101.164C441.266 100.555 440.867 100.086 440.367 99.7578C439.867 99.4297 439.25 99.2656 438.516 99.2656C437.672 99.2656 436.961 99.3984 436.383 99.6641C435.82 99.9141 435.367 100.305 435.023 100.836C434.695 101.352 434.461 102 434.32 102.781C434.195 103.547 434.141 104.445 434.156 105.477V107.398C434.125 108.586 434.242 109.633 434.508 110.539C434.773 111.43 435.234 112.125 435.891 112.625C436.547 113.125 437.438 113.375 438.562 113.375C439.312 113.375 439.938 113.203 440.438 112.859C440.938 112.5 441.336 112.008 441.633 111.383C441.93 110.742 442.141 110.008 442.266 109.18C442.391 108.352 442.453 107.461 442.453 106.508ZM461.602 83V119H453.703V83H461.602ZM460.664 105.453L458.812 105.5C458.812 103.719 459.031 102.078 459.469 100.578C459.906 99.0781 460.531 97.7734 461.344 96.6641C462.156 95.5547 463.133 94.6953 464.273 94.0859C465.414 93.4766 466.68 93.1719 468.07 93.1719C469.32 93.1719 470.461 93.3516 471.492 93.7109C472.539 94.0703 473.438 94.6484 474.188 95.4453C474.953 96.2422 475.539 97.2812 475.945 98.5625C476.367 99.8438 476.578 101.406 476.578 103.25V119H468.633V103.203C468.633 102.172 468.484 101.375 468.188 100.812C467.906 100.234 467.5 99.8359 466.969 99.6172C466.438 99.3828 465.789 99.2656 465.023 99.2656C464.102 99.2656 463.352 99.4219 462.773 99.7344C462.195 100.047 461.75 100.484 461.438 101.047C461.141 101.594 460.938 102.242 460.828 102.992C460.719 103.742 460.664 104.562 460.664 105.453ZM488.742 116.023L495.305 93.6406H503.789L493.594 122.773C493.375 123.414 493.086 124.102 492.727 124.836C492.367 125.586 491.875 126.297 491.25 126.969C490.625 127.641 489.82 128.188 488.836 128.609C487.867 129.031 486.664 129.242 485.227 129.242C484.461 129.242 483.898 129.203 483.539 129.125C483.195 129.062 482.664 128.945 481.945 128.773V123.125C482.148 123.125 482.32 123.125 482.461 123.125C482.617 123.125 482.789 123.125 482.977 123.125C483.82 123.125 484.492 123.039 484.992 122.867C485.508 122.695 485.898 122.445 486.164 122.117C486.445 121.789 486.664 121.391 486.82 120.922L488.742 116.023ZM487.078 93.6406L492.07 111.383L492.938 119.75H487.641L478.617 93.6406H487.078Z" fill="black"/>
<path d="M1134 0H1348C1356.28 0 1363 6.71573 1363 15V148C1363 156.284 1356.28 163 1348 163H1134V0Z" fill="#F6815B"/>
<path d="M1234.26 103.786H1262.74V109.357H1234.26V103.786ZM1239.96 114.929H1257.04V120.5H1239.96V114.929ZM1248.5 42.5C1240.95 42.5 1233.71 45.4349 1228.37 50.6592C1223.03 55.8834 1220.03 62.969 1220.03 70.3571C1219.84 74.4057 1220.63 78.4412 1222.34 82.1315C1224.05 85.8219 1226.64 89.0616 1229.88 91.5843C1232.73 94.175 1234.26 95.6514 1234.26 98.2143H1239.96C1239.96 93.0886 1236.8 90.2193 1233.72 87.4614C1231.06 85.4676 1228.94 82.8658 1227.55 79.8838C1226.15 76.9019 1225.53 73.6308 1225.72 70.3571C1225.72 64.4466 1228.12 58.7781 1232.39 54.5988C1236.67 50.4194 1242.46 48.0714 1248.5 48.0714C1254.54 48.0714 1260.33 50.4194 1264.61 54.5988C1268.88 58.7781 1271.28 64.4466 1271.28 70.3571C1271.47 73.6333 1270.84 76.9059 1269.44 79.888C1268.04 82.8701 1265.92 85.4706 1263.25 87.4614C1260.2 90.2471 1257.04 93.0329 1257.04 98.2143H1262.74C1262.74 95.6514 1264.25 94.175 1267.12 91.5564C1270.36 89.0381 1272.94 85.8031 1274.66 82.1176C1276.37 78.4321 1277.16 74.4014 1276.97 70.3571C1276.97 66.6989 1276.24 63.0765 1274.81 59.6967C1273.37 56.3169 1271.28 53.2459 1268.63 50.6592C1265.99 48.0724 1262.85 46.0205 1259.4 44.6205C1255.94 43.2205 1252.24 42.5 1248.5 42.5Z" fill="white"/>
</svg>
