<svg width="1363" height="163" viewBox="0 0 1363 163" fill="none" xmlns="http://www.w3.org/2000/svg">
<path d="M0 15C0 6.71573 6.71573 0 15 0H37V163H15C6.71573 163 0 156.284 0 148V15Z" fill="#F6815B"/>
<rect width="1097" height="163" transform="translate(37)" fill="#F0F0F0"/>
<path d="M101.906 53.9219L94.3945 51.2383V48.0859L104.602 52.375V54.6367L101.906 53.9219ZM94.3945 56.1719L101.918 53.4297L104.602 52.7852V55.0352L94.3945 59.3242V56.1719ZM126.914 52.0703V52.8789C126.914 54.1758 126.738 55.3398 126.387 56.3711C126.035 57.4023 125.539 58.2812 124.898 59.0078C124.258 59.7266 123.492 60.2773 122.602 60.6602C121.719 61.043 120.738 61.2344 119.66 61.2344C118.59 61.2344 117.609 61.043 116.719 60.6602C115.836 60.2773 115.07 59.7266 114.422 59.0078C113.773 58.2812 113.27 57.4023 112.91 56.3711C112.559 55.3398 112.383 54.1758 112.383 52.8789V52.0703C112.383 50.7656 112.559 49.6016 112.91 48.5781C113.262 47.5469 113.758 46.668 114.398 45.9414C115.047 45.2148 115.812 44.6602 116.695 44.2773C117.586 43.8945 118.566 43.7031 119.637 43.7031C120.715 43.7031 121.695 43.8945 122.578 44.2773C123.469 44.6602 124.234 45.2148 124.875 45.9414C125.523 46.668 126.023 47.5469 126.375 48.5781C126.734 49.6016 126.914 50.7656 126.914 52.0703ZM123.363 52.8789V52.0469C123.363 51.1406 123.281 50.3438 123.117 49.6562C122.953 48.9688 122.711 48.3906 122.391 47.9219C122.07 47.4531 121.68 47.1016 121.219 46.8672C120.758 46.625 120.23 46.5039 119.637 46.5039C119.043 46.5039 118.516 46.625 118.055 46.8672C117.602 47.1016 117.215 47.4531 116.895 47.9219C116.582 48.3906 116.344 48.9688 116.18 49.6562C116.016 50.3438 115.934 51.1406 115.934 52.0469V52.8789C115.934 53.7773 116.016 54.5742 116.18 55.2695C116.344 55.957 116.586 56.5391 116.906 57.0156C117.227 57.4844 117.617 57.8398 118.078 58.082C118.539 58.3242 119.066 58.4453 119.66 58.4453C120.254 58.4453 120.781 58.3242 121.242 58.082C121.703 57.8398 122.09 57.4844 122.402 57.0156C122.715 56.5391 122.953 55.957 123.117 55.2695C123.281 54.5742 123.363 53.7773 123.363 52.8789ZM132.539 51.0273V61H129.164V48.3203H132.328L132.539 51.0273ZM132.047 54.2148H131.133C131.133 53.2773 131.254 52.4336 131.496 51.6836C131.738 50.9258 132.078 50.2812 132.516 49.75C132.953 49.2109 133.473 48.8008 134.074 48.5195C134.684 48.2305 135.363 48.0859 136.113 48.0859C136.707 48.0859 137.25 48.1719 137.742 48.3438C138.234 48.5156 138.656 48.7891 139.008 49.1641C139.367 49.5391 139.641 50.0352 139.828 50.6523C140.023 51.2695 140.121 52.0234 140.121 52.9141V61H136.723V52.9023C136.723 52.3398 136.645 51.9023 136.488 51.5898C136.332 51.2773 136.102 51.0586 135.797 50.9336C135.5 50.8008 135.133 50.7344 134.695 50.7344C134.242 50.7344 133.848 50.8242 133.512 51.0039C133.184 51.1836 132.91 51.4336 132.691 51.7539C132.48 52.0664 132.32 52.4336 132.211 52.8555C132.102 53.2773 132.047 53.7305 132.047 54.2148ZM146.25 43V61H142.863V43H146.25ZM152.602 48.3203V61H149.215V48.3203H152.602ZM149.004 45.0156C149.004 44.5234 149.176 44.1172 149.52 43.7969C149.863 43.4766 150.324 43.3164 150.902 43.3164C151.473 43.3164 151.93 43.4766 152.273 43.7969C152.625 44.1172 152.801 44.5234 152.801 45.0156C152.801 45.5078 152.625 45.9141 152.273 46.2344C151.93 46.5547 151.473 46.7148 150.902 46.7148C150.324 46.7148 149.863 46.5547 149.52 46.2344C149.176 45.9141 149.004 45.5078 149.004 45.0156ZM158.695 51.0273V61H155.32V48.3203H158.484L158.695 51.0273ZM158.203 54.2148H157.289C157.289 53.2773 157.41 52.4336 157.652 51.6836C157.895 50.9258 158.234 50.2812 158.672 49.75C159.109 49.2109 159.629 48.8008 160.23 48.5195C160.84 48.2305 161.52 48.0859 162.27 48.0859C162.863 48.0859 163.406 48.1719 163.898 48.3438C164.391 48.5156 164.812 48.7891 165.164 49.1641C165.523 49.5391 165.797 50.0352 165.984 50.6523C166.18 51.2695 166.277 52.0234 166.277 52.9141V61H162.879V52.9023C162.879 52.3398 162.801 51.9023 162.645 51.5898C162.488 51.2773 162.258 51.0586 161.953 50.9336C161.656 50.8008 161.289 50.7344 160.852 50.7344C160.398 50.7344 160.004 50.8242 159.668 51.0039C159.34 51.1836 159.066 51.4336 158.848 51.7539C158.637 52.0664 158.477 52.4336 158.367 52.8555C158.258 53.2773 158.203 53.7305 158.203 54.2148ZM174.68 61.2344C173.695 61.2344 172.812 61.0781 172.031 60.7656C171.25 60.4453 170.586 60.0039 170.039 59.4414C169.5 58.8789 169.086 58.2266 168.797 57.4844C168.508 56.7344 168.363 55.9375 168.363 55.0938V54.625C168.363 53.6641 168.5 52.7852 168.773 51.9883C169.047 51.1914 169.438 50.5 169.945 49.9141C170.461 49.3281 171.086 48.8789 171.82 48.5664C172.555 48.2461 173.383 48.0859 174.305 48.0859C175.203 48.0859 176 48.2344 176.695 48.5312C177.391 48.8281 177.973 49.25 178.441 49.7969C178.918 50.3438 179.277 51 179.52 51.7656C179.762 52.5234 179.883 53.3672 179.883 54.2969V55.7031H169.805V53.4531H176.566V53.1953C176.566 52.7266 176.48 52.3086 176.309 51.9414C176.145 51.5664 175.895 51.2695 175.559 51.0508C175.223 50.832 174.793 50.7227 174.27 50.7227C173.824 50.7227 173.441 50.8203 173.121 51.0156C172.801 51.2109 172.539 51.4844 172.336 51.8359C172.141 52.1875 171.992 52.6016 171.891 53.0781C171.797 53.5469 171.75 54.0625 171.75 54.625V55.0938C171.75 55.6016 171.82 56.0703 171.961 56.5C172.109 56.9297 172.316 57.3008 172.582 57.6133C172.855 57.9258 173.184 58.168 173.566 58.3398C173.957 58.5117 174.398 58.5977 174.891 58.5977C175.5 58.5977 176.066 58.4805 176.59 58.2461C177.121 58.0039 177.578 57.6406 177.961 57.1562L179.602 58.9375C179.336 59.3203 178.973 59.6875 178.512 60.0391C178.059 60.3906 177.512 60.6797 176.871 60.9062C176.23 61.125 175.5 61.2344 174.68 61.2344ZM187.992 43.9375H194.355C195.66 43.9375 196.781 44.1328 197.719 44.5234C198.664 44.9141 199.391 45.4922 199.898 46.2578C200.406 47.0234 200.66 47.9648 200.66 49.082C200.66 49.9961 200.504 50.7812 200.191 51.4375C199.887 52.0859 199.453 52.6289 198.891 53.0664C198.336 53.4961 197.684 53.8398 196.934 54.0977L195.82 54.6836H190.289L190.266 51.9414H194.379C194.996 51.9414 195.508 51.832 195.914 51.6133C196.32 51.3945 196.625 51.0898 196.828 50.6992C197.039 50.3086 197.145 49.8555 197.145 49.3398C197.145 48.793 197.043 48.3203 196.84 47.9219C196.637 47.5234 196.328 47.2188 195.914 47.0078C195.5 46.7969 194.98 46.6914 194.355 46.6914H191.508V61H187.992V43.9375ZM197.531 61L193.641 53.3945L197.355 53.3711L201.293 60.8359V61H197.531ZM208.992 61.2344C208.008 61.2344 207.125 61.0781 206.344 60.7656C205.562 60.4453 204.898 60.0039 204.352 59.4414C203.812 58.8789 203.398 58.2266 203.109 57.4844C202.82 56.7344 202.676 55.9375 202.676 55.0938V54.625C202.676 53.6641 202.812 52.7852 203.086 51.9883C203.359 51.1914 203.75 50.5 204.258 49.9141C204.773 49.3281 205.398 48.8789 206.133 48.5664C206.867 48.2461 207.695 48.0859 208.617 48.0859C209.516 48.0859 210.312 48.2344 211.008 48.5312C211.703 48.8281 212.285 49.25 212.754 49.7969C213.23 50.3438 213.59 51 213.832 51.7656C214.074 52.5234 214.195 53.3672 214.195 54.2969V55.7031H204.117V53.4531H210.879V53.1953C210.879 52.7266 210.793 52.3086 210.621 51.9414C210.457 51.5664 210.207 51.2695 209.871 51.0508C209.535 50.832 209.105 50.7227 208.582 50.7227C208.137 50.7227 207.754 50.8203 207.434 51.0156C207.113 51.2109 206.852 51.4844 206.648 51.8359C206.453 52.1875 206.305 52.6016 206.203 53.0781C206.109 53.5469 206.062 54.0625 206.062 54.625V55.0938C206.062 55.6016 206.133 56.0703 206.273 56.5C206.422 56.9297 206.629 57.3008 206.895 57.6133C207.168 57.9258 207.496 58.168 207.879 58.3398C208.27 58.5117 208.711 58.5977 209.203 58.5977C209.812 58.5977 210.379 58.4805 210.902 58.2461C211.434 58.0039 211.891 57.6406 212.273 57.1562L213.914 58.9375C213.648 59.3203 213.285 59.6875 212.824 60.0391C212.371 60.3906 211.824 60.6797 211.184 60.9062C210.543 61.125 209.812 61.2344 208.992 61.2344ZM221.355 58.5977C221.77 58.5977 222.137 58.5195 222.457 58.3633C222.777 58.1992 223.027 57.9727 223.207 57.6836C223.395 57.3867 223.492 57.0391 223.5 56.6406H226.676C226.668 57.5312 226.43 58.3242 225.961 59.0195C225.492 59.707 224.863 60.25 224.074 60.6484C223.285 61.0391 222.402 61.2344 221.426 61.2344C220.441 61.2344 219.582 61.0703 218.848 60.7422C218.121 60.4141 217.516 59.9609 217.031 59.3828C216.547 58.7969 216.184 58.1172 215.941 57.3438C215.699 56.5625 215.578 55.7266 215.578 54.8359V54.4961C215.578 53.5977 215.699 52.7617 215.941 51.9883C216.184 51.207 216.547 50.5273 217.031 49.9492C217.516 49.3633 218.121 48.9062 218.848 48.5781C219.574 48.25 220.426 48.0859 221.402 48.0859C222.441 48.0859 223.352 48.2852 224.133 48.6836C224.922 49.082 225.539 49.6523 225.984 50.3945C226.438 51.1289 226.668 52 226.676 53.0078H223.5C223.492 52.5859 223.402 52.2031 223.23 51.8594C223.066 51.5156 222.824 51.2422 222.504 51.0391C222.191 50.8281 221.805 50.7227 221.344 50.7227C220.852 50.7227 220.449 50.8281 220.137 51.0391C219.824 51.2422 219.582 51.5234 219.41 51.8828C219.238 52.2344 219.117 52.6367 219.047 53.0898C218.984 53.5352 218.953 54.0039 218.953 54.4961V54.8359C218.953 55.3281 218.984 55.8008 219.047 56.2539C219.109 56.707 219.227 57.1094 219.398 57.4609C219.578 57.8125 219.824 58.0898 220.137 58.293C220.449 58.4961 220.855 58.5977 221.355 58.5977ZM232.195 48.3203V61H228.809V48.3203H232.195ZM228.598 45.0156C228.598 44.5234 228.77 44.1172 229.113 43.7969C229.457 43.4766 229.918 43.3164 230.496 43.3164C231.066 43.3164 231.523 43.4766 231.867 43.7969C232.219 44.1172 232.395 44.5234 232.395 45.0156C232.395 45.5078 232.219 45.9141 231.867 46.2344C231.523 46.5547 231.066 46.7148 230.496 46.7148C229.918 46.7148 229.457 46.5547 229.113 46.2344C228.77 45.9141 228.598 45.5078 228.598 45.0156ZM238.359 50.7578V65.875H234.984V48.3203H238.113L238.359 50.7578ZM246.387 54.5195V54.7656C246.387 55.6875 246.277 56.543 246.059 57.332C245.848 58.1211 245.535 58.8086 245.121 59.3945C244.707 59.9727 244.191 60.4258 243.574 60.7539C242.965 61.0742 242.262 61.2344 241.465 61.2344C240.691 61.2344 240.02 61.0781 239.449 60.7656C238.879 60.4531 238.398 60.0156 238.008 59.4531C237.625 58.8828 237.316 58.2227 237.082 57.4727C236.848 56.7227 236.668 55.918 236.543 55.0586V54.4141C236.668 53.4922 236.848 52.6484 237.082 51.8828C237.316 51.1094 237.625 50.4414 238.008 49.8789C238.398 49.3086 238.875 48.8672 239.438 48.5547C240.008 48.2422 240.676 48.0859 241.441 48.0859C242.246 48.0859 242.953 48.2383 243.562 48.543C244.18 48.8477 244.695 49.2852 245.109 49.8555C245.531 50.4258 245.848 51.1055 246.059 51.8945C246.277 52.6836 246.387 53.5586 246.387 54.5195ZM243 54.7656V54.5195C243 53.9805 242.953 53.4844 242.859 53.0312C242.773 52.5703 242.633 52.168 242.438 51.8242C242.25 51.4805 242 51.2148 241.688 51.0273C241.383 50.832 241.012 50.7344 240.574 50.7344C240.113 50.7344 239.719 50.8086 239.391 50.957C239.07 51.1055 238.809 51.3203 238.605 51.6016C238.402 51.8828 238.25 52.2188 238.148 52.6094C238.047 53 237.984 53.4414 237.961 53.9336V55.5625C238 56.1406 238.109 56.6602 238.289 57.1211C238.469 57.5742 238.746 57.9336 239.121 58.1992C239.496 58.4648 239.988 58.5977 240.598 58.5977C241.043 58.5977 241.418 58.5 241.723 58.3047C242.027 58.1016 242.273 57.8242 242.461 57.4727C242.656 57.1211 242.793 56.7148 242.871 56.2539C242.957 55.793 243 55.2969 243 54.7656ZM254.32 61.2344C253.336 61.2344 252.453 61.0781 251.672 60.7656C250.891 60.4453 250.227 60.0039 249.68 59.4414C249.141 58.8789 248.727 58.2266 248.438 57.4844C248.148 56.7344 248.004 55.9375 248.004 55.0938V54.625C248.004 53.6641 248.141 52.7852 248.414 51.9883C248.688 51.1914 249.078 50.5 249.586 49.9141C250.102 49.3281 250.727 48.8789 251.461 48.5664C252.195 48.2461 253.023 48.0859 253.945 48.0859C254.844 48.0859 255.641 48.2344 256.336 48.5312C257.031 48.8281 257.613 49.25 258.082 49.7969C258.559 50.3438 258.918 51 259.16 51.7656C259.402 52.5234 259.523 53.3672 259.523 54.2969V55.7031H249.445V53.4531H256.207V53.1953C256.207 52.7266 256.121 52.3086 255.949 51.9414C255.785 51.5664 255.535 51.2695 255.199 51.0508C254.863 50.832 254.434 50.7227 253.91 50.7227C253.465 50.7227 253.082 50.8203 252.762 51.0156C252.441 51.2109 252.18 51.4844 251.977 51.8359C251.781 52.1875 251.633 52.6016 251.531 53.0781C251.438 53.5469 251.391 54.0625 251.391 54.625V55.0938C251.391 55.6016 251.461 56.0703 251.602 56.5C251.75 56.9297 251.957 57.3008 252.223 57.6133C252.496 57.9258 252.824 58.168 253.207 58.3398C253.598 58.5117 254.039 58.5977 254.531 58.5977C255.141 58.5977 255.707 58.4805 256.23 58.2461C256.762 58.0039 257.219 57.6406 257.602 57.1562L259.242 58.9375C258.977 59.3203 258.613 59.6875 258.152 60.0391C257.699 60.3906 257.152 60.6797 256.512 60.9062C255.871 61.125 255.141 61.2344 254.32 61.2344ZM268.301 57.4961C268.301 57.2539 268.23 57.0352 268.09 56.8398C267.949 56.6445 267.688 56.4648 267.305 56.3008C266.93 56.1289 266.387 55.9727 265.676 55.832C265.035 55.6914 264.438 55.5156 263.883 55.3047C263.336 55.0859 262.859 54.8242 262.453 54.5195C262.055 54.2148 261.742 53.8555 261.516 53.4414C261.289 53.0195 261.176 52.5391 261.176 52C261.176 51.4688 261.289 50.9688 261.516 50.5C261.75 50.0312 262.082 49.6172 262.512 49.2578C262.949 48.8906 263.48 48.6055 264.105 48.4023C264.738 48.1914 265.449 48.0859 266.238 48.0859C267.34 48.0859 268.285 48.2617 269.074 48.6133C269.871 48.9648 270.48 49.4492 270.902 50.0664C271.332 50.6758 271.547 51.3711 271.547 52.1523H268.172C268.172 51.8242 268.102 51.5312 267.961 51.2734C267.828 51.0078 267.617 50.8008 267.328 50.6523C267.047 50.4961 266.68 50.418 266.227 50.418C265.852 50.418 265.527 50.4844 265.254 50.6172C264.98 50.7422 264.77 50.9141 264.621 51.1328C264.48 51.3438 264.41 51.5781 264.41 51.8359C264.41 52.0312 264.449 52.207 264.527 52.3633C264.613 52.5117 264.75 52.6484 264.938 52.7734C265.125 52.8984 265.367 53.0156 265.664 53.125C265.969 53.2266 266.344 53.3203 266.789 53.4062C267.703 53.5938 268.52 53.8398 269.238 54.1445C269.957 54.4414 270.527 54.8477 270.949 55.3633C271.371 55.8711 271.582 56.5391 271.582 57.3672C271.582 57.9297 271.457 58.4453 271.207 58.9141C270.957 59.3828 270.598 59.793 270.129 60.1445C269.66 60.4883 269.098 60.7578 268.441 60.9531C267.793 61.1406 267.062 61.2344 266.25 61.2344C265.07 61.2344 264.07 61.0234 263.25 60.6016C262.438 60.1797 261.82 59.6445 261.398 58.9961C260.984 58.3398 260.777 57.668 260.777 56.9805H263.977C263.992 57.4414 264.109 57.8125 264.328 58.0938C264.555 58.375 264.84 58.5781 265.184 58.7031C265.535 58.8281 265.914 58.8906 266.32 58.8906C266.758 58.8906 267.121 58.832 267.41 58.7148C267.699 58.5898 267.918 58.4258 268.066 58.2227C268.223 58.0117 268.301 57.7695 268.301 57.4961Z" fill="#888888"/>
<path d="M118.594 98.4219V104.75H101.086V98.4219H118.594ZM103.828 84.875V119H95.6016V84.875H103.828ZM124.125 84.875V119H115.922V84.875H124.125ZM127.992 106.578V106.086C127.992 104.227 128.258 102.516 128.789 100.953C129.32 99.375 130.102 98.0078 131.133 96.8516C132.164 95.6953 133.438 94.7969 134.953 94.1562C136.469 93.5 138.219 93.1719 140.203 93.1719C142.203 93.1719 143.961 93.5 145.477 94.1562C147.008 94.7969 148.289 95.6953 149.32 96.8516C150.352 98.0078 151.133 99.375 151.664 100.953C152.195 102.516 152.461 104.227 152.461 106.086V106.578C152.461 108.422 152.195 110.133 151.664 111.711C151.133 113.273 150.352 114.641 149.32 115.812C148.289 116.969 147.016 117.867 145.5 118.508C143.984 119.148 142.234 119.469 140.25 119.469C138.266 119.469 136.508 119.148 134.977 118.508C133.445 117.867 132.164 116.969 131.133 115.812C130.102 114.641 129.32 113.273 128.789 111.711C128.258 110.133 127.992 108.422 127.992 106.578ZM135.891 106.086V106.578C135.891 107.531 135.961 108.422 136.102 109.25C136.242 110.078 136.477 110.805 136.805 111.43C137.133 112.039 137.578 112.516 138.141 112.859C138.703 113.203 139.406 113.375 140.25 113.375C141.078 113.375 141.766 113.203 142.312 112.859C142.875 112.516 143.32 112.039 143.648 111.43C143.977 110.805 144.211 110.078 144.352 109.25C144.492 108.422 144.562 107.531 144.562 106.578V106.086C144.562 105.164 144.492 104.297 144.352 103.484C144.211 102.656 143.977 101.93 143.648 101.305C143.32 100.664 142.875 100.164 142.312 99.8047C141.75 99.4453 141.047 99.2656 140.203 99.2656C139.375 99.2656 138.68 99.4453 138.117 99.8047C137.57 100.164 137.133 100.664 136.805 101.305C136.477 101.93 136.242 102.656 136.102 103.484C135.961 104.297 135.891 105.164 135.891 106.086ZM163.688 111.453L168.375 93.6406H173.32L171.562 102.57L166.922 119H162.961L163.688 111.453ZM161.836 93.6406L164.742 111.312L165.07 119H160.266L154.266 93.6406H161.836ZM177.492 110.938L180.422 93.6406H187.992L182.039 119H177.234L177.492 110.938ZM173.883 93.6406L178.617 111.406L179.344 119H175.336L170.789 102.617L169.102 93.6406H173.883ZM218.297 84.875V119H210.07V84.875H218.297ZM228.562 84.875V91.2266H200.039V84.875H228.562ZM225.773 106.578V106.086C225.773 104.227 226.039 102.516 226.57 100.953C227.102 99.375 227.883 98.0078 228.914 96.8516C229.945 95.6953 231.219 94.7969 232.734 94.1562C234.25 93.5 236 93.1719 237.984 93.1719C239.984 93.1719 241.742 93.5 243.258 94.1562C244.789 94.7969 246.07 95.6953 247.102 96.8516C248.133 98.0078 248.914 99.375 249.445 100.953C249.977 102.516 250.242 104.227 250.242 106.086V106.578C250.242 108.422 249.977 110.133 249.445 111.711C248.914 113.273 248.133 114.641 247.102 115.812C246.07 116.969 244.797 117.867 243.281 118.508C241.766 119.148 240.016 119.469 238.031 119.469C236.047 119.469 234.289 119.148 232.758 118.508C231.227 117.867 229.945 116.969 228.914 115.812C227.883 114.641 227.102 113.273 226.57 111.711C226.039 110.133 225.773 108.422 225.773 106.578ZM233.672 106.086V106.578C233.672 107.531 233.742 108.422 233.883 109.25C234.023 110.078 234.258 110.805 234.586 111.43C234.914 112.039 235.359 112.516 235.922 112.859C236.484 113.203 237.188 113.375 238.031 113.375C238.859 113.375 239.547 113.203 240.094 112.859C240.656 112.516 241.102 112.039 241.43 111.43C241.758 110.805 241.992 110.078 242.133 109.25C242.273 108.422 242.344 107.531 242.344 106.578V106.086C242.344 105.164 242.273 104.297 242.133 103.484C241.992 102.656 241.758 101.93 241.43 101.305C241.102 100.664 240.656 100.164 240.094 99.8047C239.531 99.4453 238.828 99.2656 237.984 99.2656C237.156 99.2656 236.461 99.4453 235.898 99.8047C235.352 100.164 234.914 100.664 234.586 101.305C234.258 101.93 234.023 102.656 233.883 103.484C233.742 104.297 233.672 105.164 233.672 106.086ZM266.086 84.875H279.516C282.141 84.875 284.422 85.2656 286.359 86.0469C288.297 86.8281 289.789 87.9844 290.836 89.5156C291.898 91.0469 292.43 92.9375 292.43 95.1875C292.43 97.1406 292.125 98.7734 291.516 100.086C290.906 101.398 290.055 102.484 288.961 103.344C287.883 104.188 286.625 104.883 285.188 105.43L282.492 106.953H271.219L271.172 100.602H279.516C280.562 100.602 281.43 100.414 282.117 100.039C282.805 99.6641 283.32 99.1328 283.664 98.4453C284.023 97.7422 284.203 96.9062 284.203 95.9375C284.203 94.9531 284.023 94.1094 283.664 93.4062C283.305 92.7031 282.773 92.1641 282.07 91.7891C281.383 91.4141 280.531 91.2266 279.516 91.2266H274.312V119H266.086V84.875ZM284.766 119L277.219 103.906L285.938 103.859L293.578 118.648V119H284.766ZM311.836 112.836V93.6406H319.758V119H312.352L311.836 112.836ZM312.586 107.68L314.648 107.633C314.648 109.336 314.445 110.914 314.039 112.367C313.633 113.805 313.031 115.055 312.234 116.117C311.453 117.18 310.484 118.008 309.328 118.602C308.188 119.18 306.867 119.469 305.367 119.469C304.117 119.469 302.969 119.297 301.922 118.953C300.891 118.594 300 118.039 299.25 117.289C298.5 116.523 297.914 115.547 297.492 114.359C297.086 113.156 296.883 111.719 296.883 110.047V93.6406H304.781V110.094C304.781 110.656 304.852 111.141 304.992 111.547C305.133 111.953 305.336 112.297 305.602 112.578C305.867 112.844 306.195 113.047 306.586 113.188C306.992 113.312 307.453 113.375 307.969 113.375C309.156 113.375 310.086 113.125 310.758 112.625C311.43 112.125 311.898 111.445 312.164 110.586C312.445 109.727 312.586 108.758 312.586 107.68ZM331.875 99.0547V119H323.977V93.6406H331.383L331.875 99.0547ZM330.938 105.453L329.086 105.5C329.086 103.562 329.32 101.836 329.789 100.32C330.258 98.7891 330.922 97.4922 331.781 96.4297C332.641 95.3672 333.664 94.5625 334.852 94.0156C336.055 93.4531 337.391 93.1719 338.859 93.1719C340.031 93.1719 341.102 93.3438 342.07 93.6875C343.055 94.0312 343.898 94.5859 344.602 95.3516C345.32 96.1172 345.867 97.1328 346.242 98.3984C346.633 99.6484 346.828 101.195 346.828 103.039V119H338.883V103.016C338.883 102 338.742 101.227 338.461 100.695C338.18 100.148 337.773 99.7734 337.242 99.5703C336.711 99.3672 336.062 99.2656 335.297 99.2656C334.484 99.2656 333.797 99.4219 333.234 99.7344C332.672 100.047 332.219 100.484 331.875 101.047C331.547 101.594 331.305 102.242 331.148 102.992C331.008 103.742 330.938 104.562 330.938 105.453ZM363.773 108.195H357.047C357.047 106.82 357.141 105.609 357.328 104.562C357.531 103.5 357.875 102.547 358.359 101.703C358.844 100.859 359.5 100.078 360.328 99.3594C361.062 98.75 361.695 98.1641 362.227 97.6016C362.758 97.0391 363.164 96.4688 363.445 95.8906C363.727 95.3125 363.867 94.6953 363.867 94.0391C363.867 93.2266 363.75 92.5625 363.516 92.0469C363.297 91.5312 362.961 91.1484 362.508 90.8984C362.07 90.6328 361.516 90.5 360.844 90.5C360.297 90.5 359.781 90.6328 359.297 90.8984C358.828 91.1641 358.445 91.5781 358.148 92.1406C357.852 92.6875 357.688 93.4141 357.656 94.3203H349.711C349.758 91.9922 350.273 90.1016 351.258 88.6484C352.258 87.1797 353.586 86.1094 355.242 85.4375C356.914 84.75 358.781 84.4062 360.844 84.4062C363.125 84.4062 365.086 84.7578 366.727 85.4609C368.367 86.1641 369.625 87.2109 370.5 88.6016C371.375 89.9766 371.812 91.6719 371.812 93.6875C371.812 95.0312 371.555 96.2031 371.039 97.2031C370.539 98.1875 369.859 99.1094 369 99.9688C368.156 100.812 367.211 101.719 366.164 102.688C365.258 103.484 364.641 104.297 364.312 105.125C363.984 105.938 363.805 106.961 363.773 108.195ZM356.086 115.32C356.086 114.195 356.492 113.258 357.305 112.508C358.117 111.742 359.172 111.359 360.469 111.359C361.766 111.359 362.82 111.742 363.633 112.508C364.445 113.258 364.852 114.195 364.852 115.32C364.852 116.445 364.445 117.391 363.633 118.156C362.82 118.906 361.766 119.281 360.469 119.281C359.172 119.281 358.117 118.906 357.305 118.156C356.492 117.391 356.086 116.445 356.086 115.32Z" fill="black"/>
<path d="M1134 0H1348C1356.28 0 1363 6.71573 1363 15V148C1363 156.284 1356.28 163 1348 163H1134V0Z" fill="#F6815B"/>
<path d="M1260.62 78.8078C1263.81 78.8078 1266.93 79.7552 1269.59 81.5302C1272.25 83.3052 1274.32 85.8281 1275.54 88.7798C1276.76 91.7315 1277.08 94.9795 1276.46 98.1131C1275.84 101.247 1274.3 104.125 1272.04 106.384C1269.78 108.643 1266.9 110.182 1263.77 110.805C1260.63 111.428 1257.39 111.108 1254.43 109.886C1251.48 108.663 1248.96 106.593 1247.18 103.936C1245.41 101.28 1244.46 98.1565 1244.46 94.9616C1244.46 90.6774 1246.16 86.5686 1249.19 83.5392C1252.22 80.5097 1256.33 78.8078 1260.62 78.8078ZM1260.62 73.4232C1256.36 73.4232 1252.19 74.6864 1248.65 77.0531C1245.11 79.4198 1242.35 82.7836 1240.72 86.7192C1239.09 90.6549 1238.66 94.9855 1239.49 99.1636C1240.32 103.342 1242.37 107.179 1245.39 110.192C1248.4 113.204 1252.24 115.255 1256.41 116.086C1260.59 116.917 1264.92 116.491 1268.86 114.861C1272.79 113.23 1276.16 110.47 1278.52 106.928C1280.89 103.386 1282.15 99.2215 1282.15 94.9616C1282.15 89.2493 1279.88 83.7709 1275.85 79.7317C1271.81 75.6924 1266.33 73.4232 1260.62 73.4232Z" fill="white"/>
<path d="M1274.08 46.4999H1220.23C1218.8 46.4999 1217.43 47.0672 1216.42 48.0771C1215.41 49.0869 1214.85 50.4565 1214.85 51.8845V105.731C1214.85 107.159 1215.41 108.528 1216.42 109.538C1217.43 110.548 1218.8 111.115 1220.23 111.115H1231V105.731H1220.23V68.0383H1279.46V51.8845C1279.46 50.4565 1278.89 49.0869 1277.88 48.0771C1276.87 47.0672 1275.5 46.4999 1274.08 46.4999ZM1220.23 62.6537V51.8845H1274.08V62.6537H1220.23Z" fill="white"/>
<path d="M1255.23 86.8848V103.039L1268.69 94.9617L1255.23 86.8848Z" fill="white"/>
</svg>
