<svg width="1363" height="163" viewBox="0 0 1363 163" fill="none" xmlns="http://www.w3.org/2000/svg">
<path d="M0 15C0 6.71573 6.71573 0 15 0H37V163H15C6.71573 163 0 156.284 0 148V15Z" fill="#F6815B"/>
<rect width="1097" height="163" transform="translate(37)" fill="#F0F0F0"/>
<path d="M101.906 53.9219L94.3945 51.2383V48.0859L104.602 52.375V54.6367L101.906 53.9219ZM94.3945 56.1719L101.918 53.4297L104.602 52.7852V55.0352L94.3945 59.3242V56.1719ZM132.891 52.0703V52.8789C132.891 54.1758 132.715 55.3398 132.363 56.3711C132.012 57.4023 131.516 58.2812 130.875 59.0078C130.234 59.7266 129.469 60.2773 128.578 60.6602C127.695 61.043 126.715 61.2344 125.637 61.2344C124.566 61.2344 123.586 61.043 122.695 60.6602C121.812 60.2773 121.047 59.7266 120.398 59.0078C119.75 58.2812 119.246 57.4023 118.887 56.3711C118.535 55.3398 118.359 54.1758 118.359 52.8789V52.0703C118.359 50.7656 118.535 49.6016 118.887 48.5781C119.238 47.5469 119.734 46.668 120.375 45.9414C121.023 45.2148 121.789 44.6602 122.672 44.2773C123.562 43.8945 124.543 43.7031 125.613 43.7031C126.691 43.7031 127.672 43.8945 128.555 44.2773C129.445 44.6602 130.211 45.2148 130.852 45.9414C131.5 46.668 132 47.5469 132.352 48.5781C132.711 49.6016 132.891 50.7656 132.891 52.0703ZM129.34 52.8789V52.0469C129.34 51.1406 129.258 50.3438 129.094 49.6562C128.93 48.9688 128.688 48.3906 128.367 47.9219C128.047 47.4531 127.656 47.1016 127.195 46.8672C126.734 46.625 126.207 46.5039 125.613 46.5039C125.02 46.5039 124.492 46.625 124.031 46.8672C123.578 47.1016 123.191 47.4531 122.871 47.9219C122.559 48.3906 122.32 48.9688 122.156 49.6562C121.992 50.3438 121.91 51.1406 121.91 52.0469V52.8789C121.91 53.7773 121.992 54.5742 122.156 55.2695C122.32 55.957 122.562 56.5391 122.883 57.0156C123.203 57.4844 123.594 57.8398 124.055 58.082C124.516 58.3242 125.043 58.4453 125.637 58.4453C126.23 58.4453 126.758 58.3242 127.219 58.082C127.68 57.8398 128.066 57.4844 128.379 57.0156C128.691 56.5391 128.93 55.957 129.094 55.2695C129.258 54.5742 129.34 53.7773 129.34 52.8789ZM138.516 51.0273V61H135.141V48.3203H138.305L138.516 51.0273ZM138.023 54.2148H137.109C137.109 53.2773 137.23 52.4336 137.473 51.6836C137.715 50.9258 138.055 50.2812 138.492 49.75C138.93 49.2109 139.449 48.8008 140.051 48.5195C140.66 48.2305 141.34 48.0859 142.09 48.0859C142.684 48.0859 143.227 48.1719 143.719 48.3438C144.211 48.5156 144.633 48.7891 144.984 49.1641C145.344 49.5391 145.617 50.0352 145.805 50.6523C146 51.2695 146.098 52.0234 146.098 52.9141V61H142.699V52.9023C142.699 52.3398 142.621 51.9023 142.465 51.5898C142.309 51.2773 142.078 51.0586 141.773 50.9336C141.477 50.8008 141.109 50.7344 140.672 50.7344C140.219 50.7344 139.824 50.8242 139.488 51.0039C139.16 51.1836 138.887 51.4336 138.668 51.7539C138.457 52.0664 138.297 52.4336 138.188 52.8555C138.078 53.2773 138.023 53.7305 138.023 54.2148ZM152.227 43V61H148.84V43H152.227ZM158.578 48.3203V61H155.191V48.3203H158.578ZM154.98 45.0156C154.98 44.5234 155.152 44.1172 155.496 43.7969C155.84 43.4766 156.301 43.3164 156.879 43.3164C157.449 43.3164 157.906 43.4766 158.25 43.7969C158.602 44.1172 158.777 44.5234 158.777 45.0156C158.777 45.5078 158.602 45.9141 158.25 46.2344C157.906 46.5547 157.449 46.7148 156.879 46.7148C156.301 46.7148 155.84 46.5547 155.496 46.2344C155.152 45.9141 154.98 45.5078 154.98 45.0156ZM164.672 51.0273V61H161.297V48.3203H164.461L164.672 51.0273ZM164.18 54.2148H163.266C163.266 53.2773 163.387 52.4336 163.629 51.6836C163.871 50.9258 164.211 50.2812 164.648 49.75C165.086 49.2109 165.605 48.8008 166.207 48.5195C166.816 48.2305 167.496 48.0859 168.246 48.0859C168.84 48.0859 169.383 48.1719 169.875 48.3438C170.367 48.5156 170.789 48.7891 171.141 49.1641C171.5 49.5391 171.773 50.0352 171.961 50.6523C172.156 51.2695 172.254 52.0234 172.254 52.9141V61H168.855V52.9023C168.855 52.3398 168.777 51.9023 168.621 51.5898C168.465 51.2773 168.234 51.0586 167.93 50.9336C167.633 50.8008 167.266 50.7344 166.828 50.7344C166.375 50.7344 165.98 50.8242 165.645 51.0039C165.316 51.1836 165.043 51.4336 164.824 51.7539C164.613 52.0664 164.453 52.4336 164.344 52.8555C164.234 53.2773 164.18 53.7305 164.18 54.2148ZM180.656 61.2344C179.672 61.2344 178.789 61.0781 178.008 60.7656C177.227 60.4453 176.562 60.0039 176.016 59.4414C175.477 58.8789 175.062 58.2266 174.773 57.4844C174.484 56.7344 174.34 55.9375 174.34 55.0938V54.625C174.34 53.6641 174.477 52.7852 174.75 51.9883C175.023 51.1914 175.414 50.5 175.922 49.9141C176.438 49.3281 177.062 48.8789 177.797 48.5664C178.531 48.2461 179.359 48.0859 180.281 48.0859C181.18 48.0859 181.977 48.2344 182.672 48.5312C183.367 48.8281 183.949 49.25 184.418 49.7969C184.895 50.3438 185.254 51 185.496 51.7656C185.738 52.5234 185.859 53.3672 185.859 54.2969V55.7031H175.781V53.4531H182.543V53.1953C182.543 52.7266 182.457 52.3086 182.285 51.9414C182.121 51.5664 181.871 51.2695 181.535 51.0508C181.199 50.832 180.77 50.7227 180.246 50.7227C179.801 50.7227 179.418 50.8203 179.098 51.0156C178.777 51.2109 178.516 51.4844 178.312 51.8359C178.117 52.1875 177.969 52.6016 177.867 53.0781C177.773 53.5469 177.727 54.0625 177.727 54.625V55.0938C177.727 55.6016 177.797 56.0703 177.938 56.5C178.086 56.9297 178.293 57.3008 178.559 57.6133C178.832 57.9258 179.16 58.168 179.543 58.3398C179.934 58.5117 180.375 58.5977 180.867 58.5977C181.477 58.5977 182.043 58.4805 182.566 58.2461C183.098 58.0039 183.555 57.6406 183.938 57.1562L185.578 58.9375C185.312 59.3203 184.949 59.6875 184.488 60.0391C184.035 60.3906 183.488 60.6797 182.848 60.9062C182.207 61.125 181.477 61.2344 180.656 61.2344ZM193.969 43.9375H200.332C201.637 43.9375 202.758 44.1328 203.695 44.5234C204.641 44.9141 205.367 45.4922 205.875 46.2578C206.383 47.0234 206.637 47.9648 206.637 49.082C206.637 49.9961 206.48 50.7812 206.168 51.4375C205.863 52.0859 205.43 52.6289 204.867 53.0664C204.312 53.4961 203.66 53.8398 202.91 54.0977L201.797 54.6836H196.266L196.242 51.9414H200.355C200.973 51.9414 201.484 51.832 201.891 51.6133C202.297 51.3945 202.602 51.0898 202.805 50.6992C203.016 50.3086 203.121 49.8555 203.121 49.3398C203.121 48.793 203.02 48.3203 202.816 47.9219C202.613 47.5234 202.305 47.2188 201.891 47.0078C201.477 46.7969 200.957 46.6914 200.332 46.6914H197.484V61H193.969V43.9375ZM203.508 61L199.617 53.3945L203.332 53.3711L207.27 60.8359V61H203.508ZM214.969 61.2344C213.984 61.2344 213.102 61.0781 212.32 60.7656C211.539 60.4453 210.875 60.0039 210.328 59.4414C209.789 58.8789 209.375 58.2266 209.086 57.4844C208.797 56.7344 208.652 55.9375 208.652 55.0938V54.625C208.652 53.6641 208.789 52.7852 209.062 51.9883C209.336 51.1914 209.727 50.5 210.234 49.9141C210.75 49.3281 211.375 48.8789 212.109 48.5664C212.844 48.2461 213.672 48.0859 214.594 48.0859C215.492 48.0859 216.289 48.2344 216.984 48.5312C217.68 48.8281 218.262 49.25 218.73 49.7969C219.207 50.3438 219.566 51 219.809 51.7656C220.051 52.5234 220.172 53.3672 220.172 54.2969V55.7031H210.094V53.4531H216.855V53.1953C216.855 52.7266 216.77 52.3086 216.598 51.9414C216.434 51.5664 216.184 51.2695 215.848 51.0508C215.512 50.832 215.082 50.7227 214.559 50.7227C214.113 50.7227 213.73 50.8203 213.41 51.0156C213.09 51.2109 212.828 51.4844 212.625 51.8359C212.43 52.1875 212.281 52.6016 212.18 53.0781C212.086 53.5469 212.039 54.0625 212.039 54.625V55.0938C212.039 55.6016 212.109 56.0703 212.25 56.5C212.398 56.9297 212.605 57.3008 212.871 57.6133C213.145 57.9258 213.473 58.168 213.855 58.3398C214.246 58.5117 214.688 58.5977 215.18 58.5977C215.789 58.5977 216.355 58.4805 216.879 58.2461C217.41 58.0039 217.867 57.6406 218.25 57.1562L219.891 58.9375C219.625 59.3203 219.262 59.6875 218.801 60.0391C218.348 60.3906 217.801 60.6797 217.16 60.9062C216.52 61.125 215.789 61.2344 214.969 61.2344ZM227.332 58.5977C227.746 58.5977 228.113 58.5195 228.434 58.3633C228.754 58.1992 229.004 57.9727 229.184 57.6836C229.371 57.3867 229.469 57.0391 229.477 56.6406H232.652C232.645 57.5312 232.406 58.3242 231.938 59.0195C231.469 59.707 230.84 60.25 230.051 60.6484C229.262 61.0391 228.379 61.2344 227.402 61.2344C226.418 61.2344 225.559 61.0703 224.824 60.7422C224.098 60.4141 223.492 59.9609 223.008 59.3828C222.523 58.7969 222.16 58.1172 221.918 57.3438C221.676 56.5625 221.555 55.7266 221.555 54.8359V54.4961C221.555 53.5977 221.676 52.7617 221.918 51.9883C222.16 51.207 222.523 50.5273 223.008 49.9492C223.492 49.3633 224.098 48.9062 224.824 48.5781C225.551 48.25 226.402 48.0859 227.379 48.0859C228.418 48.0859 229.328 48.2852 230.109 48.6836C230.898 49.082 231.516 49.6523 231.961 50.3945C232.414 51.1289 232.645 52 232.652 53.0078H229.477C229.469 52.5859 229.379 52.2031 229.207 51.8594C229.043 51.5156 228.801 51.2422 228.48 51.0391C228.168 50.8281 227.781 50.7227 227.32 50.7227C226.828 50.7227 226.426 50.8281 226.113 51.0391C225.801 51.2422 225.559 51.5234 225.387 51.8828C225.215 52.2344 225.094 52.6367 225.023 53.0898C224.961 53.5352 224.93 54.0039 224.93 54.4961V54.8359C224.93 55.3281 224.961 55.8008 225.023 56.2539C225.086 56.707 225.203 57.1094 225.375 57.4609C225.555 57.8125 225.801 58.0898 226.113 58.293C226.426 58.4961 226.832 58.5977 227.332 58.5977ZM238.172 48.3203V61H234.785V48.3203H238.172ZM234.574 45.0156C234.574 44.5234 234.746 44.1172 235.09 43.7969C235.434 43.4766 235.895 43.3164 236.473 43.3164C237.043 43.3164 237.5 43.4766 237.844 43.7969C238.195 44.1172 238.371 44.5234 238.371 45.0156C238.371 45.5078 238.195 45.9141 237.844 46.2344C237.5 46.5547 237.043 46.7148 236.473 46.7148C235.895 46.7148 235.434 46.5547 235.09 46.2344C234.746 45.9141 234.574 45.5078 234.574 45.0156ZM244.336 50.7578V65.875H240.961V48.3203H244.09L244.336 50.7578ZM252.363 54.5195V54.7656C252.363 55.6875 252.254 56.543 252.035 57.332C251.824 58.1211 251.512 58.8086 251.098 59.3945C250.684 59.9727 250.168 60.4258 249.551 60.7539C248.941 61.0742 248.238 61.2344 247.441 61.2344C246.668 61.2344 245.996 61.0781 245.426 60.7656C244.855 60.4531 244.375 60.0156 243.984 59.4531C243.602 58.8828 243.293 58.2227 243.059 57.4727C242.824 56.7227 242.645 55.918 242.52 55.0586V54.4141C242.645 53.4922 242.824 52.6484 243.059 51.8828C243.293 51.1094 243.602 50.4414 243.984 49.8789C244.375 49.3086 244.852 48.8672 245.414 48.5547C245.984 48.2422 246.652 48.0859 247.418 48.0859C248.223 48.0859 248.93 48.2383 249.539 48.543C250.156 48.8477 250.672 49.2852 251.086 49.8555C251.508 50.4258 251.824 51.1055 252.035 51.8945C252.254 52.6836 252.363 53.5586 252.363 54.5195ZM248.977 54.7656V54.5195C248.977 53.9805 248.93 53.4844 248.836 53.0312C248.75 52.5703 248.609 52.168 248.414 51.8242C248.227 51.4805 247.977 51.2148 247.664 51.0273C247.359 50.832 246.988 50.7344 246.551 50.7344C246.09 50.7344 245.695 50.8086 245.367 50.957C245.047 51.1055 244.785 51.3203 244.582 51.6016C244.379 51.8828 244.227 52.2188 244.125 52.6094C244.023 53 243.961 53.4414 243.938 53.9336V55.5625C243.977 56.1406 244.086 56.6602 244.266 57.1211C244.445 57.5742 244.723 57.9336 245.098 58.1992C245.473 58.4648 245.965 58.5977 246.574 58.5977C247.02 58.5977 247.395 58.5 247.699 58.3047C248.004 58.1016 248.25 57.8242 248.438 57.4727C248.633 57.1211 248.77 56.7148 248.848 56.2539C248.934 55.793 248.977 55.2969 248.977 54.7656ZM260.297 61.2344C259.312 61.2344 258.43 61.0781 257.648 60.7656C256.867 60.4453 256.203 60.0039 255.656 59.4414C255.117 58.8789 254.703 58.2266 254.414 57.4844C254.125 56.7344 253.98 55.9375 253.98 55.0938V54.625C253.98 53.6641 254.117 52.7852 254.391 51.9883C254.664 51.1914 255.055 50.5 255.562 49.9141C256.078 49.3281 256.703 48.8789 257.438 48.5664C258.172 48.2461 259 48.0859 259.922 48.0859C260.82 48.0859 261.617 48.2344 262.312 48.5312C263.008 48.8281 263.59 49.25 264.059 49.7969C264.535 50.3438 264.895 51 265.137 51.7656C265.379 52.5234 265.5 53.3672 265.5 54.2969V55.7031H255.422V53.4531H262.184V53.1953C262.184 52.7266 262.098 52.3086 261.926 51.9414C261.762 51.5664 261.512 51.2695 261.176 51.0508C260.84 50.832 260.41 50.7227 259.887 50.7227C259.441 50.7227 259.059 50.8203 258.738 51.0156C258.418 51.2109 258.156 51.4844 257.953 51.8359C257.758 52.1875 257.609 52.6016 257.508 53.0781C257.414 53.5469 257.367 54.0625 257.367 54.625V55.0938C257.367 55.6016 257.438 56.0703 257.578 56.5C257.727 56.9297 257.934 57.3008 258.199 57.6133C258.473 57.9258 258.801 58.168 259.184 58.3398C259.574 58.5117 260.016 58.5977 260.508 58.5977C261.117 58.5977 261.684 58.4805 262.207 58.2461C262.738 58.0039 263.195 57.6406 263.578 57.1562L265.219 58.9375C264.953 59.3203 264.59 59.6875 264.129 60.0391C263.676 60.3906 263.129 60.6797 262.488 60.9062C261.848 61.125 261.117 61.2344 260.297 61.2344ZM274.277 57.4961C274.277 57.2539 274.207 57.0352 274.066 56.8398C273.926 56.6445 273.664 56.4648 273.281 56.3008C272.906 56.1289 272.363 55.9727 271.652 55.832C271.012 55.6914 270.414 55.5156 269.859 55.3047C269.312 55.0859 268.836 54.8242 268.43 54.5195C268.031 54.2148 267.719 53.8555 267.492 53.4414C267.266 53.0195 267.152 52.5391 267.152 52C267.152 51.4688 267.266 50.9688 267.492 50.5C267.727 50.0312 268.059 49.6172 268.488 49.2578C268.926 48.8906 269.457 48.6055 270.082 48.4023C270.715 48.1914 271.426 48.0859 272.215 48.0859C273.316 48.0859 274.262 48.2617 275.051 48.6133C275.848 48.9648 276.457 49.4492 276.879 50.0664C277.309 50.6758 277.523 51.3711 277.523 52.1523H274.148C274.148 51.8242 274.078 51.5312 273.938 51.2734C273.805 51.0078 273.594 50.8008 273.305 50.6523C273.023 50.4961 272.656 50.418 272.203 50.418C271.828 50.418 271.504 50.4844 271.23 50.6172C270.957 50.7422 270.746 50.9141 270.598 51.1328C270.457 51.3438 270.387 51.5781 270.387 51.8359C270.387 52.0312 270.426 52.207 270.504 52.3633C270.59 52.5117 270.727 52.6484 270.914 52.7734C271.102 52.8984 271.344 53.0156 271.641 53.125C271.945 53.2266 272.32 53.3203 272.766 53.4062C273.68 53.5938 274.496 53.8398 275.215 54.1445C275.934 54.4414 276.504 54.8477 276.926 55.3633C277.348 55.8711 277.559 56.5391 277.559 57.3672C277.559 57.9297 277.434 58.4453 277.184 58.9141C276.934 59.3828 276.574 59.793 276.105 60.1445C275.637 60.4883 275.074 60.7578 274.418 60.9531C273.77 61.1406 273.039 61.2344 272.227 61.2344C271.047 61.2344 270.047 61.0234 269.227 60.6016C268.414 60.1797 267.797 59.6445 267.375 58.9961C266.961 58.3398 266.754 57.668 266.754 56.9805H269.953C269.969 57.4414 270.086 57.8125 270.305 58.0938C270.531 58.375 270.816 58.5781 271.16 58.7031C271.512 58.8281 271.891 58.8906 272.297 58.8906C272.734 58.8906 273.098 58.832 273.387 58.7148C273.676 58.5898 273.895 58.4258 274.043 58.2227C274.199 58.0117 274.277 57.7695 274.277 57.4961Z" fill="#888888"/>
<path d="M104.344 84.875V119H96.1406V84.875H104.344ZM117.727 99.0078V119H109.828V93.6406H117.234L117.727 99.0078ZM116.766 105.453L114.961 105.5C114.961 103.719 115.172 102.078 115.594 100.578C116.016 99.0781 116.641 97.7734 117.469 96.6641C118.297 95.5547 119.312 94.6953 120.516 94.0859C121.734 93.4766 123.141 93.1719 124.734 93.1719C125.844 93.1719 126.852 93.3438 127.758 93.6875C128.664 94.0156 129.445 94.5391 130.102 95.2578C130.758 95.9609 131.258 96.8828 131.602 98.0234C131.961 99.1484 132.141 100.5 132.141 102.078V119H124.242V103.086C124.242 102.008 124.117 101.195 123.867 100.648C123.633 100.102 123.289 99.7344 122.836 99.5469C122.383 99.3594 121.828 99.2656 121.172 99.2656C120.484 99.2656 119.867 99.4219 119.32 99.7344C118.773 100.047 118.305 100.484 117.914 101.047C117.539 101.594 117.25 102.242 117.047 102.992C116.859 103.742 116.766 104.562 116.766 105.453ZM131.25 105.453L129.047 105.5C129.047 103.719 129.242 102.078 129.633 100.578C130.039 99.0781 130.641 97.7734 131.438 96.6641C132.25 95.5547 133.258 94.6953 134.461 94.0859C135.664 93.4766 137.062 93.1719 138.656 93.1719C139.812 93.1719 140.875 93.3438 141.844 93.6875C142.812 94.0312 143.648 94.5859 144.352 95.3516C145.055 96.1172 145.602 97.1328 145.992 98.3984C146.383 99.6484 146.578 101.195 146.578 103.039V119H138.656V103.039C138.656 101.992 138.531 101.203 138.281 100.672C138.047 100.125 137.703 99.7578 137.25 99.5703C136.797 99.3672 136.258 99.2656 135.633 99.2656C134.883 99.2656 134.234 99.4219 133.688 99.7344C133.141 100.047 132.68 100.484 132.305 101.047C131.945 101.594 131.68 102.242 131.508 102.992C131.336 103.742 131.25 104.562 131.25 105.453ZM159.07 98.5156V128.75H151.172V93.6406H158.531L159.07 98.5156ZM174.633 106.016V106.508C174.633 108.352 174.422 110.062 174 111.641C173.578 113.219 172.953 114.594 172.125 115.766C171.297 116.938 170.266 117.852 169.031 118.508C167.812 119.148 166.398 119.469 164.789 119.469C163.273 119.469 161.969 119.133 160.875 118.461C159.781 117.789 158.867 116.859 158.133 115.672C157.398 114.484 156.805 113.125 156.352 111.594C155.898 110.062 155.539 108.445 155.273 106.742V106.109C155.539 104.281 155.898 102.586 156.352 101.023C156.805 99.4453 157.398 98.0703 158.133 96.8984C158.867 95.7266 159.773 94.8125 160.852 94.1562C161.945 93.5 163.25 93.1719 164.766 93.1719C166.375 93.1719 167.789 93.4766 169.008 94.0859C170.242 94.6953 171.273 95.5703 172.102 96.7109C172.945 97.8359 173.578 99.1875 174 100.766C174.422 102.344 174.633 104.094 174.633 106.016ZM166.734 106.508V106.016C166.734 105.031 166.664 104.133 166.523 103.32C166.383 102.492 166.156 101.773 165.844 101.164C165.547 100.555 165.148 100.086 164.648 99.7578C164.148 99.4297 163.531 99.2656 162.797 99.2656C161.953 99.2656 161.242 99.3984 160.664 99.6641C160.102 99.9141 159.648 100.305 159.305 100.836C158.977 101.352 158.742 102 158.602 102.781C158.477 103.547 158.422 104.445 158.438 105.477V107.398C158.406 108.586 158.523 109.633 158.789 110.539C159.055 111.43 159.516 112.125 160.172 112.625C160.828 113.125 161.719 113.375 162.844 113.375C163.594 113.375 164.219 113.203 164.719 112.859C165.219 112.5 165.617 112.008 165.914 111.383C166.211 110.742 166.422 110.008 166.547 109.18C166.672 108.352 166.734 107.461 166.734 106.508ZM186.492 83V119H178.57V83H186.492ZM203.648 119.469C201.586 119.469 199.742 119.148 198.117 118.508C196.492 117.852 195.117 116.953 193.992 115.812C192.883 114.672 192.031 113.359 191.438 111.875C190.859 110.391 190.57 108.82 190.57 107.164V106.273C190.57 104.414 190.828 102.695 191.344 101.117C191.859 99.5234 192.625 98.1328 193.641 96.9453C194.656 95.7578 195.93 94.8359 197.461 94.1797C198.992 93.5078 200.773 93.1719 202.805 93.1719C204.602 93.1719 206.211 93.4609 207.633 94.0391C209.055 94.6172 210.258 95.4453 211.242 96.5234C212.242 97.6016 213 98.9062 213.516 100.438C214.047 101.969 214.312 103.688 214.312 105.594V108.805H193.594V103.859H206.602V103.25C206.617 102.406 206.469 101.688 206.156 101.094C205.859 100.5 205.422 100.047 204.844 99.7344C204.266 99.4219 203.562 99.2656 202.734 99.2656C201.875 99.2656 201.164 99.4531 200.602 99.8281C200.055 100.203 199.625 100.719 199.312 101.375C199.016 102.016 198.805 102.758 198.68 103.602C198.555 104.445 198.492 105.336 198.492 106.273V107.164C198.492 108.102 198.617 108.953 198.867 109.719C199.133 110.484 199.508 111.141 199.992 111.688C200.492 112.219 201.086 112.633 201.773 112.93C202.477 113.227 203.273 113.375 204.164 113.375C205.242 113.375 206.305 113.172 207.352 112.766C208.398 112.359 209.297 111.688 210.047 110.75L213.633 115.016C213.117 115.75 212.383 116.461 211.43 117.148C210.492 117.836 209.367 118.398 208.055 118.836C206.742 119.258 205.273 119.469 203.648 119.469ZM225.492 99.0078V119H217.594V93.6406H225L225.492 99.0078ZM224.531 105.453L222.727 105.5C222.727 103.719 222.938 102.078 223.359 100.578C223.781 99.0781 224.406 97.7734 225.234 96.6641C226.062 95.5547 227.078 94.6953 228.281 94.0859C229.5 93.4766 230.906 93.1719 232.5 93.1719C233.609 93.1719 234.617 93.3438 235.523 93.6875C236.43 94.0156 237.211 94.5391 237.867 95.2578C238.523 95.9609 239.023 96.8828 239.367 98.0234C239.727 99.1484 239.906 100.5 239.906 102.078V119H232.008V103.086C232.008 102.008 231.883 101.195 231.633 100.648C231.398 100.102 231.055 99.7344 230.602 99.5469C230.148 99.3594 229.594 99.2656 228.938 99.2656C228.25 99.2656 227.633 99.4219 227.086 99.7344C226.539 100.047 226.07 100.484 225.68 101.047C225.305 101.594 225.016 102.242 224.812 102.992C224.625 103.742 224.531 104.562 224.531 105.453ZM239.016 105.453L236.812 105.5C236.812 103.719 237.008 102.078 237.398 100.578C237.805 99.0781 238.406 97.7734 239.203 96.6641C240.016 95.5547 241.023 94.6953 242.227 94.0859C243.43 93.4766 244.828 93.1719 246.422 93.1719C247.578 93.1719 248.641 93.3438 249.609 93.6875C250.578 94.0312 251.414 94.5859 252.117 95.3516C252.82 96.1172 253.367 97.1328 253.758 98.3984C254.148 99.6484 254.344 101.195 254.344 103.039V119H246.422V103.039C246.422 101.992 246.297 101.203 246.047 100.672C245.812 100.125 245.469 99.7578 245.016 99.5703C244.562 99.3672 244.023 99.2656 243.398 99.2656C242.648 99.2656 242 99.4219 241.453 99.7344C240.906 100.047 240.445 100.484 240.07 101.047C239.711 101.594 239.445 102.242 239.273 102.992C239.102 103.742 239.016 104.562 239.016 105.453ZM271.148 119.469C269.086 119.469 267.242 119.148 265.617 118.508C263.992 117.852 262.617 116.953 261.492 115.812C260.383 114.672 259.531 113.359 258.938 111.875C258.359 110.391 258.07 108.82 258.07 107.164V106.273C258.07 104.414 258.328 102.695 258.844 101.117C259.359 99.5234 260.125 98.1328 261.141 96.9453C262.156 95.7578 263.43 94.8359 264.961 94.1797C266.492 93.5078 268.273 93.1719 270.305 93.1719C272.102 93.1719 273.711 93.4609 275.133 94.0391C276.555 94.6172 277.758 95.4453 278.742 96.5234C279.742 97.6016 280.5 98.9062 281.016 100.438C281.547 101.969 281.812 103.688 281.812 105.594V108.805H261.094V103.859H274.102V103.25C274.117 102.406 273.969 101.688 273.656 101.094C273.359 100.5 272.922 100.047 272.344 99.7344C271.766 99.4219 271.062 99.2656 270.234 99.2656C269.375 99.2656 268.664 99.4531 268.102 99.8281C267.555 100.203 267.125 100.719 266.812 101.375C266.516 102.016 266.305 102.758 266.18 103.602C266.055 104.445 265.992 105.336 265.992 106.273V107.164C265.992 108.102 266.117 108.953 266.367 109.719C266.633 110.484 267.008 111.141 267.492 111.688C267.992 112.219 268.586 112.633 269.273 112.93C269.977 113.227 270.773 113.375 271.664 113.375C272.742 113.375 273.805 113.172 274.852 112.766C275.898 112.359 276.797 111.688 277.547 110.75L281.133 115.016C280.617 115.75 279.883 116.461 278.93 117.148C277.992 117.836 276.867 118.398 275.555 118.836C274.242 119.258 272.773 119.469 271.148 119.469ZM292.781 99.0547V119H284.883V93.6406H292.289L292.781 99.0547ZM291.844 105.453L289.992 105.5C289.992 103.562 290.227 101.836 290.695 100.32C291.164 98.7891 291.828 97.4922 292.688 96.4297C293.547 95.3672 294.57 94.5625 295.758 94.0156C296.961 93.4531 298.297 93.1719 299.766 93.1719C300.938 93.1719 302.008 93.3438 302.977 93.6875C303.961 94.0312 304.805 94.5859 305.508 95.3516C306.227 96.1172 306.773 97.1328 307.148 98.3984C307.539 99.6484 307.734 101.195 307.734 103.039V119H299.789V103.016C299.789 102 299.648 101.227 299.367 100.695C299.086 100.148 298.68 99.7734 298.148 99.5703C297.617 99.3672 296.969 99.2656 296.203 99.2656C295.391 99.2656 294.703 99.4219 294.141 99.7344C293.578 100.047 293.125 100.484 292.781 101.047C292.453 101.594 292.211 102.242 292.055 102.992C291.914 103.742 291.844 104.562 291.844 105.453ZM325.477 93.6406V99.125H310.195V93.6406H325.477ZM313.406 87.3359H321.305V110.727C321.305 111.398 321.383 111.922 321.539 112.297C321.695 112.656 321.961 112.914 322.336 113.07C322.727 113.211 323.242 113.281 323.883 113.281C324.336 113.281 324.711 113.273 325.008 113.258C325.305 113.227 325.586 113.188 325.852 113.141V118.789C325.18 119.008 324.477 119.172 323.742 119.281C323.008 119.406 322.227 119.469 321.398 119.469C319.711 119.469 318.266 119.203 317.062 118.672C315.875 118.141 314.969 117.305 314.344 116.164C313.719 115.023 313.406 113.539 313.406 111.711V87.3359ZM341.789 112.625V102.172C341.789 101.453 341.688 100.836 341.484 100.32C341.281 99.8047 340.961 99.4062 340.523 99.125C340.086 98.8281 339.5 98.6797 338.766 98.6797C338.172 98.6797 337.664 98.7812 337.242 98.9844C336.82 99.1875 336.5 99.4922 336.281 99.8984C336.062 100.305 335.953 100.82 335.953 101.445H328.055C328.055 100.273 328.312 99.1875 328.828 98.1875C329.359 97.1719 330.109 96.2891 331.078 95.5391C332.062 94.7891 333.234 94.2109 334.594 93.8047C335.969 93.3828 337.5 93.1719 339.188 93.1719C341.203 93.1719 343 93.5078 344.578 94.1797C346.172 94.8516 347.43 95.8594 348.352 97.2031C349.273 98.5312 349.734 100.203 349.734 102.219V112.602C349.734 114.258 349.828 115.516 350.016 116.375C350.203 117.219 350.469 117.961 350.812 118.602V119H342.891C342.516 118.219 342.234 117.266 342.047 116.141C341.875 115 341.789 113.828 341.789 112.625ZM342.75 103.508L342.797 107.727H339.305C338.57 107.727 337.945 107.828 337.43 108.031C336.93 108.234 336.523 108.516 336.211 108.875C335.914 109.219 335.695 109.609 335.555 110.047C335.43 110.484 335.367 110.945 335.367 111.43C335.367 111.898 335.477 112.32 335.695 112.695C335.93 113.055 336.242 113.336 336.633 113.539C337.023 113.742 337.461 113.844 337.945 113.844C338.82 113.844 339.562 113.68 340.172 113.352C340.797 113.008 341.273 112.594 341.602 112.109C341.93 111.625 342.094 111.172 342.094 110.75L343.828 113.984C343.516 114.609 343.156 115.242 342.75 115.883C342.359 116.523 341.867 117.117 341.273 117.664C340.695 118.195 339.984 118.633 339.141 118.977C338.297 119.305 337.273 119.469 336.07 119.469C334.508 119.469 333.07 119.148 331.758 118.508C330.461 117.867 329.422 116.977 328.641 115.836C327.859 114.68 327.469 113.352 327.469 111.852C327.469 110.539 327.703 109.367 328.172 108.336C328.656 107.305 329.383 106.43 330.352 105.711C331.32 104.992 332.555 104.445 334.055 104.07C335.555 103.695 337.32 103.508 339.352 103.508H342.75ZM367.477 93.6406V99.125H352.195V93.6406H367.477ZM355.406 87.3359H363.305V110.727C363.305 111.398 363.383 111.922 363.539 112.297C363.695 112.656 363.961 112.914 364.336 113.07C364.727 113.211 365.242 113.281 365.883 113.281C366.336 113.281 366.711 113.273 367.008 113.258C367.305 113.227 367.586 113.188 367.852 113.141V118.789C367.18 119.008 366.477 119.172 365.742 119.281C365.008 119.406 364.227 119.469 363.398 119.469C361.711 119.469 360.266 119.203 359.062 118.672C357.875 118.141 356.969 117.305 356.344 116.164C355.719 115.023 355.406 113.539 355.406 111.711V87.3359ZM378.961 93.6406V119H371.039V93.6406H378.961ZM370.57 87.1016C370.57 85.9766 370.977 85.0547 371.789 84.3359C372.602 83.6172 373.656 83.2578 374.953 83.2578C376.25 83.2578 377.305 83.6172 378.117 84.3359C378.93 85.0547 379.336 85.9766 379.336 87.1016C379.336 88.2266 378.93 89.1484 378.117 89.8672C377.305 90.5859 376.25 90.9453 374.953 90.9453C373.656 90.9453 372.602 90.5859 371.789 89.8672C370.977 89.1484 370.57 88.2266 370.57 87.1016ZM382.852 106.578V106.086C382.852 104.227 383.117 102.516 383.648 100.953C384.18 99.375 384.961 98.0078 385.992 96.8516C387.023 95.6953 388.297 94.7969 389.812 94.1562C391.328 93.5 393.078 93.1719 395.062 93.1719C397.062 93.1719 398.82 93.5 400.336 94.1562C401.867 94.7969 403.148 95.6953 404.18 96.8516C405.211 98.0078 405.992 99.375 406.523 100.953C407.055 102.516 407.32 104.227 407.32 106.086V106.578C407.32 108.422 407.055 110.133 406.523 111.711C405.992 113.273 405.211 114.641 404.18 115.812C403.148 116.969 401.875 117.867 400.359 118.508C398.844 119.148 397.094 119.469 395.109 119.469C393.125 119.469 391.367 119.148 389.836 118.508C388.305 117.867 387.023 116.969 385.992 115.812C384.961 114.641 384.18 113.273 383.648 111.711C383.117 110.133 382.852 108.422 382.852 106.578ZM390.75 106.086V106.578C390.75 107.531 390.82 108.422 390.961 109.25C391.102 110.078 391.336 110.805 391.664 111.43C391.992 112.039 392.438 112.516 393 112.859C393.562 113.203 394.266 113.375 395.109 113.375C395.938 113.375 396.625 113.203 397.172 112.859C397.734 112.516 398.18 112.039 398.508 111.43C398.836 110.805 399.07 110.078 399.211 109.25C399.352 108.422 399.422 107.531 399.422 106.578V106.086C399.422 105.164 399.352 104.297 399.211 103.484C399.07 102.656 398.836 101.93 398.508 101.305C398.18 100.664 397.734 100.164 397.172 99.8047C396.609 99.4453 395.906 99.2656 395.062 99.2656C394.234 99.2656 393.539 99.4453 392.977 99.8047C392.43 100.164 391.992 100.664 391.664 101.305C391.336 101.93 391.102 102.656 390.961 103.484C390.82 104.297 390.75 105.164 390.75 106.086ZM418.594 99.0547V119H410.695V93.6406H418.102L418.594 99.0547ZM417.656 105.453L415.805 105.5C415.805 103.562 416.039 101.836 416.508 100.32C416.977 98.7891 417.641 97.4922 418.5 96.4297C419.359 95.3672 420.383 94.5625 421.57 94.0156C422.773 93.4531 424.109 93.1719 425.578 93.1719C426.75 93.1719 427.82 93.3438 428.789 93.6875C429.773 94.0312 430.617 94.5859 431.32 95.3516C432.039 96.1172 432.586 97.1328 432.961 98.3984C433.352 99.6484 433.547 101.195 433.547 103.039V119H425.602V103.016C425.602 102 425.461 101.227 425.18 100.695C424.898 100.148 424.492 99.7734 423.961 99.5703C423.43 99.3672 422.781 99.2656 422.016 99.2656C421.203 99.2656 420.516 99.4219 419.953 99.7344C419.391 100.047 418.938 100.484 418.594 101.047C418.266 101.594 418.023 102.242 417.867 102.992C417.727 103.742 417.656 104.562 417.656 105.453Z" fill="black"/>
<path d="M1134 0H1348C1356.28 0 1363 6.71573 1363 15V148C1363 156.284 1356.28 163 1348 163H1134V0Z" fill="#F6815B"/>
<path d="M1281 46.5H1216L1213.5 49V114L1216 116.5H1281L1283.5 114V49L1281 46.5ZM1278.5 111.5H1233.5V101.5H1245C1246.5 104.5 1250 106.5 1253.5 106.5C1259 106.5 1263.5 102 1263.5 96.5C1263.5 91 1259 86.5 1253.5 86.5C1248 86.5 1243.5 91 1243.5 96.5H1228.5V111.5H1218.5V51.5H1228.5V63C1225.5 64.5 1223.5 68 1223.5 71.5C1223.5 77 1228 81.5 1233.5 81.5C1239 81.5 1243.5 77 1243.5 71.5H1253.5C1253.5 77 1258 81.5 1263.5 81.5C1269 81.5 1273.5 77 1273.5 71.5C1273.5 66 1269 61.5 1263.5 61.5C1260 61.5 1256.5 63.5 1255 66.5H1242C1240.5 63.5 1237 61.5 1233.5 61.5V51.5H1278.5V111.5ZM1248.5 96.5C1248.5 93.5 1250.5 91.5 1253.5 91.5C1256.5 91.5 1258.5 93.5 1258.5 96.5C1258.5 99.5 1256.5 101.5 1253.5 101.5C1250.5 101.5 1248.5 99.5 1248.5 96.5ZM1233.5 66.5C1236.5 66.5 1238.5 68.5 1238.5 71.5C1238.5 74.5 1236.5 76.5 1233.5 76.5C1230.5 76.5 1228.5 74.5 1228.5 71.5C1228.5 68.5 1230.5 66.5 1233.5 66.5ZM1263.5 66.5C1266.5 66.5 1268.5 68.5 1268.5 71.5C1268.5 74.5 1266.5 76.5 1263.5 76.5C1260.5 76.5 1258.5 74.5 1258.5 71.5C1258.5 68.5 1260.5 66.5 1263.5 66.5Z" fill="white"/>
</svg>
