<svg width="1363" height="163" viewBox="0 0 1363 163" fill="none" xmlns="http://www.w3.org/2000/svg">
<path d="M0 15C0 6.71573 6.71573 0 15 0H37V163H15C6.71573 163 0 156.284 0 148V15Z" fill="#F6815B"/>
<rect width="1097" height="163" transform="translate(37)" fill="#F0F0F0"/>
<path d="M101.906 53.9219L94.3945 51.2383V48.0859L104.602 52.375V54.6367L101.906 53.9219ZM94.3945 56.1719L101.918 53.4297L104.602 52.7852V55.0352L94.3945 59.3242V56.1719ZM126.914 52.0703V52.8789C126.914 54.1758 126.738 55.3398 126.387 56.3711C126.035 57.4023 125.539 58.2812 124.898 59.0078C124.258 59.7266 123.492 60.2773 122.602 60.6602C121.719 61.043 120.738 61.2344 119.66 61.2344C118.59 61.2344 117.609 61.043 116.719 60.6602C115.836 60.2773 115.07 59.7266 114.422 59.0078C113.773 58.2812 113.27 57.4023 112.91 56.3711C112.559 55.3398 112.383 54.1758 112.383 52.8789V52.0703C112.383 50.7656 112.559 49.6016 112.91 48.5781C113.262 47.5469 113.758 46.668 114.398 45.9414C115.047 45.2148 115.812 44.6602 116.695 44.2773C117.586 43.8945 118.566 43.7031 119.637 43.7031C120.715 43.7031 121.695 43.8945 122.578 44.2773C123.469 44.6602 124.234 45.2148 124.875 45.9414C125.523 46.668 126.023 47.5469 126.375 48.5781C126.734 49.6016 126.914 50.7656 126.914 52.0703ZM123.363 52.8789V52.0469C123.363 51.1406 123.281 50.3438 123.117 49.6562C122.953 48.9688 122.711 48.3906 122.391 47.9219C122.07 47.4531 121.68 47.1016 121.219 46.8672C120.758 46.625 120.23 46.5039 119.637 46.5039C119.043 46.5039 118.516 46.625 118.055 46.8672C117.602 47.1016 117.215 47.4531 116.895 47.9219C116.582 48.3906 116.344 48.9688 116.18 49.6562C116.016 50.3438 115.934 51.1406 115.934 52.0469V52.8789C115.934 53.7773 116.016 54.5742 116.18 55.2695C116.344 55.957 116.586 56.5391 116.906 57.0156C117.227 57.4844 117.617 57.8398 118.078 58.082C118.539 58.3242 119.066 58.4453 119.66 58.4453C120.254 58.4453 120.781 58.3242 121.242 58.082C121.703 57.8398 122.09 57.4844 122.402 57.0156C122.715 56.5391 122.953 55.957 123.117 55.2695C123.281 54.5742 123.363 53.7773 123.363 52.8789ZM132.539 51.0273V61H129.164V48.3203H132.328L132.539 51.0273ZM132.047 54.2148H131.133C131.133 53.2773 131.254 52.4336 131.496 51.6836C131.738 50.9258 132.078 50.2812 132.516 49.75C132.953 49.2109 133.473 48.8008 134.074 48.5195C134.684 48.2305 135.363 48.0859 136.113 48.0859C136.707 48.0859 137.25 48.1719 137.742 48.3438C138.234 48.5156 138.656 48.7891 139.008 49.1641C139.367 49.5391 139.641 50.0352 139.828 50.6523C140.023 51.2695 140.121 52.0234 140.121 52.9141V61H136.723V52.9023C136.723 52.3398 136.645 51.9023 136.488 51.5898C136.332 51.2773 136.102 51.0586 135.797 50.9336C135.5 50.8008 135.133 50.7344 134.695 50.7344C134.242 50.7344 133.848 50.8242 133.512 51.0039C133.184 51.1836 132.91 51.4336 132.691 51.7539C132.48 52.0664 132.32 52.4336 132.211 52.8555C132.102 53.2773 132.047 53.7305 132.047 54.2148ZM146.25 43V61H142.863V43H146.25ZM152.602 48.3203V61H149.215V48.3203H152.602ZM149.004 45.0156C149.004 44.5234 149.176 44.1172 149.52 43.7969C149.863 43.4766 150.324 43.3164 150.902 43.3164C151.473 43.3164 151.93 43.4766 152.273 43.7969C152.625 44.1172 152.801 44.5234 152.801 45.0156C152.801 45.5078 152.625 45.9141 152.273 46.2344C151.93 46.5547 151.473 46.7148 150.902 46.7148C150.324 46.7148 149.863 46.5547 149.52 46.2344C149.176 45.9141 149.004 45.5078 149.004 45.0156ZM158.695 51.0273V61H155.32V48.3203H158.484L158.695 51.0273ZM158.203 54.2148H157.289C157.289 53.2773 157.41 52.4336 157.652 51.6836C157.895 50.9258 158.234 50.2812 158.672 49.75C159.109 49.2109 159.629 48.8008 160.23 48.5195C160.84 48.2305 161.52 48.0859 162.27 48.0859C162.863 48.0859 163.406 48.1719 163.898 48.3438C164.391 48.5156 164.812 48.7891 165.164 49.1641C165.523 49.5391 165.797 50.0352 165.984 50.6523C166.18 51.2695 166.277 52.0234 166.277 52.9141V61H162.879V52.9023C162.879 52.3398 162.801 51.9023 162.645 51.5898C162.488 51.2773 162.258 51.0586 161.953 50.9336C161.656 50.8008 161.289 50.7344 160.852 50.7344C160.398 50.7344 160.004 50.8242 159.668 51.0039C159.34 51.1836 159.066 51.4336 158.848 51.7539C158.637 52.0664 158.477 52.4336 158.367 52.8555C158.258 53.2773 158.203 53.7305 158.203 54.2148ZM174.68 61.2344C173.695 61.2344 172.812 61.0781 172.031 60.7656C171.25 60.4453 170.586 60.0039 170.039 59.4414C169.5 58.8789 169.086 58.2266 168.797 57.4844C168.508 56.7344 168.363 55.9375 168.363 55.0938V54.625C168.363 53.6641 168.5 52.7852 168.773 51.9883C169.047 51.1914 169.438 50.5 169.945 49.9141C170.461 49.3281 171.086 48.8789 171.82 48.5664C172.555 48.2461 173.383 48.0859 174.305 48.0859C175.203 48.0859 176 48.2344 176.695 48.5312C177.391 48.8281 177.973 49.25 178.441 49.7969C178.918 50.3438 179.277 51 179.52 51.7656C179.762 52.5234 179.883 53.3672 179.883 54.2969V55.7031H169.805V53.4531H176.566V53.1953C176.566 52.7266 176.48 52.3086 176.309 51.9414C176.145 51.5664 175.895 51.2695 175.559 51.0508C175.223 50.832 174.793 50.7227 174.27 50.7227C173.824 50.7227 173.441 50.8203 173.121 51.0156C172.801 51.2109 172.539 51.4844 172.336 51.8359C172.141 52.1875 171.992 52.6016 171.891 53.0781C171.797 53.5469 171.75 54.0625 171.75 54.625V55.0938C171.75 55.6016 171.82 56.0703 171.961 56.5C172.109 56.9297 172.316 57.3008 172.582 57.6133C172.855 57.9258 173.184 58.168 173.566 58.3398C173.957 58.5117 174.398 58.5977 174.891 58.5977C175.5 58.5977 176.066 58.4805 176.59 58.2461C177.121 58.0039 177.578 57.6406 177.961 57.1562L179.602 58.9375C179.336 59.3203 178.973 59.6875 178.512 60.0391C178.059 60.3906 177.512 60.6797 176.871 60.9062C176.23 61.125 175.5 61.2344 174.68 61.2344ZM187.992 43.9375H194.355C195.66 43.9375 196.781 44.1328 197.719 44.5234C198.664 44.9141 199.391 45.4922 199.898 46.2578C200.406 47.0234 200.66 47.9648 200.66 49.082C200.66 49.9961 200.504 50.7812 200.191 51.4375C199.887 52.0859 199.453 52.6289 198.891 53.0664C198.336 53.4961 197.684 53.8398 196.934 54.0977L195.82 54.6836H190.289L190.266 51.9414H194.379C194.996 51.9414 195.508 51.832 195.914 51.6133C196.32 51.3945 196.625 51.0898 196.828 50.6992C197.039 50.3086 197.145 49.8555 197.145 49.3398C197.145 48.793 197.043 48.3203 196.84 47.9219C196.637 47.5234 196.328 47.2188 195.914 47.0078C195.5 46.7969 194.98 46.6914 194.355 46.6914H191.508V61H187.992V43.9375ZM197.531 61L193.641 53.3945L197.355 53.3711L201.293 60.8359V61H197.531ZM208.992 61.2344C208.008 61.2344 207.125 61.0781 206.344 60.7656C205.562 60.4453 204.898 60.0039 204.352 59.4414C203.812 58.8789 203.398 58.2266 203.109 57.4844C202.82 56.7344 202.676 55.9375 202.676 55.0938V54.625C202.676 53.6641 202.812 52.7852 203.086 51.9883C203.359 51.1914 203.75 50.5 204.258 49.9141C204.773 49.3281 205.398 48.8789 206.133 48.5664C206.867 48.2461 207.695 48.0859 208.617 48.0859C209.516 48.0859 210.312 48.2344 211.008 48.5312C211.703 48.8281 212.285 49.25 212.754 49.7969C213.23 50.3438 213.59 51 213.832 51.7656C214.074 52.5234 214.195 53.3672 214.195 54.2969V55.7031H204.117V53.4531H210.879V53.1953C210.879 52.7266 210.793 52.3086 210.621 51.9414C210.457 51.5664 210.207 51.2695 209.871 51.0508C209.535 50.832 209.105 50.7227 208.582 50.7227C208.137 50.7227 207.754 50.8203 207.434 51.0156C207.113 51.2109 206.852 51.4844 206.648 51.8359C206.453 52.1875 206.305 52.6016 206.203 53.0781C206.109 53.5469 206.062 54.0625 206.062 54.625V55.0938C206.062 55.6016 206.133 56.0703 206.273 56.5C206.422 56.9297 206.629 57.3008 206.895 57.6133C207.168 57.9258 207.496 58.168 207.879 58.3398C208.27 58.5117 208.711 58.5977 209.203 58.5977C209.812 58.5977 210.379 58.4805 210.902 58.2461C211.434 58.0039 211.891 57.6406 212.273 57.1562L213.914 58.9375C213.648 59.3203 213.285 59.6875 212.824 60.0391C212.371 60.3906 211.824 60.6797 211.184 60.9062C210.543 61.125 209.812 61.2344 208.992 61.2344ZM221.355 58.5977C221.77 58.5977 222.137 58.5195 222.457 58.3633C222.777 58.1992 223.027 57.9727 223.207 57.6836C223.395 57.3867 223.492 57.0391 223.5 56.6406H226.676C226.668 57.5312 226.43 58.3242 225.961 59.0195C225.492 59.707 224.863 60.25 224.074 60.6484C223.285 61.0391 222.402 61.2344 221.426 61.2344C220.441 61.2344 219.582 61.0703 218.848 60.7422C218.121 60.4141 217.516 59.9609 217.031 59.3828C216.547 58.7969 216.184 58.1172 215.941 57.3438C215.699 56.5625 215.578 55.7266 215.578 54.8359V54.4961C215.578 53.5977 215.699 52.7617 215.941 51.9883C216.184 51.207 216.547 50.5273 217.031 49.9492C217.516 49.3633 218.121 48.9062 218.848 48.5781C219.574 48.25 220.426 48.0859 221.402 48.0859C222.441 48.0859 223.352 48.2852 224.133 48.6836C224.922 49.082 225.539 49.6523 225.984 50.3945C226.438 51.1289 226.668 52 226.676 53.0078H223.5C223.492 52.5859 223.402 52.2031 223.23 51.8594C223.066 51.5156 222.824 51.2422 222.504 51.0391C222.191 50.8281 221.805 50.7227 221.344 50.7227C220.852 50.7227 220.449 50.8281 220.137 51.0391C219.824 51.2422 219.582 51.5234 219.41 51.8828C219.238 52.2344 219.117 52.6367 219.047 53.0898C218.984 53.5352 218.953 54.0039 218.953 54.4961V54.8359C218.953 55.3281 218.984 55.8008 219.047 56.2539C219.109 56.707 219.227 57.1094 219.398 57.4609C219.578 57.8125 219.824 58.0898 220.137 58.293C220.449 58.4961 220.855 58.5977 221.355 58.5977ZM232.195 48.3203V61H228.809V48.3203H232.195ZM228.598 45.0156C228.598 44.5234 228.77 44.1172 229.113 43.7969C229.457 43.4766 229.918 43.3164 230.496 43.3164C231.066 43.3164 231.523 43.4766 231.867 43.7969C232.219 44.1172 232.395 44.5234 232.395 45.0156C232.395 45.5078 232.219 45.9141 231.867 46.2344C231.523 46.5547 231.066 46.7148 230.496 46.7148C229.918 46.7148 229.457 46.5547 229.113 46.2344C228.77 45.9141 228.598 45.5078 228.598 45.0156ZM238.359 50.7578V65.875H234.984V48.3203H238.113L238.359 50.7578ZM246.387 54.5195V54.7656C246.387 55.6875 246.277 56.543 246.059 57.332C245.848 58.1211 245.535 58.8086 245.121 59.3945C244.707 59.9727 244.191 60.4258 243.574 60.7539C242.965 61.0742 242.262 61.2344 241.465 61.2344C240.691 61.2344 240.02 61.0781 239.449 60.7656C238.879 60.4531 238.398 60.0156 238.008 59.4531C237.625 58.8828 237.316 58.2227 237.082 57.4727C236.848 56.7227 236.668 55.918 236.543 55.0586V54.4141C236.668 53.4922 236.848 52.6484 237.082 51.8828C237.316 51.1094 237.625 50.4414 238.008 49.8789C238.398 49.3086 238.875 48.8672 239.438 48.5547C240.008 48.2422 240.676 48.0859 241.441 48.0859C242.246 48.0859 242.953 48.2383 243.562 48.543C244.18 48.8477 244.695 49.2852 245.109 49.8555C245.531 50.4258 245.848 51.1055 246.059 51.8945C246.277 52.6836 246.387 53.5586 246.387 54.5195ZM243 54.7656V54.5195C243 53.9805 242.953 53.4844 242.859 53.0312C242.773 52.5703 242.633 52.168 242.438 51.8242C242.25 51.4805 242 51.2148 241.688 51.0273C241.383 50.832 241.012 50.7344 240.574 50.7344C240.113 50.7344 239.719 50.8086 239.391 50.957C239.07 51.1055 238.809 51.3203 238.605 51.6016C238.402 51.8828 238.25 52.2188 238.148 52.6094C238.047 53 237.984 53.4414 237.961 53.9336V55.5625C238 56.1406 238.109 56.6602 238.289 57.1211C238.469 57.5742 238.746 57.9336 239.121 58.1992C239.496 58.4648 239.988 58.5977 240.598 58.5977C241.043 58.5977 241.418 58.5 241.723 58.3047C242.027 58.1016 242.273 57.8242 242.461 57.4727C242.656 57.1211 242.793 56.7148 242.871 56.2539C242.957 55.793 243 55.2969 243 54.7656ZM254.32 61.2344C253.336 61.2344 252.453 61.0781 251.672 60.7656C250.891 60.4453 250.227 60.0039 249.68 59.4414C249.141 58.8789 248.727 58.2266 248.438 57.4844C248.148 56.7344 248.004 55.9375 248.004 55.0938V54.625C248.004 53.6641 248.141 52.7852 248.414 51.9883C248.688 51.1914 249.078 50.5 249.586 49.9141C250.102 49.3281 250.727 48.8789 251.461 48.5664C252.195 48.2461 253.023 48.0859 253.945 48.0859C254.844 48.0859 255.641 48.2344 256.336 48.5312C257.031 48.8281 257.613 49.25 258.082 49.7969C258.559 50.3438 258.918 51 259.16 51.7656C259.402 52.5234 259.523 53.3672 259.523 54.2969V55.7031H249.445V53.4531H256.207V53.1953C256.207 52.7266 256.121 52.3086 255.949 51.9414C255.785 51.5664 255.535 51.2695 255.199 51.0508C254.863 50.832 254.434 50.7227 253.91 50.7227C253.465 50.7227 253.082 50.8203 252.762 51.0156C252.441 51.2109 252.18 51.4844 251.977 51.8359C251.781 52.1875 251.633 52.6016 251.531 53.0781C251.438 53.5469 251.391 54.0625 251.391 54.625V55.0938C251.391 55.6016 251.461 56.0703 251.602 56.5C251.75 56.9297 251.957 57.3008 252.223 57.6133C252.496 57.9258 252.824 58.168 253.207 58.3398C253.598 58.5117 254.039 58.5977 254.531 58.5977C255.141 58.5977 255.707 58.4805 256.23 58.2461C256.762 58.0039 257.219 57.6406 257.602 57.1562L259.242 58.9375C258.977 59.3203 258.613 59.6875 258.152 60.0391C257.699 60.3906 257.152 60.6797 256.512 60.9062C255.871 61.125 255.141 61.2344 254.32 61.2344ZM268.301 57.4961C268.301 57.2539 268.23 57.0352 268.09 56.8398C267.949 56.6445 267.688 56.4648 267.305 56.3008C266.93 56.1289 266.387 55.9727 265.676 55.832C265.035 55.6914 264.438 55.5156 263.883 55.3047C263.336 55.0859 262.859 54.8242 262.453 54.5195C262.055 54.2148 261.742 53.8555 261.516 53.4414C261.289 53.0195 261.176 52.5391 261.176 52C261.176 51.4688 261.289 50.9688 261.516 50.5C261.75 50.0312 262.082 49.6172 262.512 49.2578C262.949 48.8906 263.48 48.6055 264.105 48.4023C264.738 48.1914 265.449 48.0859 266.238 48.0859C267.34 48.0859 268.285 48.2617 269.074 48.6133C269.871 48.9648 270.48 49.4492 270.902 50.0664C271.332 50.6758 271.547 51.3711 271.547 52.1523H268.172C268.172 51.8242 268.102 51.5312 267.961 51.2734C267.828 51.0078 267.617 50.8008 267.328 50.6523C267.047 50.4961 266.68 50.418 266.227 50.418C265.852 50.418 265.527 50.4844 265.254 50.6172C264.98 50.7422 264.77 50.9141 264.621 51.1328C264.48 51.3438 264.41 51.5781 264.41 51.8359C264.41 52.0312 264.449 52.207 264.527 52.3633C264.613 52.5117 264.75 52.6484 264.938 52.7734C265.125 52.8984 265.367 53.0156 265.664 53.125C265.969 53.2266 266.344 53.3203 266.789 53.4062C267.703 53.5938 268.52 53.8398 269.238 54.1445C269.957 54.4414 270.527 54.8477 270.949 55.3633C271.371 55.8711 271.582 56.5391 271.582 57.3672C271.582 57.9297 271.457 58.4453 271.207 58.9141C270.957 59.3828 270.598 59.793 270.129 60.1445C269.66 60.4883 269.098 60.7578 268.441 60.9531C267.793 61.1406 267.062 61.2344 266.25 61.2344C265.07 61.2344 264.07 61.0234 263.25 60.6016C262.438 60.1797 261.82 59.6445 261.398 58.9961C260.984 58.3398 260.777 57.668 260.777 56.9805H263.977C263.992 57.4414 264.109 57.8125 264.328 58.0938C264.555 58.375 264.84 58.5781 265.184 58.7031C265.535 58.8281 265.914 58.8906 266.32 58.8906C266.758 58.8906 267.121 58.832 267.41 58.7148C267.699 58.5898 267.918 58.4258 268.066 58.2227C268.223 58.0117 268.301 57.7695 268.301 57.4961Z" fill="#888888"/>
<path d="M109.219 107.422H100.734V101.07H109.219C110.375 101.07 111.312 100.875 112.031 100.484C112.75 100.094 113.273 99.5547 113.602 98.8672C113.945 98.1641 114.117 97.375 114.117 96.5C114.117 95.5625 113.945 94.6953 113.602 93.8984C113.273 93.1016 112.75 92.4609 112.031 91.9766C111.312 91.4766 110.375 91.2266 109.219 91.2266H103.828V119H95.6016V84.875H109.219C111.953 84.875 114.305 85.375 116.273 86.375C118.258 87.375 119.781 88.75 120.844 90.5C121.906 92.2344 122.438 94.2188 122.438 96.4531C122.438 98.6562 121.906 100.578 120.844 102.219C119.781 103.859 118.258 105.141 116.273 106.062C114.305 106.969 111.953 107.422 109.219 107.422ZM134.461 99.9219V119H126.562V93.6406H133.945L134.461 99.9219ZM141.961 93.4531L141.82 100.789C141.508 100.758 141.086 100.719 140.555 100.672C140.023 100.625 139.578 100.602 139.219 100.602C138.297 100.602 137.5 100.711 136.828 100.93C136.172 101.133 135.625 101.445 135.188 101.867C134.766 102.273 134.453 102.789 134.25 103.414C134.062 104.039 133.977 104.766 133.992 105.594L132.562 104.656C132.562 102.953 132.727 101.406 133.055 100.016C133.398 98.6094 133.883 97.3984 134.508 96.3828C135.133 95.3516 135.891 94.5625 136.781 94.0156C137.672 93.4531 138.672 93.1719 139.781 93.1719C140.172 93.1719 140.555 93.1953 140.93 93.2422C141.32 93.2891 141.664 93.3594 141.961 93.4531ZM142.852 106.578V106.086C142.852 104.227 143.117 102.516 143.648 100.953C144.18 99.375 144.961 98.0078 145.992 96.8516C147.023 95.6953 148.297 94.7969 149.812 94.1562C151.328 93.5 153.078 93.1719 155.062 93.1719C157.062 93.1719 158.82 93.5 160.336 94.1562C161.867 94.7969 163.148 95.6953 164.18 96.8516C165.211 98.0078 165.992 99.375 166.523 100.953C167.055 102.516 167.32 104.227 167.32 106.086V106.578C167.32 108.422 167.055 110.133 166.523 111.711C165.992 113.273 165.211 114.641 164.18 115.812C163.148 116.969 161.875 117.867 160.359 118.508C158.844 119.148 157.094 119.469 155.109 119.469C153.125 119.469 151.367 119.148 149.836 118.508C148.305 117.867 147.023 116.969 145.992 115.812C144.961 114.641 144.18 113.273 143.648 111.711C143.117 110.133 142.852 108.422 142.852 106.578ZM150.75 106.086V106.578C150.75 107.531 150.82 108.422 150.961 109.25C151.102 110.078 151.336 110.805 151.664 111.43C151.992 112.039 152.438 112.516 153 112.859C153.562 113.203 154.266 113.375 155.109 113.375C155.938 113.375 156.625 113.203 157.172 112.859C157.734 112.516 158.18 112.039 158.508 111.43C158.836 110.805 159.07 110.078 159.211 109.25C159.352 108.422 159.422 107.531 159.422 106.578V106.086C159.422 105.164 159.352 104.297 159.211 103.484C159.07 102.656 158.836 101.93 158.508 101.305C158.18 100.664 157.734 100.164 157.172 99.8047C156.609 99.4453 155.906 99.2656 155.062 99.2656C154.234 99.2656 153.539 99.4453 152.977 99.8047C152.43 100.164 151.992 100.664 151.664 101.305C151.336 101.93 151.102 102.656 150.961 103.484C150.82 104.297 150.75 105.164 150.75 106.086ZM184.195 93.6406V99.125H168.914V93.6406H184.195ZM172.125 87.3359H180.023V110.727C180.023 111.398 180.102 111.922 180.258 112.297C180.414 112.656 180.68 112.914 181.055 113.07C181.445 113.211 181.961 113.281 182.602 113.281C183.055 113.281 183.43 113.273 183.727 113.258C184.023 113.227 184.305 113.188 184.57 113.141V118.789C183.898 119.008 183.195 119.172 182.461 119.281C181.727 119.406 180.945 119.469 180.117 119.469C178.43 119.469 176.984 119.203 175.781 118.672C174.594 118.141 173.688 117.305 173.062 116.164C172.438 115.023 172.125 113.539 172.125 111.711V87.3359ZM185.648 106.578V106.086C185.648 104.227 185.914 102.516 186.445 100.953C186.977 99.375 187.758 98.0078 188.789 96.8516C189.82 95.6953 191.094 94.7969 192.609 94.1562C194.125 93.5 195.875 93.1719 197.859 93.1719C199.859 93.1719 201.617 93.5 203.133 94.1562C204.664 94.7969 205.945 95.6953 206.977 96.8516C208.008 98.0078 208.789 99.375 209.32 100.953C209.852 102.516 210.117 104.227 210.117 106.086V106.578C210.117 108.422 209.852 110.133 209.32 111.711C208.789 113.273 208.008 114.641 206.977 115.812C205.945 116.969 204.672 117.867 203.156 118.508C201.641 119.148 199.891 119.469 197.906 119.469C195.922 119.469 194.164 119.148 192.633 118.508C191.102 117.867 189.82 116.969 188.789 115.812C187.758 114.641 186.977 113.273 186.445 111.711C185.914 110.133 185.648 108.422 185.648 106.578ZM193.547 106.086V106.578C193.547 107.531 193.617 108.422 193.758 109.25C193.898 110.078 194.133 110.805 194.461 111.43C194.789 112.039 195.234 112.516 195.797 112.859C196.359 113.203 197.062 113.375 197.906 113.375C198.734 113.375 199.422 113.203 199.969 112.859C200.531 112.516 200.977 112.039 201.305 111.43C201.633 110.805 201.867 110.078 202.008 109.25C202.148 108.422 202.219 107.531 202.219 106.578V106.086C202.219 105.164 202.148 104.297 202.008 103.484C201.867 102.656 201.633 101.93 201.305 101.305C200.977 100.664 200.531 100.164 199.969 99.8047C199.406 99.4453 198.703 99.2656 197.859 99.2656C197.031 99.2656 196.336 99.4453 195.773 99.8047C195.227 100.164 194.789 100.664 194.461 101.305C194.133 101.93 193.898 102.656 193.758 103.484C193.617 104.297 193.547 105.164 193.547 106.086ZM226.992 93.6406V99.125H211.711V93.6406H226.992ZM214.922 87.3359H222.82V110.727C222.82 111.398 222.898 111.922 223.055 112.297C223.211 112.656 223.477 112.914 223.852 113.07C224.242 113.211 224.758 113.281 225.398 113.281C225.852 113.281 226.227 113.273 226.523 113.258C226.82 113.227 227.102 113.188 227.367 113.141V118.789C226.695 119.008 225.992 119.172 225.258 119.281C224.523 119.406 223.742 119.469 222.914 119.469C221.227 119.469 219.781 119.203 218.578 118.672C217.391 118.141 216.484 117.305 215.859 116.164C215.234 115.023 214.922 113.539 214.922 111.711V87.3359ZM237.914 116.023L244.477 93.6406H252.961L242.766 122.773C242.547 123.414 242.258 124.102 241.898 124.836C241.539 125.586 241.047 126.297 240.422 126.969C239.797 127.641 238.992 128.188 238.008 128.609C237.039 129.031 235.836 129.242 234.398 129.242C233.633 129.242 233.07 129.203 232.711 129.125C232.367 129.062 231.836 128.945 231.117 128.773V123.125C231.32 123.125 231.492 123.125 231.633 123.125C231.789 123.125 231.961 123.125 232.148 123.125C232.992 123.125 233.664 123.039 234.164 122.867C234.68 122.695 235.07 122.445 235.336 122.117C235.617 121.789 235.836 121.391 235.992 120.922L237.914 116.023ZM236.25 93.6406L241.242 111.383L242.109 119.75H236.812L227.789 93.6406H236.25ZM262.992 98.5156V128.75H255.094V93.6406H262.453L262.992 98.5156ZM278.555 106.016V106.508C278.555 108.352 278.344 110.062 277.922 111.641C277.5 113.219 276.875 114.594 276.047 115.766C275.219 116.938 274.188 117.852 272.953 118.508C271.734 119.148 270.32 119.469 268.711 119.469C267.195 119.469 265.891 119.133 264.797 118.461C263.703 117.789 262.789 116.859 262.055 115.672C261.32 114.484 260.727 113.125 260.273 111.594C259.82 110.062 259.461 108.445 259.195 106.742V106.109C259.461 104.281 259.82 102.586 260.273 101.023C260.727 99.4453 261.32 98.0703 262.055 96.8984C262.789 95.7266 263.695 94.8125 264.773 94.1562C265.867 93.5 267.172 93.1719 268.688 93.1719C270.297 93.1719 271.711 93.4766 272.93 94.0859C274.164 94.6953 275.195 95.5703 276.023 96.7109C276.867 97.8359 277.5 99.1875 277.922 100.766C278.344 102.344 278.555 104.094 278.555 106.016ZM270.656 106.508V106.016C270.656 105.031 270.586 104.133 270.445 103.32C270.305 102.492 270.078 101.773 269.766 101.164C269.469 100.555 269.07 100.086 268.57 99.7578C268.07 99.4297 267.453 99.2656 266.719 99.2656C265.875 99.2656 265.164 99.3984 264.586 99.6641C264.023 99.9141 263.57 100.305 263.227 100.836C262.898 101.352 262.664 102 262.523 102.781C262.398 103.547 262.344 104.445 262.359 105.477V107.398C262.328 108.586 262.445 109.633 262.711 110.539C262.977 111.43 263.438 112.125 264.094 112.625C264.75 113.125 265.641 113.375 266.766 113.375C267.516 113.375 268.141 113.203 268.641 112.859C269.141 112.5 269.539 112.008 269.836 111.383C270.133 110.742 270.344 110.008 270.469 109.18C270.594 108.352 270.656 107.461 270.656 106.508ZM290.414 93.6406V119H282.492V93.6406H290.414ZM282.023 87.1016C282.023 85.9766 282.43 85.0547 283.242 84.3359C284.055 83.6172 285.109 83.2578 286.406 83.2578C287.703 83.2578 288.758 83.6172 289.57 84.3359C290.383 85.0547 290.789 85.9766 290.789 87.1016C290.789 88.2266 290.383 89.1484 289.57 89.8672C288.758 90.5859 287.703 90.9453 286.406 90.9453C285.109 90.9453 284.055 90.5859 283.242 89.8672C282.43 89.1484 282.023 88.2266 282.023 87.1016ZM303.047 99.0547V119H295.148V93.6406H302.555L303.047 99.0547ZM302.109 105.453L300.258 105.5C300.258 103.562 300.492 101.836 300.961 100.32C301.43 98.7891 302.094 97.4922 302.953 96.4297C303.812 95.3672 304.836 94.5625 306.023 94.0156C307.227 93.4531 308.562 93.1719 310.031 93.1719C311.203 93.1719 312.273 93.3438 313.242 93.6875C314.227 94.0312 315.07 94.5859 315.773 95.3516C316.492 96.1172 317.039 97.1328 317.414 98.3984C317.805 99.6484 318 101.195 318 103.039V119H310.055V103.016C310.055 102 309.914 101.227 309.633 100.695C309.352 100.148 308.945 99.7734 308.414 99.5703C307.883 99.3672 307.234 99.2656 306.469 99.2656C305.656 99.2656 304.969 99.4219 304.406 99.7344C303.844 100.047 303.391 100.484 303.047 101.047C302.719 101.594 302.477 102.242 302.32 102.992C302.18 103.742 302.109 104.562 302.109 105.453ZM338.32 93.6406H345.492V118.016C345.492 120.359 344.953 122.344 343.875 123.969C342.797 125.609 341.289 126.852 339.352 127.695C337.43 128.555 335.18 128.984 332.602 128.984C331.461 128.984 330.297 128.836 329.109 128.539C327.922 128.258 326.812 127.836 325.781 127.273C324.75 126.711 323.883 126.016 323.18 125.188L326.484 120.547C327.125 121.266 327.93 121.875 328.898 122.375C329.867 122.891 331.008 123.148 332.32 123.148C333.461 123.148 334.414 122.945 335.18 122.539C335.961 122.133 336.555 121.539 336.961 120.758C337.367 119.992 337.57 119.062 337.57 117.969V99.6406L338.32 93.6406ZM321.469 106.625V106.133C321.469 104.211 321.703 102.461 322.172 100.883C322.656 99.2891 323.344 97.9219 324.234 96.7812C325.141 95.625 326.234 94.7344 327.516 94.1094C328.797 93.4844 330.242 93.1719 331.852 93.1719C333.586 93.1719 335.008 93.5078 336.117 94.1797C337.242 94.8359 338.141 95.7578 338.812 96.9453C339.5 98.1328 340.031 99.5234 340.406 101.117C340.797 102.695 341.125 104.398 341.391 106.227V106.812C341.125 108.531 340.758 110.156 340.289 111.688C339.836 113.203 339.242 114.547 338.508 115.719C337.773 116.891 336.852 117.812 335.742 118.484C334.648 119.141 333.336 119.469 331.805 119.469C330.211 119.469 328.773 119.148 327.492 118.508C326.227 117.867 325.141 116.969 324.234 115.812C323.344 114.656 322.656 113.297 322.172 111.734C321.703 110.172 321.469 108.469 321.469 106.625ZM329.367 106.133V106.625C329.367 107.578 329.453 108.461 329.625 109.273C329.812 110.086 330.094 110.805 330.469 111.43C330.844 112.039 331.305 112.516 331.852 112.859C332.414 113.203 333.07 113.375 333.82 113.375C334.961 113.375 335.883 113.133 336.586 112.648C337.289 112.164 337.797 111.477 338.109 110.586C338.422 109.695 338.555 108.648 338.508 107.445V105.594C338.539 104.562 338.469 103.656 338.297 102.875C338.125 102.078 337.852 101.414 337.477 100.883C337.117 100.352 336.633 99.9531 336.023 99.6875C335.43 99.4062 334.711 99.2656 333.867 99.2656C333.133 99.2656 332.484 99.4375 331.922 99.7812C331.359 100.125 330.891 100.609 330.516 101.234C330.141 101.844 329.852 102.57 329.648 103.414C329.461 104.242 329.367 105.148 329.367 106.133Z" fill="black"/>
<path d="M1134 0H1348C1356.28 0 1363 6.71573 1363 15V148C1363 156.284 1356.28 163 1348 163H1134V0Z" fill="#F6815B"/>
<path fill-rule="evenodd" clip-rule="evenodd" d="M1202.75 46.5018C1202.75 45.3973 1203.65 44.5018 1204.75 44.5018H1292.25C1293.35 44.5018 1294.25 45.3973 1294.25 46.5018V116.498C1294.25 117.603 1293.35 118.498 1292.25 118.498H1204.75C1203.65 118.498 1202.75 117.603 1202.75 116.498V46.5018ZM1206.75 48.5018V52.9963H1290.25V48.5018H1206.75ZM1290.25 56.9963H1235.19V114.498H1290.25V56.9963ZM1231.19 114.498V56.9963H1206.75V114.498H1231.19Z" fill="white"/>
<path fill-rule="evenodd" clip-rule="evenodd" d="M1209.72 62.3022C1209.72 61.1976 1210.62 60.3022 1211.72 60.3022H1225.72C1226.83 60.3022 1227.72 61.1976 1227.72 62.3022V81.6974C1227.72 82.802 1226.83 83.6974 1225.72 83.6974H1211.72C1210.62 83.6974 1209.72 82.802 1209.72 81.6974V62.3022ZM1213.72 64.3022V79.6974H1223.72V64.3022H1213.72ZM1239.33 63.1982C1239.33 62.0936 1240.22 61.1982 1241.33 61.1982H1284.25C1285.36 61.1982 1286.25 62.0936 1286.25 63.1982V109.407C1286.25 110.511 1285.36 111.407 1284.25 111.407H1241.33C1240.22 111.407 1239.33 110.511 1239.33 109.407V63.1982ZM1243.33 65.1982V107.407H1282.25V65.1982H1243.33ZM1209.56 93.4381C1209.56 92.3336 1210.46 91.4381 1211.56 91.4381H1220.48C1221.59 91.4381 1222.48 92.3336 1222.48 93.4381C1222.48 94.5427 1221.59 95.4381 1220.48 95.4381H1211.56C1210.46 95.4381 1209.56 94.5427 1209.56 93.4381ZM1209.56 100.438C1209.56 99.3335 1210.46 98.4381 1211.56 98.4381H1226.1C1227.21 98.4381 1228.1 99.3335 1228.1 100.438C1228.1 101.543 1227.21 102.438 1226.1 102.438H1211.56C1210.46 102.438 1209.56 101.543 1209.56 100.438ZM1209.56 107.438C1209.56 106.334 1210.46 105.438 1211.56 105.438H1220.48C1221.59 105.438 1222.48 106.334 1222.48 107.438C1222.48 108.543 1221.59 109.438 1220.48 109.438H1211.56C1210.46 109.438 1209.56 108.543 1209.56 107.438Z" fill="white"/>
</svg>
