<svg width="1363" height="163" viewBox="0 0 1363 163" fill="none" xmlns="http://www.w3.org/2000/svg">
<path d="M0 15C0 6.71573 6.71573 0 15 0H37V163H15C6.71573 163 0 156.284 0 148V15Z" fill="#F6815B"/>
<rect width="1097" height="163" transform="translate(37)" fill="#F0F0F0"/>
<path d="M101.906 53.9219L94.3945 51.2383V48.0859L104.602 52.375V54.6367L101.906 53.9219ZM94.3945 56.1719L101.918 53.4297L104.602 52.7852V55.0352L94.3945 59.3242V56.1719ZM126.914 52.0703V52.8789C126.914 54.1758 126.738 55.3398 126.387 56.3711C126.035 57.4023 125.539 58.2812 124.898 59.0078C124.258 59.7266 123.492 60.2773 122.602 60.6602C121.719 61.043 120.738 61.2344 119.66 61.2344C118.59 61.2344 117.609 61.043 116.719 60.6602C115.836 60.2773 115.07 59.7266 114.422 59.0078C113.773 58.2812 113.27 57.4023 112.91 56.3711C112.559 55.3398 112.383 54.1758 112.383 52.8789V52.0703C112.383 50.7656 112.559 49.6016 112.91 48.5781C113.262 47.5469 113.758 46.668 114.398 45.9414C115.047 45.2148 115.812 44.6602 116.695 44.2773C117.586 43.8945 118.566 43.7031 119.637 43.7031C120.715 43.7031 121.695 43.8945 122.578 44.2773C123.469 44.6602 124.234 45.2148 124.875 45.9414C125.523 46.668 126.023 47.5469 126.375 48.5781C126.734 49.6016 126.914 50.7656 126.914 52.0703ZM123.363 52.8789V52.0469C123.363 51.1406 123.281 50.3438 123.117 49.6562C122.953 48.9688 122.711 48.3906 122.391 47.9219C122.07 47.4531 121.68 47.1016 121.219 46.8672C120.758 46.625 120.23 46.5039 119.637 46.5039C119.043 46.5039 118.516 46.625 118.055 46.8672C117.602 47.1016 117.215 47.4531 116.895 47.9219C116.582 48.3906 116.344 48.9688 116.18 49.6562C116.016 50.3438 115.934 51.1406 115.934 52.0469V52.8789C115.934 53.7773 116.016 54.5742 116.18 55.2695C116.344 55.957 116.586 56.5391 116.906 57.0156C117.227 57.4844 117.617 57.8398 118.078 58.082C118.539 58.3242 119.066 58.4453 119.66 58.4453C120.254 58.4453 120.781 58.3242 121.242 58.082C121.703 57.8398 122.09 57.4844 122.402 57.0156C122.715 56.5391 122.953 55.957 123.117 55.2695C123.281 54.5742 123.363 53.7773 123.363 52.8789ZM132.539 51.0273V61H129.164V48.3203H132.328L132.539 51.0273ZM132.047 54.2148H131.133C131.133 53.2773 131.254 52.4336 131.496 51.6836C131.738 50.9258 132.078 50.2812 132.516 49.75C132.953 49.2109 133.473 48.8008 134.074 48.5195C134.684 48.2305 135.363 48.0859 136.113 48.0859C136.707 48.0859 137.25 48.1719 137.742 48.3438C138.234 48.5156 138.656 48.7891 139.008 49.1641C139.367 49.5391 139.641 50.0352 139.828 50.6523C140.023 51.2695 140.121 52.0234 140.121 52.9141V61H136.723V52.9023C136.723 52.3398 136.645 51.9023 136.488 51.5898C136.332 51.2773 136.102 51.0586 135.797 50.9336C135.5 50.8008 135.133 50.7344 134.695 50.7344C134.242 50.7344 133.848 50.8242 133.512 51.0039C133.184 51.1836 132.91 51.4336 132.691 51.7539C132.48 52.0664 132.32 52.4336 132.211 52.8555C132.102 53.2773 132.047 53.7305 132.047 54.2148ZM146.25 43V61H142.863V43H146.25ZM152.602 48.3203V61H149.215V48.3203H152.602ZM149.004 45.0156C149.004 44.5234 149.176 44.1172 149.52 43.7969C149.863 43.4766 150.324 43.3164 150.902 43.3164C151.473 43.3164 151.93 43.4766 152.273 43.7969C152.625 44.1172 152.801 44.5234 152.801 45.0156C152.801 45.5078 152.625 45.9141 152.273 46.2344C151.93 46.5547 151.473 46.7148 150.902 46.7148C150.324 46.7148 149.863 46.5547 149.52 46.2344C149.176 45.9141 149.004 45.5078 149.004 45.0156ZM158.695 51.0273V61H155.32V48.3203H158.484L158.695 51.0273ZM158.203 54.2148H157.289C157.289 53.2773 157.41 52.4336 157.652 51.6836C157.895 50.9258 158.234 50.2812 158.672 49.75C159.109 49.2109 159.629 48.8008 160.23 48.5195C160.84 48.2305 161.52 48.0859 162.27 48.0859C162.863 48.0859 163.406 48.1719 163.898 48.3438C164.391 48.5156 164.812 48.7891 165.164 49.1641C165.523 49.5391 165.797 50.0352 165.984 50.6523C166.18 51.2695 166.277 52.0234 166.277 52.9141V61H162.879V52.9023C162.879 52.3398 162.801 51.9023 162.645 51.5898C162.488 51.2773 162.258 51.0586 161.953 50.9336C161.656 50.8008 161.289 50.7344 160.852 50.7344C160.398 50.7344 160.004 50.8242 159.668 51.0039C159.34 51.1836 159.066 51.4336 158.848 51.7539C158.637 52.0664 158.477 52.4336 158.367 52.8555C158.258 53.2773 158.203 53.7305 158.203 54.2148ZM174.68 61.2344C173.695 61.2344 172.812 61.0781 172.031 60.7656C171.25 60.4453 170.586 60.0039 170.039 59.4414C169.5 58.8789 169.086 58.2266 168.797 57.4844C168.508 56.7344 168.363 55.9375 168.363 55.0938V54.625C168.363 53.6641 168.5 52.7852 168.773 51.9883C169.047 51.1914 169.438 50.5 169.945 49.9141C170.461 49.3281 171.086 48.8789 171.82 48.5664C172.555 48.2461 173.383 48.0859 174.305 48.0859C175.203 48.0859 176 48.2344 176.695 48.5312C177.391 48.8281 177.973 49.25 178.441 49.7969C178.918 50.3438 179.277 51 179.52 51.7656C179.762 52.5234 179.883 53.3672 179.883 54.2969V55.7031H169.805V53.4531H176.566V53.1953C176.566 52.7266 176.48 52.3086 176.309 51.9414C176.145 51.5664 175.895 51.2695 175.559 51.0508C175.223 50.832 174.793 50.7227 174.27 50.7227C173.824 50.7227 173.441 50.8203 173.121 51.0156C172.801 51.2109 172.539 51.4844 172.336 51.8359C172.141 52.1875 171.992 52.6016 171.891 53.0781C171.797 53.5469 171.75 54.0625 171.75 54.625V55.0938C171.75 55.6016 171.82 56.0703 171.961 56.5C172.109 56.9297 172.316 57.3008 172.582 57.6133C172.855 57.9258 173.184 58.168 173.566 58.3398C173.957 58.5117 174.398 58.5977 174.891 58.5977C175.5 58.5977 176.066 58.4805 176.59 58.2461C177.121 58.0039 177.578 57.6406 177.961 57.1562L179.602 58.9375C179.336 59.3203 178.973 59.6875 178.512 60.0391C178.059 60.3906 177.512 60.6797 176.871 60.9062C176.23 61.125 175.5 61.2344 174.68 61.2344ZM187.992 43.9375H194.355C195.66 43.9375 196.781 44.1328 197.719 44.5234C198.664 44.9141 199.391 45.4922 199.898 46.2578C200.406 47.0234 200.66 47.9648 200.66 49.082C200.66 49.9961 200.504 50.7812 200.191 51.4375C199.887 52.0859 199.453 52.6289 198.891 53.0664C198.336 53.4961 197.684 53.8398 196.934 54.0977L195.82 54.6836H190.289L190.266 51.9414H194.379C194.996 51.9414 195.508 51.832 195.914 51.6133C196.32 51.3945 196.625 51.0898 196.828 50.6992C197.039 50.3086 197.145 49.8555 197.145 49.3398C197.145 48.793 197.043 48.3203 196.84 47.9219C196.637 47.5234 196.328 47.2188 195.914 47.0078C195.5 46.7969 194.98 46.6914 194.355 46.6914H191.508V61H187.992V43.9375ZM197.531 61L193.641 53.3945L197.355 53.3711L201.293 60.8359V61H197.531ZM208.992 61.2344C208.008 61.2344 207.125 61.0781 206.344 60.7656C205.562 60.4453 204.898 60.0039 204.352 59.4414C203.812 58.8789 203.398 58.2266 203.109 57.4844C202.82 56.7344 202.676 55.9375 202.676 55.0938V54.625C202.676 53.6641 202.812 52.7852 203.086 51.9883C203.359 51.1914 203.75 50.5 204.258 49.9141C204.773 49.3281 205.398 48.8789 206.133 48.5664C206.867 48.2461 207.695 48.0859 208.617 48.0859C209.516 48.0859 210.312 48.2344 211.008 48.5312C211.703 48.8281 212.285 49.25 212.754 49.7969C213.23 50.3438 213.59 51 213.832 51.7656C214.074 52.5234 214.195 53.3672 214.195 54.2969V55.7031H204.117V53.4531H210.879V53.1953C210.879 52.7266 210.793 52.3086 210.621 51.9414C210.457 51.5664 210.207 51.2695 209.871 51.0508C209.535 50.832 209.105 50.7227 208.582 50.7227C208.137 50.7227 207.754 50.8203 207.434 51.0156C207.113 51.2109 206.852 51.4844 206.648 51.8359C206.453 52.1875 206.305 52.6016 206.203 53.0781C206.109 53.5469 206.062 54.0625 206.062 54.625V55.0938C206.062 55.6016 206.133 56.0703 206.273 56.5C206.422 56.9297 206.629 57.3008 206.895 57.6133C207.168 57.9258 207.496 58.168 207.879 58.3398C208.27 58.5117 208.711 58.5977 209.203 58.5977C209.812 58.5977 210.379 58.4805 210.902 58.2461C211.434 58.0039 211.891 57.6406 212.273 57.1562L213.914 58.9375C213.648 59.3203 213.285 59.6875 212.824 60.0391C212.371 60.3906 211.824 60.6797 211.184 60.9062C210.543 61.125 209.812 61.2344 208.992 61.2344ZM221.355 58.5977C221.77 58.5977 222.137 58.5195 222.457 58.3633C222.777 58.1992 223.027 57.9727 223.207 57.6836C223.395 57.3867 223.492 57.0391 223.5 56.6406H226.676C226.668 57.5312 226.43 58.3242 225.961 59.0195C225.492 59.707 224.863 60.25 224.074 60.6484C223.285 61.0391 222.402 61.2344 221.426 61.2344C220.441 61.2344 219.582 61.0703 218.848 60.7422C218.121 60.4141 217.516 59.9609 217.031 59.3828C216.547 58.7969 216.184 58.1172 215.941 57.3438C215.699 56.5625 215.578 55.7266 215.578 54.8359V54.4961C215.578 53.5977 215.699 52.7617 215.941 51.9883C216.184 51.207 216.547 50.5273 217.031 49.9492C217.516 49.3633 218.121 48.9062 218.848 48.5781C219.574 48.25 220.426 48.0859 221.402 48.0859C222.441 48.0859 223.352 48.2852 224.133 48.6836C224.922 49.082 225.539 49.6523 225.984 50.3945C226.438 51.1289 226.668 52 226.676 53.0078H223.5C223.492 52.5859 223.402 52.2031 223.23 51.8594C223.066 51.5156 222.824 51.2422 222.504 51.0391C222.191 50.8281 221.805 50.7227 221.344 50.7227C220.852 50.7227 220.449 50.8281 220.137 51.0391C219.824 51.2422 219.582 51.5234 219.41 51.8828C219.238 52.2344 219.117 52.6367 219.047 53.0898C218.984 53.5352 218.953 54.0039 218.953 54.4961V54.8359C218.953 55.3281 218.984 55.8008 219.047 56.2539C219.109 56.707 219.227 57.1094 219.398 57.4609C219.578 57.8125 219.824 58.0898 220.137 58.293C220.449 58.4961 220.855 58.5977 221.355 58.5977ZM232.195 48.3203V61H228.809V48.3203H232.195ZM228.598 45.0156C228.598 44.5234 228.77 44.1172 229.113 43.7969C229.457 43.4766 229.918 43.3164 230.496 43.3164C231.066 43.3164 231.523 43.4766 231.867 43.7969C232.219 44.1172 232.395 44.5234 232.395 45.0156C232.395 45.5078 232.219 45.9141 231.867 46.2344C231.523 46.5547 231.066 46.7148 230.496 46.7148C229.918 46.7148 229.457 46.5547 229.113 46.2344C228.77 45.9141 228.598 45.5078 228.598 45.0156ZM238.359 50.7578V65.875H234.984V48.3203H238.113L238.359 50.7578ZM246.387 54.5195V54.7656C246.387 55.6875 246.277 56.543 246.059 57.332C245.848 58.1211 245.535 58.8086 245.121 59.3945C244.707 59.9727 244.191 60.4258 243.574 60.7539C242.965 61.0742 242.262 61.2344 241.465 61.2344C240.691 61.2344 240.02 61.0781 239.449 60.7656C238.879 60.4531 238.398 60.0156 238.008 59.4531C237.625 58.8828 237.316 58.2227 237.082 57.4727C236.848 56.7227 236.668 55.918 236.543 55.0586V54.4141C236.668 53.4922 236.848 52.6484 237.082 51.8828C237.316 51.1094 237.625 50.4414 238.008 49.8789C238.398 49.3086 238.875 48.8672 239.438 48.5547C240.008 48.2422 240.676 48.0859 241.441 48.0859C242.246 48.0859 242.953 48.2383 243.562 48.543C244.18 48.8477 244.695 49.2852 245.109 49.8555C245.531 50.4258 245.848 51.1055 246.059 51.8945C246.277 52.6836 246.387 53.5586 246.387 54.5195ZM243 54.7656V54.5195C243 53.9805 242.953 53.4844 242.859 53.0312C242.773 52.5703 242.633 52.168 242.438 51.8242C242.25 51.4805 242 51.2148 241.688 51.0273C241.383 50.832 241.012 50.7344 240.574 50.7344C240.113 50.7344 239.719 50.8086 239.391 50.957C239.07 51.1055 238.809 51.3203 238.605 51.6016C238.402 51.8828 238.25 52.2188 238.148 52.6094C238.047 53 237.984 53.4414 237.961 53.9336V55.5625C238 56.1406 238.109 56.6602 238.289 57.1211C238.469 57.5742 238.746 57.9336 239.121 58.1992C239.496 58.4648 239.988 58.5977 240.598 58.5977C241.043 58.5977 241.418 58.5 241.723 58.3047C242.027 58.1016 242.273 57.8242 242.461 57.4727C242.656 57.1211 242.793 56.7148 242.871 56.2539C242.957 55.793 243 55.2969 243 54.7656ZM254.32 61.2344C253.336 61.2344 252.453 61.0781 251.672 60.7656C250.891 60.4453 250.227 60.0039 249.68 59.4414C249.141 58.8789 248.727 58.2266 248.438 57.4844C248.148 56.7344 248.004 55.9375 248.004 55.0938V54.625C248.004 53.6641 248.141 52.7852 248.414 51.9883C248.688 51.1914 249.078 50.5 249.586 49.9141C250.102 49.3281 250.727 48.8789 251.461 48.5664C252.195 48.2461 253.023 48.0859 253.945 48.0859C254.844 48.0859 255.641 48.2344 256.336 48.5312C257.031 48.8281 257.613 49.25 258.082 49.7969C258.559 50.3438 258.918 51 259.16 51.7656C259.402 52.5234 259.523 53.3672 259.523 54.2969V55.7031H249.445V53.4531H256.207V53.1953C256.207 52.7266 256.121 52.3086 255.949 51.9414C255.785 51.5664 255.535 51.2695 255.199 51.0508C254.863 50.832 254.434 50.7227 253.91 50.7227C253.465 50.7227 253.082 50.8203 252.762 51.0156C252.441 51.2109 252.18 51.4844 251.977 51.8359C251.781 52.1875 251.633 52.6016 251.531 53.0781C251.438 53.5469 251.391 54.0625 251.391 54.625V55.0938C251.391 55.6016 251.461 56.0703 251.602 56.5C251.75 56.9297 251.957 57.3008 252.223 57.6133C252.496 57.9258 252.824 58.168 253.207 58.3398C253.598 58.5117 254.039 58.5977 254.531 58.5977C255.141 58.5977 255.707 58.4805 256.23 58.2461C256.762 58.0039 257.219 57.6406 257.602 57.1562L259.242 58.9375C258.977 59.3203 258.613 59.6875 258.152 60.0391C257.699 60.3906 257.152 60.6797 256.512 60.9062C255.871 61.125 255.141 61.2344 254.32 61.2344ZM268.301 57.4961C268.301 57.2539 268.23 57.0352 268.09 56.8398C267.949 56.6445 267.688 56.4648 267.305 56.3008C266.93 56.1289 266.387 55.9727 265.676 55.832C265.035 55.6914 264.438 55.5156 263.883 55.3047C263.336 55.0859 262.859 54.8242 262.453 54.5195C262.055 54.2148 261.742 53.8555 261.516 53.4414C261.289 53.0195 261.176 52.5391 261.176 52C261.176 51.4688 261.289 50.9688 261.516 50.5C261.75 50.0312 262.082 49.6172 262.512 49.2578C262.949 48.8906 263.48 48.6055 264.105 48.4023C264.738 48.1914 265.449 48.0859 266.238 48.0859C267.34 48.0859 268.285 48.2617 269.074 48.6133C269.871 48.9648 270.48 49.4492 270.902 50.0664C271.332 50.6758 271.547 51.3711 271.547 52.1523H268.172C268.172 51.8242 268.102 51.5312 267.961 51.2734C267.828 51.0078 267.617 50.8008 267.328 50.6523C267.047 50.4961 266.68 50.418 266.227 50.418C265.852 50.418 265.527 50.4844 265.254 50.6172C264.98 50.7422 264.77 50.9141 264.621 51.1328C264.48 51.3438 264.41 51.5781 264.41 51.8359C264.41 52.0312 264.449 52.207 264.527 52.3633C264.613 52.5117 264.75 52.6484 264.938 52.7734C265.125 52.8984 265.367 53.0156 265.664 53.125C265.969 53.2266 266.344 53.3203 266.789 53.4062C267.703 53.5938 268.52 53.8398 269.238 54.1445C269.957 54.4414 270.527 54.8477 270.949 55.3633C271.371 55.8711 271.582 56.5391 271.582 57.3672C271.582 57.9297 271.457 58.4453 271.207 58.9141C270.957 59.3828 270.598 59.793 270.129 60.1445C269.66 60.4883 269.098 60.7578 268.441 60.9531C267.793 61.1406 267.062 61.2344 266.25 61.2344C265.07 61.2344 264.07 61.0234 263.25 60.6016C262.438 60.1797 261.82 59.6445 261.398 58.9961C260.984 58.3398 260.777 57.668 260.777 56.9805H263.977C263.992 57.4414 264.109 57.8125 264.328 58.0938C264.555 58.375 264.84 58.5781 265.184 58.7031C265.535 58.8281 265.914 58.8906 266.32 58.8906C266.758 58.8906 267.121 58.832 267.41 58.7148C267.699 58.5898 267.918 58.4258 268.066 58.2227C268.223 58.0117 268.301 57.7695 268.301 57.4961Z" fill="#888888"/>
<path d="M112.125 84.875V119H103.898V84.875H112.125ZM122.391 84.875V91.2266H93.8672V84.875H122.391ZM135.68 119.469C133.617 119.469 131.773 119.148 130.148 118.508C128.523 117.852 127.148 116.953 126.023 115.812C124.914 114.672 124.062 113.359 123.469 111.875C122.891 110.391 122.602 108.82 122.602 107.164V106.273C122.602 104.414 122.859 102.695 123.375 101.117C123.891 99.5234 124.656 98.1328 125.672 96.9453C126.688 95.7578 127.961 94.8359 129.492 94.1797C131.023 93.5078 132.805 93.1719 134.836 93.1719C136.633 93.1719 138.242 93.4609 139.664 94.0391C141.086 94.6172 142.289 95.4453 143.273 96.5234C144.273 97.6016 145.031 98.9062 145.547 100.438C146.078 101.969 146.344 103.688 146.344 105.594V108.805H125.625V103.859H138.633V103.25C138.648 102.406 138.5 101.688 138.188 101.094C137.891 100.5 137.453 100.047 136.875 99.7344C136.297 99.4219 135.594 99.2656 134.766 99.2656C133.906 99.2656 133.195 99.4531 132.633 99.8281C132.086 100.203 131.656 100.719 131.344 101.375C131.047 102.016 130.836 102.758 130.711 103.602C130.586 104.445 130.523 105.336 130.523 106.273V107.164C130.523 108.102 130.648 108.953 130.898 109.719C131.164 110.484 131.539 111.141 132.023 111.688C132.523 112.219 133.117 112.633 133.805 112.93C134.508 113.227 135.305 113.375 136.195 113.375C137.273 113.375 138.336 113.172 139.383 112.766C140.43 112.359 141.328 111.688 142.078 110.75L145.664 115.016C145.148 115.75 144.414 116.461 143.461 117.148C142.523 117.836 141.398 118.398 140.086 118.836C138.773 119.258 137.305 119.469 135.68 119.469ZM160.266 113.375C161 113.375 161.625 113.242 162.141 112.977C162.672 112.695 163.07 112.305 163.336 111.805C163.617 111.289 163.75 110.672 163.734 109.953H171.164C171.18 111.859 170.711 113.531 169.758 114.969C168.82 116.391 167.539 117.5 165.914 118.297C164.305 119.078 162.484 119.469 160.453 119.469C158.469 119.469 156.734 119.148 155.25 118.508C153.766 117.852 152.523 116.945 151.523 115.789C150.539 114.617 149.797 113.25 149.297 111.688C148.812 110.125 148.57 108.43 148.57 106.602V106.062C148.57 104.234 148.812 102.539 149.297 100.977C149.797 99.3984 150.539 98.0312 151.523 96.875C152.523 95.7031 153.758 94.7969 155.227 94.1562C156.711 93.5 158.438 93.1719 160.406 93.1719C162.516 93.1719 164.375 93.5703 165.984 94.3672C167.609 95.1641 168.883 96.3203 169.805 97.8359C170.727 99.3516 171.18 101.188 171.164 103.344H163.734C163.75 102.578 163.633 101.891 163.383 101.281C163.133 100.672 162.742 100.188 162.211 99.8281C161.695 99.4531 161.031 99.2656 160.219 99.2656C159.406 99.2656 158.75 99.4453 158.25 99.8047C157.75 100.164 157.367 100.664 157.102 101.305C156.852 101.93 156.68 102.648 156.586 103.461C156.508 104.273 156.469 105.141 156.469 106.062V106.602C156.469 107.539 156.508 108.422 156.586 109.25C156.68 110.062 156.859 110.781 157.125 111.406C157.391 112.016 157.773 112.5 158.273 112.859C158.773 113.203 159.438 113.375 160.266 113.375ZM182.273 83V119H174.375V83H182.273ZM181.336 105.453L179.484 105.5C179.484 103.719 179.703 102.078 180.141 100.578C180.578 99.0781 181.203 97.7734 182.016 96.6641C182.828 95.5547 183.805 94.6953 184.945 94.0859C186.086 93.4766 187.352 93.1719 188.742 93.1719C189.992 93.1719 191.133 93.3516 192.164 93.7109C193.211 94.0703 194.109 94.6484 194.859 95.4453C195.625 96.2422 196.211 97.2812 196.617 98.5625C197.039 99.8438 197.25 101.406 197.25 103.25V119H189.305V103.203C189.305 102.172 189.156 101.375 188.859 100.812C188.578 100.234 188.172 99.8359 187.641 99.6172C187.109 99.3828 186.461 99.2656 185.695 99.2656C184.773 99.2656 184.023 99.4219 183.445 99.7344C182.867 100.047 182.422 100.484 182.109 101.047C181.812 101.594 181.609 102.242 181.5 102.992C181.391 103.742 181.336 104.562 181.336 105.453ZM231.539 109.93C231.539 109.398 231.461 108.922 231.305 108.5C231.148 108.062 230.859 107.656 230.438 107.281C230.016 106.906 229.406 106.531 228.609 106.156C227.828 105.766 226.797 105.359 225.516 104.938C224.016 104.438 222.57 103.875 221.18 103.25C219.789 102.609 218.547 101.867 217.453 101.023C216.359 100.164 215.492 99.1641 214.852 98.0234C214.211 96.8672 213.891 95.5234 213.891 93.9922C213.891 92.5234 214.219 91.2031 214.875 90.0312C215.531 88.8438 216.445 87.8359 217.617 87.0078C218.805 86.1641 220.195 85.5234 221.789 85.0859C223.383 84.6328 225.125 84.4062 227.016 84.4062C229.516 84.4062 231.719 84.8438 233.625 85.7188C235.547 86.5781 237.047 87.8047 238.125 89.3984C239.219 90.9766 239.766 92.8438 239.766 95H231.586C231.586 94.1406 231.406 93.3828 231.047 92.7266C230.703 92.0703 230.18 91.5547 229.477 91.1797C228.773 90.8047 227.891 90.6172 226.828 90.6172C225.797 90.6172 224.93 90.7734 224.227 91.0859C223.523 91.3984 222.992 91.8203 222.633 92.3516C222.273 92.8672 222.094 93.4375 222.094 94.0625C222.094 94.5781 222.234 95.0469 222.516 95.4688C222.812 95.875 223.227 96.2578 223.758 96.6172C224.305 96.9766 224.961 97.3203 225.727 97.6484C226.508 97.9766 227.383 98.2969 228.352 98.6094C230.164 99.1875 231.773 99.8359 233.18 100.555C234.602 101.258 235.797 102.062 236.766 102.969C237.75 103.859 238.492 104.875 238.992 106.016C239.508 107.156 239.766 108.445 239.766 109.883C239.766 111.414 239.469 112.773 238.875 113.961C238.281 115.148 237.43 116.156 236.32 116.984C235.211 117.797 233.883 118.414 232.336 118.836C230.789 119.258 229.062 119.469 227.156 119.469C225.406 119.469 223.68 119.25 221.977 118.812C220.289 118.359 218.758 117.672 217.383 116.75C216.008 115.812 214.906 114.617 214.078 113.164C213.266 111.695 212.859 109.953 212.859 107.938H221.109C221.109 108.938 221.242 109.781 221.508 110.469C221.773 111.156 222.164 111.711 222.68 112.133C223.195 112.539 223.828 112.836 224.578 113.023C225.328 113.195 226.188 113.281 227.156 113.281C228.203 113.281 229.047 113.133 229.688 112.836C230.328 112.523 230.797 112.117 231.094 111.617C231.391 111.102 231.539 110.539 231.539 109.93ZM256.992 93.6406V99.125H241.711V93.6406H256.992ZM244.922 87.3359H252.82V110.727C252.82 111.398 252.898 111.922 253.055 112.297C253.211 112.656 253.477 112.914 253.852 113.07C254.242 113.211 254.758 113.281 255.398 113.281C255.852 113.281 256.227 113.273 256.523 113.258C256.82 113.227 257.102 113.188 257.367 113.141V118.789C256.695 119.008 255.992 119.172 255.258 119.281C254.523 119.406 253.742 119.469 252.914 119.469C251.227 119.469 249.781 119.203 248.578 118.672C247.391 118.141 246.484 117.305 245.859 116.164C245.234 115.023 244.922 113.539 244.922 111.711V87.3359ZM273.305 112.625V102.172C273.305 101.453 273.203 100.836 273 100.32C272.797 99.8047 272.477 99.4062 272.039 99.125C271.602 98.8281 271.016 98.6797 270.281 98.6797C269.688 98.6797 269.18 98.7812 268.758 98.9844C268.336 99.1875 268.016 99.4922 267.797 99.8984C267.578 100.305 267.469 100.82 267.469 101.445H259.57C259.57 100.273 259.828 99.1875 260.344 98.1875C260.875 97.1719 261.625 96.2891 262.594 95.5391C263.578 94.7891 264.75 94.2109 266.109 93.8047C267.484 93.3828 269.016 93.1719 270.703 93.1719C272.719 93.1719 274.516 93.5078 276.094 94.1797C277.688 94.8516 278.945 95.8594 279.867 97.2031C280.789 98.5312 281.25 100.203 281.25 102.219V112.602C281.25 114.258 281.344 115.516 281.531 116.375C281.719 117.219 281.984 117.961 282.328 118.602V119H274.406C274.031 118.219 273.75 117.266 273.562 116.141C273.391 115 273.305 113.828 273.305 112.625ZM274.266 103.508L274.312 107.727H270.82C270.086 107.727 269.461 107.828 268.945 108.031C268.445 108.234 268.039 108.516 267.727 108.875C267.43 109.219 267.211 109.609 267.07 110.047C266.945 110.484 266.883 110.945 266.883 111.43C266.883 111.898 266.992 112.32 267.211 112.695C267.445 113.055 267.758 113.336 268.148 113.539C268.539 113.742 268.977 113.844 269.461 113.844C270.336 113.844 271.078 113.68 271.688 113.352C272.312 113.008 272.789 112.594 273.117 112.109C273.445 111.625 273.609 111.172 273.609 110.75L275.344 113.984C275.031 114.609 274.672 115.242 274.266 115.883C273.875 116.523 273.383 117.117 272.789 117.664C272.211 118.195 271.5 118.633 270.656 118.977C269.812 119.305 268.789 119.469 267.586 119.469C266.023 119.469 264.586 119.148 263.273 118.508C261.977 117.867 260.938 116.977 260.156 115.836C259.375 114.68 258.984 113.352 258.984 111.852C258.984 110.539 259.219 109.367 259.688 108.336C260.172 107.305 260.898 106.43 261.867 105.711C262.836 104.992 264.07 104.445 265.57 104.07C267.07 103.695 268.836 103.508 270.867 103.508H274.266ZM296.344 113.375C297.078 113.375 297.703 113.242 298.219 112.977C298.75 112.695 299.148 112.305 299.414 111.805C299.695 111.289 299.828 110.672 299.812 109.953H307.242C307.258 111.859 306.789 113.531 305.836 114.969C304.898 116.391 303.617 117.5 301.992 118.297C300.383 119.078 298.562 119.469 296.531 119.469C294.547 119.469 292.812 119.148 291.328 118.508C289.844 117.852 288.602 116.945 287.602 115.789C286.617 114.617 285.875 113.25 285.375 111.688C284.891 110.125 284.648 108.43 284.648 106.602V106.062C284.648 104.234 284.891 102.539 285.375 100.977C285.875 99.3984 286.617 98.0312 287.602 96.875C288.602 95.7031 289.836 94.7969 291.305 94.1562C292.789 93.5 294.516 93.1719 296.484 93.1719C298.594 93.1719 300.453 93.5703 302.062 94.3672C303.688 95.1641 304.961 96.3203 305.883 97.8359C306.805 99.3516 307.258 101.188 307.242 103.344H299.812C299.828 102.578 299.711 101.891 299.461 101.281C299.211 100.672 298.82 100.188 298.289 99.8281C297.773 99.4531 297.109 99.2656 296.297 99.2656C295.484 99.2656 294.828 99.4453 294.328 99.8047C293.828 100.164 293.445 100.664 293.18 101.305C292.93 101.93 292.758 102.648 292.664 103.461C292.586 104.273 292.547 105.141 292.547 106.062V106.602C292.547 107.539 292.586 108.422 292.664 109.25C292.758 110.062 292.938 110.781 293.203 111.406C293.469 112.016 293.852 112.5 294.352 112.859C294.852 113.203 295.516 113.375 296.344 113.375ZM318.586 82.9766V119H310.688V82.9766H318.586ZM334.805 93.6406L323.789 106.555L318.023 112.32L314.578 107.305L319.383 101.047L325.336 93.6406H334.805ZM326.344 119L319.57 107.445L325.406 103.297L335.391 119H326.344Z" fill="black"/>
<path d="M1134 0H1348C1356.28 0 1363 6.71573 1363 15V148C1363 156.284 1356.28 163 1348 163H1134V0Z" fill="#F6815B"/>
<path fill-rule="evenodd" clip-rule="evenodd" d="M1218.75 53C1218.62 53 1218.49 53.0527 1218.4 53.1464C1218.3 53.2402 1218.25 53.3674 1218.25 53.5V109.5C1218.25 109.633 1218.3 109.76 1218.4 109.854C1218.49 109.947 1218.62 110 1218.75 110H1278.25C1278.38 110 1278.51 109.947 1278.6 109.854C1278.7 109.76 1278.75 109.633 1278.75 109.5V64C1278.75 63.8674 1278.7 63.7402 1278.6 63.6464C1278.51 63.5527 1278.38 63.5 1278.25 63.5H1248.5C1247.61 63.5 1246.77 63.1045 1246.2 62.4206L1238.34 53H1218.75ZM1214.15 48.9038C1215.37 47.6848 1217.03 47 1218.75 47H1239.75C1240.64 47 1241.48 47.3955 1242.05 48.0794L1249.91 57.5H1278.25C1279.97 57.5 1281.63 58.1848 1282.85 59.4038C1284.07 60.6228 1284.75 62.2761 1284.75 64V109.5C1284.75 111.224 1284.07 112.877 1282.85 114.096C1281.63 115.315 1279.97 116 1278.25 116H1218.75C1217.03 116 1215.37 115.315 1214.15 114.096C1212.93 112.877 1212.25 111.224 1212.25 109.5V53.5C1212.25 51.7761 1212.93 50.1228 1214.15 48.9038Z" fill="white"/>
<path fill-rule="evenodd" clip-rule="evenodd" d="M1243.97 75.5251C1245.34 76.892 1245.34 79.108 1243.97 80.4749L1237.7 86.75L1243.97 93.0251C1245.34 94.392 1245.34 96.608 1243.97 97.9749C1242.61 99.3417 1240.39 99.3417 1239.03 97.9749L1230.28 89.2249C1228.91 87.858 1228.91 85.642 1230.28 84.2751L1239.03 75.5251C1240.39 74.1583 1242.61 74.1583 1243.97 75.5251Z" fill="white"/>
<path fill-rule="evenodd" clip-rule="evenodd" d="M1252.28 97.9749C1250.91 96.608 1250.91 94.392 1252.28 93.0251L1258.55 86.75L1252.28 80.4749C1250.91 79.108 1250.91 76.892 1252.28 75.5251C1253.64 74.1583 1255.86 74.1583 1257.22 75.5251L1265.97 84.2751C1267.34 85.642 1267.34 87.858 1265.97 89.2249L1257.22 97.9749C1255.86 99.3417 1253.64 99.3417 1252.28 97.9749Z" fill="white"/>
</svg>
